<svg width="308" height="60" viewBox="0 0 308 60" fill="none" xmlns="http://www.w3.org/2000/svg">
<mask id="path-1-inside-1_10_50" fill="white">
<path d="M0 30C0 13.4315 13.4315 0 30 0H154V60H30C13.4315 60 0 46.5685 0 30V30Z"/>
</mask>
<g filter="url(#filter0_i_10_50)">
<path d="M0 30C0 13.4315 13.4315 0 30 0H154V60H30C13.4315 60 0 46.5685 0 30V30Z" fill="#D9D9D9"/>
</g>
<path d="M-2 30C-2 12.3269 12.3269 -2 30 -2H154V2H30C14.536 2 2 14.536 2 30H-2ZM154 62H30C12.3269 62 -2 47.6731 -2 30H2C2 45.464 14.536 58 30 58H154V62ZM30 62C12.3269 62 -2 47.6731 -2 30C-2 12.3269 12.3269 -2 30 -2V2C14.536 2 2 14.536 2 30C2 45.464 14.536 58 30 58V62ZM154 0V60V0Z" fill="#303030" mask="url(#path-1-inside-1_10_50)"/>
<mask id="path-3-inside-2_10_50" fill="white">
<path d="M154 0H278C294.569 0 308 13.4315 308 30V30C308 46.5685 294.569 60 278 60H154V0Z"/>
</mask>
<path d="M154 0H278C294.569 0 308 13.4315 308 30V30C308 46.5685 294.569 60 278 60H154V0Z" fill="#EBFFEE"/>
<path d="M154 -2H278C295.673 -2 310 12.3269 310 30H306C306 14.536 293.464 2 278 2H154V-2ZM310 30C310 47.6731 295.673 62 278 62H154V58H278C293.464 58 306 45.464 306 30H310ZM154 60V0V60ZM278 -2C295.673 -2 310 12.3269 310 30C310 47.6731 295.673 62 278 62V58C293.464 58 306 45.464 306 30C306 14.536 293.464 2 278 2V-2Z" fill="#303030" mask="url(#path-3-inside-2_10_50)"/>
<path d="M169.214 39V22.2727H174.866C176.178 22.2727 177.251 22.5096 178.084 22.9833C178.923 23.4516 179.543 24.0859 179.946 24.8864C180.349 25.6868 180.551 26.5798 180.551 27.5653C180.551 28.5509 180.349 29.4466 179.946 30.2525C179.549 31.0584 178.934 31.7009 178.1 32.18C177.267 32.6538 176.2 32.8906 174.899 32.8906H170.848V31.0938H174.833C175.732 31.0938 176.453 30.9386 176.998 30.6282C177.542 30.3178 177.937 29.8986 178.182 29.3704C178.433 28.8368 178.558 28.2351 178.558 27.5653C178.558 26.8956 178.433 26.2966 178.182 25.7685C177.937 25.2403 177.54 24.8265 176.99 24.527C176.44 24.2221 175.71 24.0696 174.801 24.0696H171.24V39H169.214ZM183.552 39V26.4545H185.415V28.3494H185.545C185.774 27.7287 186.188 27.225 186.787 26.8384C187.386 26.4518 188.061 26.2585 188.812 26.2585C188.954 26.2585 189.131 26.2612 189.343 26.2667C189.555 26.2721 189.716 26.2803 189.825 26.2912V28.2514C189.76 28.2351 189.61 28.2106 189.376 28.1779C189.147 28.1398 188.905 28.1207 188.649 28.1207C188.039 28.1207 187.495 28.2487 187.015 28.5046C186.542 28.7551 186.166 29.1036 185.888 29.5501C185.616 29.9911 185.48 30.4948 185.48 31.0611V39H183.552ZM196.988 39.2614C195.779 39.2614 194.736 38.9946 193.86 38.4609C192.989 37.9219 192.316 37.1705 191.842 36.2067C191.374 35.2375 191.14 34.1103 191.14 32.8253C191.14 31.5402 191.374 30.4077 191.842 29.4276C192.316 28.442 192.975 27.6742 193.819 27.1243C194.668 26.5689 195.659 26.2912 196.792 26.2912C197.445 26.2912 198.091 26.4001 198.728 26.6179C199.365 26.8357 199.945 27.1896 200.467 27.6797C200.99 28.1643 201.407 28.8068 201.717 29.6072C202.027 30.4077 202.183 31.3932 202.183 32.5639V33.3807H192.512V31.7145H200.222C200.222 31.0066 200.081 30.375 199.798 29.8196C199.52 29.2642 199.122 28.8259 198.605 28.5046C198.093 28.1834 197.489 28.0227 196.792 28.0227C196.024 28.0227 195.36 28.2133 194.799 28.5945C194.244 28.9702 193.816 29.4602 193.517 30.0646C193.217 30.669 193.068 31.317 193.068 32.0085V33.1193C193.068 34.0668 193.231 34.8699 193.558 35.5288C193.89 36.1822 194.35 36.6804 194.938 37.0234C195.526 37.361 196.209 37.5298 196.988 37.5298C197.494 37.5298 197.952 37.459 198.36 37.3175C198.774 37.1705 199.131 36.9527 199.43 36.6641C199.73 36.37 199.961 36.0052 200.124 35.5696L201.987 36.0923C201.791 36.724 201.461 37.2794 200.998 37.7585C200.535 38.2322 199.964 38.6025 199.283 38.8693C198.602 39.1307 197.837 39.2614 196.988 39.2614ZM210.701 26.4545V28.0881H203.939V26.4545H210.701ZM205.964 39V24.723C205.964 24.0043 206.133 23.4053 206.471 22.9261C206.808 22.447 207.247 22.0876 207.786 21.848C208.325 21.6084 208.894 21.4886 209.493 21.4886C209.966 21.4886 210.353 21.5268 210.652 21.603C210.952 21.6792 211.175 21.75 211.322 21.8153L210.767 23.4815C210.669 23.4489 210.533 23.408 210.358 23.359C210.19 23.31 209.966 23.2855 209.689 23.2855C209.052 23.2855 208.591 23.4461 208.308 23.7674C208.031 24.0887 207.892 24.5597 207.892 25.1804V39H205.964ZM218.146 39.2614C216.937 39.2614 215.895 38.9946 215.018 38.4609C214.147 37.9219 213.474 37.1705 213.001 36.2067C212.532 35.2375 212.298 34.1103 212.298 32.8253C212.298 31.5402 212.532 30.4077 213.001 29.4276C213.474 28.442 214.133 27.6742 214.977 27.1243C215.827 26.5689 216.818 26.2912 217.95 26.2912C218.604 26.2912 219.249 26.4001 219.886 26.6179C220.523 26.8357 221.103 27.1896 221.626 27.6797C222.148 28.1643 222.565 28.8068 222.875 29.6072C223.186 30.4077 223.341 31.3932 223.341 32.5639V33.3807H213.67V31.7145H221.381C221.381 31.0066 221.239 30.375 220.956 29.8196C220.678 29.2642 220.281 28.8259 219.763 28.5046C219.252 28.1834 218.647 28.0227 217.95 28.0227C217.182 28.0227 216.518 28.2133 215.957 28.5945C215.402 28.9702 214.974 29.4602 214.675 30.0646C214.376 30.669 214.226 31.317 214.226 32.0085V33.1193C214.226 34.0668 214.389 34.8699 214.716 35.5288C215.048 36.1822 215.508 36.6804 216.096 37.0234C216.684 37.361 217.368 37.5298 218.146 37.5298C218.653 37.5298 219.11 37.459 219.518 37.3175C219.932 37.1705 220.289 36.9527 220.588 36.6641C220.888 36.37 221.119 36.0052 221.283 35.5696L223.145 36.0923C222.949 36.724 222.619 37.2794 222.157 37.7585C221.694 38.2322 221.122 38.6025 220.441 38.8693C219.761 39.1307 218.996 39.2614 218.146 39.2614ZM226.273 39V26.4545H228.135V28.3494H228.266C228.495 27.7287 228.908 27.225 229.507 26.8384C230.106 26.4518 230.782 26.2585 231.533 26.2585C231.675 26.2585 231.851 26.2612 232.064 26.2667C232.276 26.2721 232.437 26.2803 232.546 26.2912V28.2514C232.48 28.2351 232.331 28.2106 232.097 28.1779C231.868 28.1398 231.626 28.1207 231.37 28.1207C230.76 28.1207 230.215 28.2487 229.736 28.5046C229.262 28.7551 228.887 29.1036 228.609 29.5501C228.337 29.9911 228.201 30.4948 228.201 31.0611V39H226.273ZM241.299 39V26.4545H243.162V28.4148H243.325C243.586 27.745 244.008 27.225 244.591 26.8548C245.174 26.479 245.873 26.2912 246.69 26.2912C247.518 26.2912 248.206 26.479 248.756 26.8548C249.312 27.225 249.745 27.745 250.055 28.4148H250.186C250.507 27.7668 250.989 27.2522 251.631 26.8711C252.274 26.4845 253.044 26.2912 253.943 26.2912C255.065 26.2912 255.982 26.6424 256.695 27.3448C257.409 28.0418 257.765 29.1281 257.765 30.6037V39H255.838V30.6037C255.838 29.678 255.585 29.0165 255.078 28.619C254.572 28.2215 253.975 28.0227 253.289 28.0227C252.407 28.0227 251.724 28.2895 251.239 28.8232C250.755 29.3513 250.512 30.0211 250.512 30.8324V39H248.552V30.4077C248.552 29.6944 248.321 29.1199 247.858 28.6843C247.395 28.2433 246.799 28.0227 246.069 28.0227C245.568 28.0227 245.1 28.1561 244.664 28.4229C244.234 28.6897 243.886 29.06 243.619 29.5337C243.358 30.002 243.227 30.5438 243.227 31.1591V39H241.299ZM266.386 39.2614C265.254 39.2614 264.26 38.9918 263.405 38.4528C262.556 37.9137 261.891 37.1596 261.412 36.1903C260.938 35.2211 260.702 34.0885 260.702 32.7926C260.702 31.4858 260.938 30.3451 261.412 29.3704C261.891 28.3957 262.556 27.6388 263.405 27.0998C264.26 26.5607 265.254 26.2912 266.386 26.2912C267.519 26.2912 268.51 26.5607 269.359 27.0998C270.214 27.6388 270.878 28.3957 271.352 29.3704C271.831 30.3451 272.071 31.4858 272.071 32.7926C272.071 34.0885 271.831 35.2211 271.352 36.1903C270.878 37.1596 270.214 37.9137 269.359 38.4528C268.51 38.9918 267.519 39.2614 266.386 39.2614ZM266.386 37.5298C267.247 37.5298 267.954 37.3093 268.51 36.8683C269.065 36.4272 269.476 35.8473 269.743 35.1286C270.01 34.4098 270.143 33.6312 270.143 32.7926C270.143 31.9541 270.01 31.1727 269.743 30.4485C269.476 29.7243 269.065 29.139 268.51 28.6925C267.954 28.246 267.247 28.0227 266.386 28.0227C265.526 28.0227 264.818 28.246 264.263 28.6925C263.707 29.139 263.296 29.7243 263.029 30.4485C262.762 31.1727 262.629 31.9541 262.629 32.7926C262.629 33.6312 262.762 34.4098 263.029 35.1286C263.296 35.8473 263.707 36.4272 264.263 36.8683C264.818 37.3093 265.526 37.5298 266.386 37.5298ZM275.013 39V26.4545H276.875V28.3494H277.006C277.235 27.7287 277.649 27.225 278.248 26.8384C278.847 26.4518 279.522 26.2585 280.273 26.2585C280.415 26.2585 280.592 26.2612 280.804 26.2667C281.016 26.2721 281.177 26.2803 281.286 26.2912V28.2514C281.221 28.2351 281.071 28.2106 280.837 28.1779C280.608 28.1398 280.366 28.1207 280.11 28.1207C279.5 28.1207 278.955 28.2487 278.476 28.5046C278.003 28.7551 277.627 29.1036 277.349 29.5501C277.077 29.9911 276.941 30.4948 276.941 31.0611V39H275.013ZM288.449 39.2614C287.24 39.2614 286.197 38.9946 285.321 38.4609C284.45 37.9219 283.777 37.1705 283.303 36.2067C282.835 35.2375 282.601 34.1103 282.601 32.8253C282.601 31.5402 282.835 30.4077 283.303 29.4276C283.777 28.442 284.436 27.6742 285.28 27.1243C286.129 26.5689 287.12 26.2912 288.253 26.2912C288.906 26.2912 289.552 26.4001 290.189 26.6179C290.826 26.8357 291.406 27.1896 291.928 27.6797C292.451 28.1643 292.868 28.8068 293.178 29.6072C293.488 30.4077 293.644 31.3932 293.644 32.5639V33.3807H283.973V31.7145H291.683C291.683 31.0066 291.542 30.375 291.259 29.8196C290.981 29.2642 290.583 28.8259 290.066 28.5046C289.554 28.1834 288.95 28.0227 288.253 28.0227C287.485 28.0227 286.821 28.2133 286.26 28.5945C285.705 28.9702 285.277 29.4602 284.978 30.0646C284.678 30.669 284.528 31.317 284.528 32.0085V33.1193C284.528 34.0668 284.692 34.8699 285.019 35.5288C285.351 36.1822 285.811 36.6804 286.399 37.0234C286.987 37.361 287.67 37.5298 288.449 37.5298C288.955 37.5298 289.413 37.459 289.821 37.3175C290.235 37.1705 290.592 36.9527 290.891 36.6641C291.191 36.37 291.422 36.0052 291.585 35.5696L293.448 36.0923C293.252 36.724 292.922 37.2794 292.459 37.7585C291.996 38.2322 291.425 38.6025 290.744 38.8693C290.063 39.1307 289.298 39.2614 288.449 39.2614Z" fill="black"/>
<path d="M45.1953 39H40.0334V22.2727H45.424C47.0466 22.2727 48.4351 22.6076 49.5895 23.2773C50.7438 23.9416 51.6287 24.8973 52.244 26.1442C52.8593 27.3857 53.1669 28.8722 53.1669 30.6037C53.1669 32.3461 52.8565 33.8462 52.2358 35.104C51.6151 36.3564 50.7112 37.3202 49.5241 37.9954C48.3371 38.6651 46.8942 39 45.1953 39ZM42.0589 37.2031H45.0646C46.4477 37.2031 47.5939 36.9363 48.5032 36.4027C49.4125 35.8691 50.0904 35.1095 50.5369 34.1239C50.9834 33.1384 51.2067 31.965 51.2067 30.6037C51.2067 29.2533 50.9862 28.0908 50.5451 27.1161C50.104 26.136 49.4452 25.3846 48.5685 24.8619C47.6919 24.3337 46.6001 24.0696 45.2933 24.0696H42.0589V37.2031ZM61.5632 39.2614C60.3544 39.2614 59.3117 38.9946 58.435 38.4609C57.5638 37.9219 56.8913 37.1705 56.4176 36.2067C55.9493 35.2375 55.7152 34.1103 55.7152 32.8253C55.7152 31.5402 55.9493 30.4077 56.4176 29.4276C56.8913 28.442 57.5502 27.6742 58.3942 27.1243C59.2436 26.5689 60.2346 26.2912 61.3672 26.2912C62.0206 26.2912 62.6658 26.4001 63.3029 26.6179C63.94 26.8357 64.5199 27.1896 65.0426 27.6797C65.5653 28.1643 65.9819 28.8068 66.2923 29.6072C66.6026 30.4077 66.7578 31.3932 66.7578 32.5639V33.3807H57.0874V31.7145H64.7976C64.7976 31.0066 64.656 30.375 64.3729 29.8196C64.0952 29.2642 63.6977 28.8259 63.1804 28.5046C62.6686 28.1834 62.0642 28.0227 61.3672 28.0227C60.5994 28.0227 59.9351 28.2133 59.3743 28.5945C58.8189 28.9702 58.3915 29.4602 58.092 30.0646C57.7925 30.669 57.6428 31.317 57.6428 32.0085V33.1193C57.6428 34.0668 57.8061 34.8699 58.1328 35.5288C58.465 36.1822 58.9251 36.6804 59.5131 37.0234C60.1012 37.361 60.7846 37.5298 61.5632 37.5298C62.0696 37.5298 62.527 37.459 62.9354 37.3175C63.3492 37.1705 63.7058 36.9527 64.0053 36.6641C64.3048 36.37 64.5362 36.0052 64.6996 35.5696L66.5618 36.0923C66.3658 36.724 66.0363 37.2794 65.5735 37.7585C65.1107 38.2322 64.5389 38.6025 63.8583 38.8693C63.1777 39.1307 62.4126 39.2614 61.5632 39.2614ZM75.2766 26.4545V28.0881H68.5138V26.4545H75.2766ZM70.5394 39V24.723C70.5394 24.0043 70.7082 23.4053 71.0458 22.9261C71.3834 22.447 71.8217 22.0876 72.3608 21.848C72.8999 21.6084 73.4689 21.4886 74.0678 21.4886C74.5415 21.4886 74.9281 21.5268 75.2276 21.603C75.5271 21.6792 75.7504 21.75 75.8974 21.8153L75.342 23.4815C75.244 23.4489 75.1078 23.408 74.9336 23.359C74.7648 23.31 74.5415 23.2855 74.2638 23.2855C73.6268 23.2855 73.1667 23.4461 72.8835 23.7674C72.6058 24.0887 72.467 24.5597 72.467 25.1804V39H70.5394ZM81.3105 39.294C80.5155 39.294 79.794 39.1443 79.146 38.8448C78.4981 38.5399 77.9835 38.1016 77.6024 37.5298C77.2212 36.9527 77.0306 36.2557 77.0306 35.4389C77.0306 34.7202 77.1722 34.1375 77.4553 33.6911C77.7385 33.2391 78.1169 32.8852 78.5906 32.6293C79.0644 32.3733 79.5871 32.1828 80.1588 32.0575C80.736 31.9268 81.3159 31.8234 81.8985 31.7472C82.6608 31.6491 83.2789 31.5756 83.7526 31.5266C84.2317 31.4722 84.5802 31.3823 84.798 31.2571C85.0213 31.1319 85.1329 30.9141 85.1329 30.6037V30.5384C85.1329 29.7325 84.9124 29.1063 84.4713 28.6598C84.0357 28.2133 83.3741 27.9901 82.4866 27.9901C81.5664 27.9901 80.8449 28.1915 80.3222 28.5945C79.7994 28.9974 79.4319 29.4276 79.2195 29.8849L77.39 29.2315C77.7167 28.4692 78.1523 27.8757 78.6968 27.451C79.2468 27.0208 79.8457 26.7214 80.4937 26.5526C81.1471 26.3783 81.7896 26.2912 82.4213 26.2912C82.8242 26.2912 83.287 26.3402 83.8097 26.4382C84.3379 26.5308 84.847 26.7241 85.3371 27.0181C85.8326 27.3121 86.2437 27.7559 86.5704 28.3494C86.8971 28.9429 87.0605 29.7379 87.0605 30.7344V39H85.1329V37.3011H85.0349C84.9042 37.5734 84.6864 37.8647 84.3815 38.1751C84.0766 38.4854 83.6709 38.7495 83.1645 38.9673C82.6581 39.1851 82.0401 39.294 81.3105 39.294ZM81.6045 37.5625C82.3668 37.5625 83.0093 37.4128 83.532 37.1133C84.0602 36.8138 84.4577 36.4272 84.7245 35.9535C84.9968 35.4798 85.1329 34.9815 85.1329 34.4588V32.6946C85.0512 32.7926 84.8715 32.8825 84.5938 32.9641C84.3216 33.0404 84.0058 33.1084 83.6464 33.1683C83.2925 33.2228 82.9467 33.2718 82.6091 33.3153C82.277 33.3535 82.0074 33.3861 81.8005 33.4134C81.2996 33.4787 80.8313 33.5849 80.3957 33.7319C79.9655 33.8735 79.617 34.0885 79.3502 34.3771C79.0889 34.6603 78.9582 35.0469 78.9582 35.5369C78.9582 36.2067 79.2059 36.7131 79.7014 37.0561C80.2024 37.3937 80.8367 37.5625 81.6045 37.5625ZM98.4849 33.8707V26.4545H100.412V39H98.4849V36.8764H98.3542C98.0602 37.5135 97.6028 38.0553 96.9821 38.5018C96.3613 38.9428 95.5772 39.1634 94.6298 39.1634C93.8457 39.1634 93.1487 38.9918 92.5389 38.6488C91.929 38.3003 91.4499 37.7776 91.1014 37.0806C90.7529 36.3782 90.5787 35.4934 90.5787 34.4261V26.4545H92.5062V34.2955C92.5062 35.2102 92.7621 35.9399 93.274 36.4844C93.7913 37.0289 94.4501 37.3011 95.2505 37.3011C95.7297 37.3011 96.217 37.1786 96.7125 36.9336C97.2135 36.6886 97.6328 36.3129 97.9703 35.8065C98.3134 35.3001 98.4849 34.6548 98.4849 33.8707ZM105.87 22.2727V39H103.943V22.2727H105.87ZM114.857 26.4545V28.0881H108.355V26.4545H114.857ZM110.25 23.4489H112.178V35.4062C112.178 35.9508 112.257 36.3591 112.415 36.6314C112.578 36.8982 112.785 37.0779 113.036 37.1705C113.291 37.2576 113.561 37.3011 113.844 37.3011C114.056 37.3011 114.231 37.2902 114.367 37.2685C114.503 37.2412 114.612 37.2195 114.694 37.2031L115.086 38.9347C114.955 38.9837 114.772 39.0327 114.538 39.0817C114.304 39.1361 114.007 39.1634 113.648 39.1634C113.104 39.1634 112.57 39.0463 112.047 38.8121C111.53 38.578 111.1 38.2214 110.757 37.7422C110.419 37.263 110.25 36.6586 110.25 35.929V23.4489Z" fill="black"/>
<defs>
<filter id="filter0_i_10_50" x="0" y="0" width="154" height="60" filterUnits="userSpaceOnUse" color-interpolation-filters="sRGB">
<feFlood flood-opacity="0" result="BackgroundImageFix"/>
<feBlend mode="normal" in="SourceGraphic" in2="BackgroundImageFix" result="shape"/>
<feColorMatrix in="SourceAlpha" type="matrix" values="0 0 0 0 0 0 0 0 0 0 0 0 0 0 0 0 0 0 127 0" result="hardAlpha"/>
<feMorphology radius="5" operator="erode" in="SourceAlpha" result="effect1_innerShadow_10_50"/>
<feOffset/>
<feGaussianBlur stdDeviation="3"/>
<feComposite in2="hardAlpha" operator="arithmetic" k2="-1" k3="1"/>
<feColorMatrix type="matrix" values="0 0 0 0 0 0 0 0 0 0 0 0 0 0 0 0 0 0 0.5 0"/>
<feBlend mode="normal" in2="shape" result="effect1_innerShadow_10_50"/>
</filter>
</defs>
</svg>
