<svg width="390" height="76" viewBox="0 0 390 76" fill="none" xmlns="http://www.w3.org/2000/svg">
<mask id="path-1-inside-1_8_25" fill="white">
<path d="M130 0H260V76H130V0Z"/>
</mask>
<path d="M130 0H260V76H130V0Z" fill="#D9D9D9"/>
<path d="M130 2H260V-2H130V2ZM260 74H130V78H260V74Z" fill="#303030" mask="url(#path-1-inside-1_8_25)"/>
<mask id="path-3-inside-2_8_25" fill="white">
<path d="M0 38C0 17.0132 17.0132 0 38 0H130V76H38C17.0132 76 0 58.9868 0 38V38Z"/>
</mask>
<path d="M0 38C0 17.0132 17.0132 0 38 0H130V76H38C17.0132 76 0 58.9868 0 38V38Z" fill="#FEE9E7"/>
<path d="M-2 38C-2 15.9086 15.9086 -2 38 -2H130V2H38C18.1177 2 2 18.1177 2 38H-2ZM130 78H38C15.9086 78 -2 60.0914 -2 38H2C2 57.8823 18.1177 74 38 74H130V78ZM38 78C15.9086 78 -2 60.0914 -2 38C-2 15.9086 15.9086 -2 38 -2V2C18.1177 2 2 18.1177 2 38C2 57.8823 18.1177 74 38 74V78ZM130 0V76V0Z" fill="#303030" mask="url(#path-3-inside-2_8_25)"/>
<mask id="path-5-inside-3_8_25" fill="white">
<path d="M260 0H352C372.987 0 390 17.0132 390 38V38C390 58.9868 372.987 76 352 76H260V0Z"/>
</mask>
<g filter="url(#filter0_i_8_25)">
<path d="M260 0H352C372.987 0 390 17.0132 390 38V38C390 58.9868 372.987 76 352 76H260V0Z" fill="#EBFFEE"/>
</g>
<path d="M260 -2H352C374.091 -2 392 15.9086 392 38H388C388 18.1177 371.882 2 352 2H260V-2ZM392 38C392 60.0914 374.091 78 352 78H260V74H352C371.882 74 388 57.8823 388 38H392ZM260 76V0V76ZM352 -2C374.091 -2 392 15.9086 392 38C392 60.0914 374.091 78 352 78V74C371.882 74 388 57.8823 388 38C388 18.1177 371.882 2 352 2V-2Z" fill="#303030" mask="url(#path-5-inside-3_8_25)"/>
<path d="M284.642 50V28.1818H292.014C293.726 28.1818 295.125 28.4908 296.212 29.1087C297.305 29.7195 298.115 30.5469 298.641 31.5909C299.166 32.6349 299.429 33.7997 299.429 35.0852C299.429 36.3707 299.166 37.5391 298.641 38.5902C298.122 39.6413 297.32 40.4794 296.233 41.1044C295.146 41.7223 293.754 42.0312 292.057 42.0312H286.773V39.6875H291.972C293.143 39.6875 294.085 39.4851 294.795 39.0803C295.505 38.6754 296.02 38.1286 296.339 37.4396C296.666 36.7436 296.83 35.9588 296.83 35.0852C296.83 34.2116 296.666 33.4304 296.339 32.7415C296.02 32.0526 295.501 31.5128 294.784 31.1222C294.067 30.7244 293.115 30.5256 291.929 30.5256H287.284V50H284.642ZM303.344 50V33.6364H305.773V36.108H305.944C306.242 35.2983 306.782 34.6413 307.563 34.1371C308.344 33.6328 309.225 33.3807 310.205 33.3807C310.39 33.3807 310.62 33.3842 310.897 33.3913C311.174 33.3984 311.384 33.4091 311.526 33.4233V35.9801C311.441 35.9588 311.245 35.9268 310.94 35.8842C310.642 35.8345 310.326 35.8097 309.992 35.8097C309.196 35.8097 308.486 35.9766 307.861 36.3104C307.243 36.6371 306.753 37.0916 306.391 37.674C306.036 38.2493 305.858 38.9062 305.858 39.6449V50H303.344ZM320.869 50.3409C319.292 50.3409 317.932 49.9929 316.789 49.2969C315.652 48.5938 314.775 47.6136 314.157 46.3565C313.547 45.0923 313.241 43.6222 313.241 41.946C313.241 40.2699 313.547 38.7926 314.157 37.5142C314.775 36.2287 315.635 35.2273 316.735 34.5099C317.843 33.7855 319.136 33.4233 320.613 33.4233C321.466 33.4233 322.307 33.5653 323.138 33.8494C323.969 34.1335 324.725 34.5952 325.407 35.2344C326.089 35.8665 326.632 36.7045 327.037 37.7486C327.442 38.7926 327.645 40.0781 327.645 41.6051V42.6705H315.031V40.4972H325.088C325.088 39.5739 324.903 38.75 324.534 38.0256C324.172 37.3011 323.653 36.7294 322.978 36.3104C322.311 35.8913 321.522 35.6818 320.613 35.6818C319.612 35.6818 318.745 35.9304 318.014 36.4276C317.289 36.9176 316.732 37.5568 316.341 38.3452C315.951 39.1335 315.755 39.9787 315.755 40.8807V42.3295C315.755 43.5653 315.968 44.6129 316.395 45.4723C316.828 46.3246 317.428 46.9744 318.195 47.4219C318.962 47.8622 319.853 48.0824 320.869 48.0824C321.529 48.0824 322.126 47.9901 322.659 47.8054C323.199 47.6136 323.664 47.3295 324.054 46.9531C324.445 46.5696 324.747 46.0937 324.96 45.5256L327.389 46.2074C327.133 47.0312 326.703 47.7557 326.1 48.3807C325.496 48.9986 324.75 49.4815 323.863 49.8295C322.975 50.1705 321.977 50.3409 320.869 50.3409ZM338.756 33.6364V35.767H329.935V33.6364H338.756ZM332.577 50V31.3778C332.577 30.4403 332.797 29.6591 333.238 29.0341C333.678 28.4091 334.25 27.9403 334.953 27.6278C335.656 27.3153 336.398 27.1591 337.179 27.1591C337.797 27.1591 338.301 27.2088 338.692 27.3082C339.083 27.4077 339.374 27.5 339.566 27.5852L338.841 29.7585C338.713 29.7159 338.536 29.6626 338.309 29.5987C338.088 29.5348 337.797 29.5028 337.435 29.5028C336.604 29.5028 336.004 29.7124 335.635 30.1314C335.272 30.5504 335.091 31.1648 335.091 31.9744V50H332.577ZM348.467 50.3409C346.89 50.3409 345.53 49.9929 344.386 49.2969C343.25 48.5938 342.373 47.6136 341.755 46.3565C341.144 45.0923 340.839 43.6222 340.839 41.946C340.839 40.2699 341.144 38.7926 341.755 37.5142C342.373 36.2287 343.232 35.2273 344.333 34.5099C345.441 33.7855 346.734 33.4233 348.211 33.4233C349.063 33.4233 349.905 33.5653 350.736 33.8494C351.567 34.1335 352.323 34.5952 353.005 35.2344C353.687 35.8665 354.23 36.7045 354.635 37.7486C355.04 38.7926 355.242 40.0781 355.242 41.6051V42.6705H342.629V40.4972H352.685C352.685 39.5739 352.501 38.75 352.131 38.0256C351.769 37.3011 351.251 36.7294 350.576 36.3104C349.908 35.8913 349.12 35.6818 348.211 35.6818C347.21 35.6818 346.343 35.9304 345.612 36.4276C344.887 36.9176 344.33 37.5568 343.939 38.3452C343.548 39.1335 343.353 39.9787 343.353 40.8807V42.3295C343.353 43.5653 343.566 44.6129 343.992 45.4723C344.425 46.3246 345.026 46.9744 345.793 47.4219C346.56 47.8622 347.451 48.0824 348.467 48.0824C349.127 48.0824 349.724 47.9901 350.256 47.8054C350.796 47.6136 351.261 47.3295 351.652 46.9531C352.043 46.5696 352.344 46.0937 352.558 45.5256L354.987 46.2074C354.731 47.0312 354.301 47.7557 353.697 48.3807C353.094 48.9986 352.348 49.4815 351.46 49.8295C350.572 50.1705 349.575 50.3409 348.467 50.3409ZM359.067 50V33.6364H361.496V36.108H361.666C361.964 35.2983 362.504 34.6413 363.286 34.1371C364.067 33.6328 364.947 33.3807 365.928 33.3807C366.112 33.3807 366.343 33.3842 366.62 33.3913C366.897 33.3984 367.107 33.4091 367.249 33.4233V35.9801C367.163 35.9588 366.968 35.9268 366.663 35.8842C366.364 35.8345 366.048 35.8097 365.714 35.8097C364.919 35.8097 364.209 35.9766 363.584 36.3104C362.966 36.6371 362.476 37.0916 362.114 37.674C361.759 38.2493 361.581 38.9062 361.581 39.6449V50H359.067Z" fill="black"/>
<path d="M33.5369 50H30.767L38.7784 28.1818H41.5057L49.517 50H46.7472L40.2273 31.6335H40.0568L33.5369 50ZM34.5597 41.4773H45.7244V43.821H34.5597V41.4773ZM63.9045 33.6364L57.8533 50H55.2965L49.2454 33.6364H51.9727L56.4897 46.6761H56.6602L61.1772 33.6364H63.9045ZM73.2848 50.3409C71.8075 50.3409 70.5114 49.9893 69.3963 49.2862C68.2884 48.5831 67.4219 47.5994 66.7969 46.3352C66.179 45.071 65.87 43.5937 65.87 41.9034C65.87 40.1989 66.179 38.7109 66.7969 37.4396C67.4219 36.1683 68.2884 35.1811 69.3963 34.478C70.5114 33.7749 71.8075 33.4233 73.2848 33.4233C74.7621 33.4233 76.0547 33.7749 77.1626 34.478C78.2777 35.1811 79.1442 36.1683 79.7621 37.4396C80.3871 38.7109 80.6996 40.1989 80.6996 41.9034C80.6996 43.5937 80.3871 45.071 79.7621 46.3352C79.1442 47.5994 78.2777 48.5831 77.1626 49.2862C76.0547 49.9893 74.7621 50.3409 73.2848 50.3409ZM73.2848 48.0824C74.407 48.0824 75.3303 47.7947 76.0547 47.2195C76.7791 46.6442 77.3153 45.8878 77.6634 44.9503C78.0114 44.0128 78.1854 42.9972 78.1854 41.9034C78.1854 40.8097 78.0114 39.7905 77.6634 38.8459C77.3153 37.9013 76.7791 37.1378 76.0547 36.5554C75.3303 35.973 74.407 35.6818 73.2848 35.6818C72.1626 35.6818 71.2393 35.973 70.5149 36.5554C69.7905 37.1378 69.2543 37.9013 68.9062 38.8459C68.5582 39.7905 68.3842 40.8097 68.3842 41.9034C68.3842 42.9972 68.5582 44.0128 68.9062 44.9503C69.2543 45.8878 69.7905 46.6442 70.5149 47.2195C71.2393 47.7947 72.1626 48.0824 73.2848 48.0824ZM84.5375 50V33.6364H87.0517V50H84.5375ZM85.8159 30.9091C85.3258 30.9091 84.9032 30.7422 84.5481 30.4084C84.2001 30.0746 84.0261 29.6733 84.0261 29.2045C84.0261 28.7358 84.2001 28.3345 84.5481 28.0007C84.9032 27.6669 85.3258 27.5 85.8159 27.5C86.3059 27.5 86.725 27.6669 87.073 28.0007C87.4281 28.3345 87.6056 28.7358 87.6056 29.2045C87.6056 29.6733 87.4281 30.0746 87.073 30.4084C86.725 30.7422 86.3059 30.9091 85.8159 30.9091ZM97.8356 50.3409C96.4719 50.3409 95.2681 49.9964 94.2241 49.3075C93.18 48.6115 92.3633 47.6314 91.7738 46.3672C91.1843 45.0959 90.8896 43.5938 90.8896 41.8608C90.8896 40.142 91.1843 38.6506 91.7738 37.3864C92.3633 36.1222 93.1836 35.1456 94.2347 34.4567C95.2859 33.7678 96.5004 33.4233 97.8782 33.4233C98.9435 33.4233 99.7852 33.6009 100.403 33.956C101.028 34.304 101.504 34.7017 101.831 35.1491C102.164 35.5895 102.424 35.9517 102.608 36.2358H102.821V28.1818H105.336V50H102.907V47.4858H102.608C102.424 47.7841 102.161 48.1605 101.82 48.6151C101.479 49.0625 100.993 49.4638 100.36 49.8189C99.7283 50.1669 98.8867 50.3409 97.8356 50.3409ZM98.1765 48.0824C99.185 48.0824 100.037 47.8196 100.733 47.294C101.429 46.7614 101.958 46.0263 102.321 45.0888C102.683 44.1442 102.864 43.054 102.864 41.8182C102.864 40.5966 102.686 39.5277 102.331 38.6115C101.976 37.6882 101.451 36.9709 100.755 36.4595C100.059 35.9411 99.1992 35.6818 98.1765 35.6818C97.1112 35.6818 96.2234 35.9553 95.5131 36.5021C94.81 37.0419 94.2809 37.777 93.9258 38.7074C93.5778 39.6307 93.4038 40.6676 93.4038 41.8182C93.4038 42.983 93.5813 44.0412 93.9364 44.9929C94.2987 45.9375 94.8313 46.6903 95.5344 47.2514C96.2447 47.8054 97.1254 48.0824 98.1765 48.0824Z" fill="black"/>
<path d="M162.943 28.1818V50H160.386L148.497 32.8693H148.284V50H145.642V28.1818H148.199L160.131 45.3551H160.344V28.1818H162.943ZM174.75 50.3409C173.173 50.3409 171.813 49.9929 170.67 49.2969C169.533 48.5938 168.656 47.6136 168.038 46.3565C167.427 45.0923 167.122 43.6222 167.122 41.946C167.122 40.2699 167.427 38.7926 168.038 37.5142C168.656 36.2287 169.515 35.2273 170.616 34.5099C171.724 33.7855 173.017 33.4233 174.494 33.4233C175.346 33.4233 176.188 33.5653 177.019 33.8494C177.85 34.1335 178.606 34.5952 179.288 35.2344C179.97 35.8665 180.513 36.7045 180.918 37.7486C181.323 38.7926 181.525 40.0781 181.525 41.6051V42.6705H168.912V40.4972H178.969C178.969 39.5739 178.784 38.75 178.415 38.0256C178.052 37.3011 177.534 36.7294 176.859 36.3104C176.192 35.8913 175.403 35.6818 174.494 35.6818C173.493 35.6818 172.626 35.9304 171.895 36.4276C171.17 36.9176 170.613 37.5568 170.222 38.3452C169.831 39.1335 169.636 39.9787 169.636 40.8807V42.3295C169.636 43.5653 169.849 44.6129 170.275 45.4723C170.709 46.3246 171.309 46.9744 172.076 47.4219C172.843 47.8622 173.734 48.0824 174.75 48.0824C175.41 48.0824 176.007 47.9901 176.54 47.8054C177.079 47.6136 177.545 47.3295 177.935 46.9531C178.326 46.5696 178.628 46.0937 178.841 45.5256L181.27 46.2074C181.014 47.0312 180.584 47.7557 179.981 48.3807C179.377 48.9986 178.631 49.4815 177.743 49.8295C176.856 50.1705 175.858 50.3409 174.75 50.3409ZM195.662 43.3097V33.6364H198.177V50H195.662V47.2301H195.492C195.108 48.0611 194.512 48.7678 193.702 49.3501C192.893 49.9254 191.87 50.2131 190.634 50.2131C189.611 50.2131 188.702 49.9893 187.907 49.5419C187.111 49.0874 186.486 48.4055 186.032 47.4964C185.577 46.5803 185.35 45.4261 185.35 44.0341V33.6364H187.864V43.8636C187.864 45.0568 188.198 46.0085 188.866 46.7188C189.54 47.429 190.4 47.7841 191.444 47.7841C192.069 47.7841 192.704 47.6243 193.351 47.3047C194.004 46.9851 194.551 46.495 194.991 45.8345C195.439 45.174 195.662 44.3324 195.662 43.3097ZM209.898 33.6364V35.767H201.418V33.6364H209.898ZM203.89 29.7159H206.404V45.3125C206.404 46.0227 206.507 46.5554 206.713 46.9105C206.926 47.2585 207.196 47.4929 207.522 47.6136C207.856 47.7273 208.208 47.7841 208.577 47.7841C208.854 47.7841 209.081 47.7699 209.259 47.7415C209.436 47.706 209.578 47.6776 209.685 47.6562L210.196 49.9148C210.026 49.9787 209.788 50.0426 209.483 50.1065C209.177 50.1776 208.79 50.2131 208.321 50.2131C207.611 50.2131 206.915 50.0604 206.233 49.755C205.559 49.4496 204.998 48.9844 204.55 48.3594C204.11 47.7344 203.89 46.946 203.89 45.9943V29.7159ZM213.68 50V33.6364H216.109V36.108H216.279C216.578 35.2983 217.118 34.6413 217.899 34.1371C218.68 33.6328 219.561 33.3807 220.541 33.3807C220.725 33.3807 220.956 33.3842 221.233 33.3913C221.51 33.3984 221.72 33.4091 221.862 33.4233V35.9801C221.777 35.9588 221.581 35.9268 221.276 35.8842C220.978 35.8345 220.662 35.8097 220.328 35.8097C219.532 35.8097 218.822 35.9766 218.197 36.3104C217.579 36.6371 217.089 37.0916 216.727 37.674C216.372 38.2493 216.194 38.9062 216.194 39.6449V50H213.68ZM229.657 50.3835C228.621 50.3835 227.68 50.1882 226.834 49.7976C225.989 49.3999 225.318 48.8281 224.821 48.0824C224.324 47.3295 224.075 46.4205 224.075 45.3551C224.075 44.4176 224.26 43.6577 224.629 43.0753C224.998 42.4858 225.492 42.0241 226.11 41.6903C226.728 41.3565 227.41 41.108 228.155 40.9446C228.908 40.7741 229.665 40.6392 230.425 40.5398C231.419 40.4119 232.225 40.3161 232.843 40.2521C233.468 40.1811 233.922 40.0639 234.206 39.9006C234.498 39.7372 234.643 39.4531 234.643 39.0483V38.9631C234.643 37.9119 234.356 37.0952 233.78 36.5128C233.212 35.9304 232.349 35.6392 231.192 35.6392C229.991 35.6392 229.05 35.902 228.368 36.4276C227.687 36.9531 227.207 37.5142 226.93 38.1108L224.544 37.2585C224.97 36.2642 225.538 35.4901 226.248 34.9361C226.966 34.375 227.747 33.9844 228.592 33.7642C229.444 33.5369 230.282 33.4233 231.106 33.4233C231.632 33.4233 232.236 33.4872 232.917 33.6151C233.606 33.7358 234.27 33.9879 234.91 34.3714C235.556 34.755 236.092 35.3338 236.518 36.108C236.944 36.8821 237.157 37.919 237.157 39.2188V50H234.643V47.7841H234.515C234.345 48.1392 234.061 48.5192 233.663 48.924C233.265 49.3288 232.736 49.6733 232.076 49.9574C231.415 50.2415 230.609 50.3835 229.657 50.3835ZM230.041 48.125C231.035 48.125 231.873 47.9297 232.555 47.5391C233.244 47.1484 233.763 46.6442 234.111 46.0263C234.466 45.4084 234.643 44.7585 234.643 44.0767V41.7756C234.537 41.9034 234.302 42.0206 233.94 42.1271C233.585 42.2266 233.173 42.3153 232.704 42.3935C232.243 42.4645 231.792 42.5284 231.351 42.5852C230.918 42.6349 230.567 42.6776 230.297 42.7131C229.643 42.7983 229.032 42.9368 228.464 43.1286C227.903 43.3132 227.449 43.5937 227.101 43.9702C226.76 44.3395 226.589 44.8437 226.589 45.483C226.589 46.3565 226.912 47.017 227.559 47.4645C228.212 47.9048 229.04 48.125 230.041 48.125ZM244.261 28.1818V50H241.746V28.1818H244.261Z" fill="black"/>
<defs>
<filter id="filter0_i_8_25" x="260" y="0" width="130" height="76" filterUnits="userSpaceOnUse" color-interpolation-filters="sRGB">
<feFlood flood-opacity="0" result="BackgroundImageFix"/>
<feBlend mode="normal" in="SourceGraphic" in2="BackgroundImageFix" result="shape"/>
<feColorMatrix in="SourceAlpha" type="matrix" values="0 0 0 0 0 0 0 0 0 0 0 0 0 0 0 0 0 0 127 0" result="hardAlpha"/>
<feMorphology radius="5" operator="erode" in="SourceAlpha" result="effect1_innerShadow_8_25"/>
<feOffset/>
<feGaussianBlur stdDeviation="3"/>
<feComposite in2="hardAlpha" operator="arithmetic" k2="-1" k3="1"/>
<feColorMatrix type="matrix" values="0 0 0 0 0 0 0 0 0 0 0 0 0 0 0 0 0 0 0.5 0"/>
<feBlend mode="normal" in2="shape" result="effect1_innerShadow_8_25"/>
</filter>
</defs>
</svg>
