<svg width="308" height="60" viewBox="0 0 308 60" fill="none" xmlns="http://www.w3.org/2000/svg">
<mask id="path-1-inside-1_10_51" fill="white">
<path d="M0 30C0 13.4315 13.4315 0 30 0H154V60H30C13.4315 60 0 46.5685 0 30V30Z"/>
</mask>
<path d="M0 30C0 13.4315 13.4315 0 30 0H154V60H30C13.4315 60 0 46.5685 0 30V30Z" fill="#D9D9D9"/>
<path d="M-2 30C-2 12.3269 12.3269 -2 30 -2H154V2H30C14.536 2 2 14.536 2 30H-2ZM154 62H30C12.3269 62 -2 47.6731 -2 30H2C2 45.464 14.536 58 30 58H154V62ZM30 62C12.3269 62 -2 47.6731 -2 30C-2 12.3269 12.3269 -2 30 -2V2C14.536 2 2 14.536 2 30C2 45.464 14.536 58 30 58V62ZM154 0V60V0Z" fill="#303030" mask="url(#path-1-inside-1_10_51)"/>
<mask id="path-3-inside-2_10_51" fill="white">
<path d="M154 0H278C294.569 0 308 13.4315 308 30V30C308 46.5685 294.569 60 278 60H154V0Z"/>
</mask>
<g filter="url(#filter0_i_10_51)">
<path d="M154 0H278C294.569 0 308 13.4315 308 30V30C308 46.5685 294.569 60 278 60H154V0Z" fill="#EBFFEE"/>
</g>
<path d="M154 -2H278C295.673 -2 310 12.3269 310 30H306C306 14.536 293.464 2 278 2H154V-2ZM310 30C310 47.6731 295.673 62 278 62H154V58H278C293.464 58 306 45.464 306 30H310ZM154 60V0V60ZM278 -2C295.673 -2 310 12.3269 310 30C310 47.6731 295.673 62 278 62V58C293.464 58 306 45.464 306 30C306 14.536 293.464 2 278 2V-2Z" fill="#303030" mask="url(#path-3-inside-2_10_51)"/>
<path d="M169.214 39V22.2727H174.866C176.178 22.2727 177.251 22.5096 178.084 22.9833C178.923 23.4516 179.543 24.0859 179.946 24.8864C180.349 25.6868 180.551 26.5798 180.551 27.5653C180.551 28.5509 180.349 29.4466 179.946 30.2525C179.549 31.0584 178.934 31.7009 178.1 32.18C177.267 32.6538 176.2 32.8906 174.899 32.8906H170.848V31.0938H174.833C175.732 31.0938 176.453 30.9386 176.998 30.6282C177.542 30.3178 177.937 29.8986 178.182 29.3704C178.433 28.8368 178.558 28.2351 178.558 27.5653C178.558 26.8956 178.433 26.2966 178.182 25.7685C177.937 25.2403 177.54 24.8265 176.99 24.527C176.44 24.2221 175.71 24.0696 174.801 24.0696H171.24V39H169.214ZM183.552 39V26.4545H185.415V28.3494H185.545C185.774 27.7287 186.188 27.225 186.787 26.8384C187.386 26.4518 188.061 26.2585 188.812 26.2585C188.954 26.2585 189.131 26.2612 189.343 26.2667C189.555 26.2721 189.716 26.2803 189.825 26.2912V28.2514C189.76 28.2351 189.61 28.2106 189.376 28.1779C189.147 28.1398 188.905 28.1207 188.649 28.1207C188.039 28.1207 187.495 28.2487 187.015 28.5046C186.542 28.7551 186.166 29.1036 185.888 29.5501C185.616 29.9911 185.48 30.4948 185.48 31.0611V39H183.552ZM196.988 39.2614C195.779 39.2614 194.736 38.9946 193.86 38.4609C192.989 37.9219 192.316 37.1705 191.842 36.2067C191.374 35.2375 191.14 34.1103 191.14 32.8253C191.14 31.5402 191.374 30.4077 191.842 29.4276C192.316 28.442 192.975 27.6742 193.819 27.1243C194.668 26.5689 195.659 26.2912 196.792 26.2912C197.445 26.2912 198.091 26.4001 198.728 26.6179C199.365 26.8357 199.945 27.1896 200.467 27.6797C200.99 28.1643 201.407 28.8068 201.717 29.6072C202.027 30.4077 202.183 31.3932 202.183 32.5639V33.3807H192.512V31.7145H200.222C200.222 31.0066 200.081 30.375 199.798 29.8196C199.52 29.2642 199.122 28.8259 198.605 28.5046C198.093 28.1834 197.489 28.0227 196.792 28.0227C196.024 28.0227 195.36 28.2133 194.799 28.5945C194.244 28.9702 193.816 29.4602 193.517 30.0646C193.217 30.669 193.068 31.317 193.068 32.0085V33.1193C193.068 34.0668 193.231 34.8699 193.558 35.5288C193.89 36.1822 194.35 36.6804 194.938 37.0234C195.526 37.361 196.209 37.5298 196.988 37.5298C197.494 37.5298 197.952 37.459 198.36 37.3175C198.774 37.1705 199.131 36.9527 199.43 36.6641C199.73 36.37 199.961 36.0052 200.124 35.5696L201.987 36.0923C201.791 36.724 201.461 37.2794 200.998 37.7585C200.535 38.2322 199.964 38.6025 199.283 38.8693C198.602 39.1307 197.837 39.2614 196.988 39.2614ZM210.701 26.4545V28.0881H203.939V26.4545H210.701ZM205.964 39V24.723C205.964 24.0043 206.133 23.4053 206.471 22.9261C206.808 22.447 207.247 22.0876 207.786 21.848C208.325 21.6084 208.894 21.4886 209.493 21.4886C209.966 21.4886 210.353 21.5268 210.652 21.603C210.952 21.6792 211.175 21.75 211.322 21.8153L210.767 23.4815C210.669 23.4489 210.533 23.408 210.358 23.359C210.19 23.31 209.966 23.2855 209.689 23.2855C209.052 23.2855 208.591 23.4461 208.308 23.7674C208.031 24.0887 207.892 24.5597 207.892 25.1804V39H205.964ZM218.146 39.2614C216.937 39.2614 215.895 38.9946 215.018 38.4609C214.147 37.9219 213.474 37.1705 213.001 36.2067C212.532 35.2375 212.298 34.1103 212.298 32.8253C212.298 31.5402 212.532 30.4077 213.001 29.4276C213.474 28.442 214.133 27.6742 214.977 27.1243C215.827 26.5689 216.818 26.2912 217.95 26.2912C218.604 26.2912 219.249 26.4001 219.886 26.6179C220.523 26.8357 221.103 27.1896 221.626 27.6797C222.148 28.1643 222.565 28.8068 222.875 29.6072C223.186 30.4077 223.341 31.3932 223.341 32.5639V33.3807H213.67V31.7145H221.381C221.381 31.0066 221.239 30.375 220.956 29.8196C220.678 29.2642 220.281 28.8259 219.763 28.5046C219.252 28.1834 218.647 28.0227 217.95 28.0227C217.182 28.0227 216.518 28.2133 215.957 28.5945C215.402 28.9702 214.974 29.4602 214.675 30.0646C214.376 30.669 214.226 31.317 214.226 32.0085V33.1193C214.226 34.0668 214.389 34.8699 214.716 35.5288C215.048 36.1822 215.508 36.6804 216.096 37.0234C216.684 37.361 217.368 37.5298 218.146 37.5298C218.653 37.5298 219.11 37.459 219.518 37.3175C219.932 37.1705 220.289 36.9527 220.588 36.6641C220.888 36.37 221.119 36.0052 221.283 35.5696L223.145 36.0923C222.949 36.724 222.619 37.2794 222.157 37.7585C221.694 38.2322 221.122 38.6025 220.441 38.8693C219.761 39.1307 218.996 39.2614 218.146 39.2614ZM226.273 39V26.4545H228.135V28.3494H228.266C228.495 27.7287 228.908 27.225 229.507 26.8384C230.106 26.4518 230.782 26.2585 231.533 26.2585C231.675 26.2585 231.851 26.2612 232.064 26.2667C232.276 26.2721 232.437 26.2803 232.546 26.2912V28.2514C232.48 28.2351 232.331 28.2106 232.097 28.1779C231.868 28.1398 231.626 28.1207 231.37 28.1207C230.76 28.1207 230.215 28.2487 229.736 28.5046C229.262 28.7551 228.887 29.1036 228.609 29.5501C228.337 29.9911 228.201 30.4948 228.201 31.0611V39H226.273ZM241.299 39V26.4545H243.162V28.4148H243.325C243.586 27.745 244.008 27.225 244.591 26.8548C245.174 26.479 245.873 26.2912 246.69 26.2912C247.518 26.2912 248.206 26.479 248.756 26.8548C249.312 27.225 249.745 27.745 250.055 28.4148H250.186C250.507 27.7668 250.989 27.2522 251.631 26.8711C252.274 26.4845 253.044 26.2912 253.943 26.2912C255.065 26.2912 255.982 26.6424 256.695 27.3448C257.409 28.0418 257.765 29.1281 257.765 30.6037V39H255.838V30.6037C255.838 29.678 255.585 29.0165 255.078 28.619C254.572 28.2215 253.975 28.0227 253.289 28.0227C252.407 28.0227 251.724 28.2895 251.239 28.8232C250.755 29.3513 250.512 30.0211 250.512 30.8324V39H248.552V30.4077C248.552 29.6944 248.321 29.1199 247.858 28.6843C247.395 28.2433 246.799 28.0227 246.069 28.0227C245.568 28.0227 245.1 28.1561 244.664 28.4229C244.234 28.6897 243.886 29.06 243.619 29.5337C243.358 30.002 243.227 30.5438 243.227 31.1591V39H241.299ZM266.386 39.2614C265.254 39.2614 264.26 38.9918 263.405 38.4528C262.556 37.9137 261.891 37.1596 261.412 36.1903C260.938 35.2211 260.702 34.0885 260.702 32.7926C260.702 31.4858 260.938 30.3451 261.412 29.3704C261.891 28.3957 262.556 27.6388 263.405 27.0998C264.26 26.5607 265.254 26.2912 266.386 26.2912C267.519 26.2912 268.51 26.5607 269.359 27.0998C270.214 27.6388 270.878 28.3957 271.352 29.3704C271.831 30.3451 272.071 31.4858 272.071 32.7926C272.071 34.0885 271.831 35.2211 271.352 36.1903C270.878 37.1596 270.214 37.9137 269.359 38.4528C268.51 38.9918 267.519 39.2614 266.386 39.2614ZM266.386 37.5298C267.247 37.5298 267.954 37.3093 268.51 36.8683C269.065 36.4272 269.476 35.8473 269.743 35.1286C270.01 34.4098 270.143 33.6312 270.143 32.7926C270.143 31.9541 270.01 31.1727 269.743 30.4485C269.476 29.7243 269.065 29.139 268.51 28.6925C267.954 28.246 267.247 28.0227 266.386 28.0227C265.526 28.0227 264.818 28.246 264.263 28.6925C263.707 29.139 263.296 29.7243 263.029 30.4485C262.762 31.1727 262.629 31.9541 262.629 32.7926C262.629 33.6312 262.762 34.4098 263.029 35.1286C263.296 35.8473 263.707 36.4272 264.263 36.8683C264.818 37.3093 265.526 37.5298 266.386 37.5298ZM275.013 39V26.4545H276.875V28.3494H277.006C277.235 27.7287 277.649 27.225 278.248 26.8384C278.847 26.4518 279.522 26.2585 280.273 26.2585C280.415 26.2585 280.592 26.2612 280.804 26.2667C281.016 26.2721 281.177 26.2803 281.286 26.2912V28.2514C281.221 28.2351 281.071 28.2106 280.837 28.1779C280.608 28.1398 280.366 28.1207 280.11 28.1207C279.5 28.1207 278.955 28.2487 278.476 28.5046C278.003 28.7551 277.627 29.1036 277.349 29.5501C277.077 29.9911 276.941 30.4948 276.941 31.0611V39H275.013ZM288.449 39.2614C287.24 39.2614 286.197 38.9946 285.321 38.4609C284.45 37.9219 283.777 37.1705 283.303 36.2067C282.835 35.2375 282.601 34.1103 282.601 32.8253C282.601 31.5402 282.835 30.4077 283.303 29.4276C283.777 28.442 284.436 27.6742 285.28 27.1243C286.129 26.5689 287.12 26.2912 288.253 26.2912C288.906 26.2912 289.552 26.4001 290.189 26.6179C290.826 26.8357 291.406 27.1896 291.928 27.6797C292.451 28.1643 292.868 28.8068 293.178 29.6072C293.488 30.4077 293.644 31.3932 293.644 32.5639V33.3807H283.973V31.7145H291.683C291.683 31.0066 291.542 30.375 291.259 29.8196C290.981 29.2642 290.583 28.8259 290.066 28.5046C289.554 28.1834 288.95 28.0227 288.253 28.0227C287.485 28.0227 286.821 28.2133 286.26 28.5945C285.705 28.9702 285.277 29.4602 284.978 30.0646C284.678 30.669 284.528 31.317 284.528 32.0085V33.1193C284.528 34.0668 284.692 34.8699 285.019 35.5288C285.351 36.1822 285.811 36.6804 286.399 37.0234C286.987 37.361 287.67 37.5298 288.449 37.5298C288.955 37.5298 289.413 37.459 289.821 37.3175C290.235 37.1705 290.592 36.9527 290.891 36.6641C291.191 36.37 291.422 36.0052 291.585 35.5696L293.448 36.0923C293.252 36.724 292.922 37.2794 292.459 37.7585C291.996 38.2322 291.425 38.6025 290.744 38.8693C290.063 39.1307 289.298 39.2614 288.449 39.2614Z" fill="black"/>
<path d="M46.0866 39V22.2727H51.7386C53.0509 22.2727 54.1235 22.5096 54.9566 22.9833C55.7952 23.4516 56.4159 24.0859 56.8188 24.8864C57.2218 25.6868 57.4233 26.5798 57.4233 27.5653C57.4233 28.5509 57.2218 29.4466 56.8188 30.2525C56.4214 31.0584 55.8061 31.7009 54.973 32.18C54.1399 32.6538 53.0726 32.8906 51.7713 32.8906H47.7201V31.0938H51.7059C52.6044 31.0938 53.3258 30.9386 53.8703 30.6282C54.4148 30.3178 54.8096 29.8986 55.0546 29.3704C55.3051 28.8368 55.4304 28.2351 55.4304 27.5653C55.4304 26.8956 55.3051 26.2966 55.0546 25.7685C54.8096 25.2403 54.4121 24.8265 53.8622 24.527C53.3122 24.2221 52.5826 24.0696 51.6733 24.0696H48.1122V39H46.0866ZM60.4248 39V26.4545H62.2871V28.3494H62.4177C62.6464 27.7287 63.0603 27.225 63.6592 26.8384C64.2582 26.4518 64.9334 26.2585 65.6848 26.2585C65.8264 26.2585 66.0033 26.2612 66.2157 26.2667C66.428 26.2721 66.5887 26.2803 66.6976 26.2912V28.2514C66.6322 28.2351 66.4825 28.2106 66.2484 28.1779C66.0197 28.1398 65.7774 28.1207 65.5214 28.1207C64.9116 28.1207 64.3671 28.2487 63.8879 28.5046C63.4142 28.7551 63.0385 29.1036 62.7608 29.5501C62.4885 29.9911 62.3524 30.4948 62.3524 31.0611V39H60.4248ZM73.8606 39.2614C72.6518 39.2614 71.609 38.9946 70.7324 38.4609C69.8612 37.9219 69.1887 37.1705 68.715 36.2067C68.2467 35.2375 68.0126 34.1103 68.0126 32.8253C68.0126 31.5402 68.2467 30.4077 68.715 29.4276C69.1887 28.442 69.8476 27.6742 70.6915 27.1243C71.541 26.5689 72.532 26.2912 73.6646 26.2912C74.318 26.2912 74.9632 26.4001 75.6003 26.6179C76.2373 26.8357 76.8173 27.1896 77.34 27.6797C77.8627 28.1643 78.2793 28.8068 78.5896 29.6072C78.9 30.4077 79.0552 31.3932 79.0552 32.5639V33.3807H69.3847V31.7145H77.0949C77.0949 31.0066 76.9534 30.375 76.6702 29.8196C76.3925 29.2642 75.995 28.8259 75.4778 28.5046C74.9659 28.1834 74.3615 28.0227 73.6646 28.0227C72.8968 28.0227 72.2325 28.2133 71.6717 28.5945C71.1163 28.9702 70.6888 29.4602 70.3893 30.0646C70.0899 30.669 69.9401 31.317 69.9401 32.0085V33.1193C69.9401 34.0668 70.1035 34.8699 70.4302 35.5288C70.7623 36.1822 71.2224 36.6804 71.8105 37.0234C72.3986 37.361 73.0819 37.5298 73.8606 37.5298C74.367 37.5298 74.8244 37.459 75.2327 37.3175C75.6466 37.1705 76.0032 36.9527 76.3027 36.6641C76.6022 36.37 76.8336 36.0052 76.9969 35.5696L78.8592 36.0923C78.6631 36.724 78.3337 37.2794 77.8709 37.7585C77.408 38.2322 76.8363 38.6025 76.1557 38.8693C75.475 39.1307 74.71 39.2614 73.8606 39.2614ZM87.574 26.4545V28.0881H80.8112V26.4545H87.574ZM82.8368 39V24.723C82.8368 24.0043 83.0056 23.4053 83.3432 22.9261C83.6808 22.447 84.1191 22.0876 84.6582 21.848C85.1972 21.6084 85.7662 21.4886 86.3652 21.4886C86.8389 21.4886 87.2255 21.5268 87.525 21.603C87.8245 21.6792 88.0477 21.75 88.1947 21.8153L87.6393 23.4815C87.5413 23.4489 87.4052 23.408 87.231 23.359C87.0622 23.31 86.8389 23.2855 86.5612 23.2855C85.9241 23.2855 85.464 23.4461 85.1809 23.7674C84.9032 24.0887 84.7643 24.5597 84.7643 25.1804V39H82.8368ZM95.0188 39.2614C93.81 39.2614 92.7672 38.9946 91.8906 38.4609C91.0194 37.9219 90.3469 37.1705 89.8732 36.2067C89.4049 35.2375 89.1708 34.1103 89.1708 32.8253C89.1708 31.5402 89.4049 30.4077 89.8732 29.4276C90.3469 28.442 91.0058 27.6742 91.8497 27.1243C92.6992 26.5689 93.6902 26.2912 94.8228 26.2912C95.4762 26.2912 96.1214 26.4001 96.7585 26.6179C97.3956 26.8357 97.9755 27.1896 98.4982 27.6797C99.0209 28.1643 99.4375 28.8068 99.7478 29.6072C100.058 30.4077 100.213 31.3932 100.213 32.5639V33.3807H90.5429V31.7145H98.2532C98.2532 31.0066 98.1116 30.375 97.8284 29.8196C97.5507 29.2642 97.1532 28.8259 96.636 28.5046C96.1241 28.1834 95.5197 28.0227 94.8228 28.0227C94.055 28.0227 93.3907 28.2133 92.8299 28.5945C92.2745 28.9702 91.847 29.4602 91.5475 30.0646C91.2481 30.669 91.0983 31.317 91.0983 32.0085V33.1193C91.0983 34.0668 91.2617 34.8699 91.5884 35.5288C91.9205 36.1822 92.3806 36.6804 92.9687 37.0234C93.5568 37.361 94.2401 37.5298 95.0188 37.5298C95.5252 37.5298 95.9826 37.459 96.3909 37.3175C96.8048 37.1705 97.1614 36.9527 97.4609 36.6641C97.7604 36.37 97.9918 36.0052 98.1551 35.5696L100.017 36.0923C99.8213 36.724 99.4919 37.2794 99.0291 37.7585C98.5662 38.2322 97.9945 38.6025 97.3139 38.8693C96.6332 39.1307 95.8682 39.2614 95.0188 39.2614ZM103.146 39V26.4545H105.008V28.3494H105.138C105.367 27.7287 105.781 27.225 106.38 26.8384C106.979 26.4518 107.654 26.2585 108.405 26.2585C108.547 26.2585 108.724 26.2612 108.936 26.2667C109.149 26.2721 109.309 26.2803 109.418 26.2912V28.2514C109.353 28.2351 109.203 28.2106 108.969 28.1779C108.74 28.1398 108.498 28.1207 108.242 28.1207C107.632 28.1207 107.088 28.2487 106.609 28.5046C106.135 28.7551 105.759 29.1036 105.481 29.5501C105.209 29.9911 105.073 30.4948 105.073 31.0611V39H103.146Z" fill="black"/>
<defs>
<filter id="filter0_i_10_51" x="154" y="0" width="154" height="60" filterUnits="userSpaceOnUse" color-interpolation-filters="sRGB">
<feFlood flood-opacity="0" result="BackgroundImageFix"/>
<feBlend mode="normal" in="SourceGraphic" in2="BackgroundImageFix" result="shape"/>
<feColorMatrix in="SourceAlpha" type="matrix" values="0 0 0 0 0 0 0 0 0 0 0 0 0 0 0 0 0 0 127 0" result="hardAlpha"/>
<feMorphology radius="5" operator="erode" in="SourceAlpha" result="effect1_innerShadow_10_51"/>
<feOffset/>
<feGaussianBlur stdDeviation="3"/>
<feComposite in2="hardAlpha" operator="arithmetic" k2="-1" k3="1"/>
<feColorMatrix type="matrix" values="0 0 0 0 0 0 0 0 0 0 0 0 0 0 0 0 0 0 0.5 0"/>
<feBlend mode="normal" in2="shape" result="effect1_innerShadow_10_51"/>
</filter>
</defs>
</svg>
