<?xml version="1.0" encoding="UTF-8" standalone="no"?>
<svg
   version="1.1"
   viewBox="0 0 170 170"
   width="170"
   height="170"
   id="svg6"
   xmlns="http://www.w3.org/2000/svg"
   xmlns:svg="http://www.w3.org/2000/svg">
  <!-- svg-source:excalidraw -->
  <defs
     id="defs1">
    <style
       class="style-fonts"
       id="style1" />
  </defs>
  <g
     id="g7"
     transform="translate(-6.7925288,-7.0371414)">
    <g
       stroke-linecap="round"
       transform="translate(10,10)"
       id="g2">
      <path
         d="m 32,0 c 22.04,-1.38 42.72,-1.08 99.33,0 22.74,-0.58 32.29,12.12 32,32 -2.53,24.14 3.08,53.13 0,99.33 -1.93,21.07 -9.32,28.89 -32,32 -39.42,3.95 -74.74,3.82 -99.33,0 C 7.6,166.77 0.27,149.29 0,131.33 -0.04,103.96 1.78,80.42 0,32 3.31,8.25 13.16,-0.88 32,0"
         stroke="none"
         stroke-width="0"
         fill="#ffc0cb"
         id="path1" />
      <path
         d="m 32,0 c 34.15,-0.3 70.22,-0.11 99.33,0 M 32,0 c 22.58,-0.16 45.42,0.9 99.33,0 m 0,0 c 21.09,0.6 32,10.41 32,32 m -32,-32 c 22.84,0.14 29.98,9.36 32,32 m 0,0 c -2.28,37.66 0.19,73.13 0,99.33 m 0,-99.33 c 0.46,32.96 0.45,65.3 0,99.33 m 0,0 c -0.35,21.57 -11.03,33.33 -32,32 m 32,-32 c 2.05,19.36 -12.55,31.03 -32,32 m 0,0 c -23.35,0.19 -46.91,-2.49 -99.33,0 m 99.33,0 c -32.58,0.54 -66.06,-0.69 -99.33,0 m 0,0 c -20.43,1.39 -32.7,-9.5 -32,-32 m 32,32 c -19.97,-2.21 -31.07,-12 -32,-32 m 0,0 C 2.23,110.24 1.39,90.27 0,32 m 0,99.33 C 0.36,92.61 -0.03,53.81 0,32 m 0,0 C -0.61,10.46 9.95,-1.79 32,0 M 0,32 C -1.17,9.44 9.47,-1.08 32,0"
         stroke="#e64980"
         stroke-width="4"
         fill="none"
         id="path2" />
    </g>
    <g
       transform="translate(24.316539,72.870733)"
       stroke="none"
       id="g3">
      <path
         fill="#e64980"
         d="m -2.48,-0.47 q 0,0 0.51,-1.98 0.52,-1.97 0.75,-3.47 0.23,-1.5 0.54,-3.68 0.3,-2.18 0.57,-3.48 0.26,-1.31 0.56,-2.93 0.31,-1.62 0.63,-3.17 0.32,-1.56 0.7,-2.93 0.37,-1.36 0.56,-2.56 0.2,-1.19 0.45,-2.53 0.25,-1.33 0.39,-2.67 0.14,-1.34 0.7,-3.07 0.57,-1.73 0.86,-3.03 0.29,-1.3 0.56,-2.35 0.27,-1.05 0.53,-2.24 0.26,-1.19 0.63,-2.42 0.37,-1.23 0.44,-1.65 0.07,-0.41 0.24,-0.8 0.17,-0.39 0.42,-0.73 0.26,-0.34 0.59,-0.6 0.33,-0.27 0.71,-0.45 0.38,-0.18 0.8,-0.26 0.42,-0.09 0.84,-0.07 0.42,0.02 0.83,0.14 0.41,0.12 0.77,0.33 0.37,0.22 0.67,0.51 0.31,0.3 0.53,0.66 0.23,0.36 0.36,0.76 0.13,0.4 0.16,0.82 0.04,0.43 -0.48,-0.78 -0.52,-1.2 0.17,0.05 0.69,1.25 1.05,2.45 0.36,1.2 0.81,2.28 0.45,1.07 0.91,2.28 0.46,1.21 1.23,2.39 0.77,1.19 1.49,2.33 0.72,1.13 1.29,2.11 0.58,0.97 1.1,1.96 0.52,1 1.24,2.35 0.72,1.34 1.39,2.54 0.67,1.2 1.23,2.11 0.56,0.92 -1.43,0.83 -2,-0.1 -1.49,-1.88 0.51,-1.78 0.9,-3.09 0.4,-1.32 0.96,-3.24 0.56,-1.93 1.66,-3.52 1.1,-1.59 1.75,-2.71 0.64,-1.12 1.47,-2.37 0.83,-1.25 1.26,-2.41 0.42,-1.15 1.02,-2.15 0.59,-0.99 1.5,-2.06 0.91,-1.07 2.17,-1.99 1.26,-0.93 2.1,-1.75 0.84,-0.83 1.91,-1.79 1.08,-0.97 2.07,-1.36 0.99,-0.4 2.42,-0.06 1.43,0.34 2.5,1.17 1.06,0.83 1.51,2.24 0.44,1.41 0.76,2.8 0.32,1.39 0.61,2.85 0.29,1.46 0.59,2.78 0.3,1.31 0.5,2.99 0.21,1.68 0.29,3.48 0.09,1.8 0.12,3.45 0.03,1.66 0.04,3.13 0.01,1.47 -0.07,3.68 -0.08,2.2 0.16,3.7 0.23,1.51 0.47,2.74 0.23,1.24 0.62,2.89 0.4,1.64 0.59,3.06 0.2,1.42 0.67,3.25 0.47,1.82 0.67,2.95 0.2,1.13 0.41,4.06 0.2,2.92 0.13,3.42 -0.07,0.49 -0.3,0.94 -0.22,0.45 -0.58,0.8 Q 52.85,4.93 52.4,5.15 51.95,5.37 51.46,5.43 50.96,5.5 50.47,5.4 49.98,5.3 49.54,5.05 49.11,4.8 48.77,4.43 48.44,4.05 48.25,3.59 48.05,3.13 48.02,2.63 47.98,2.13 48.1,1.64 q 0.13,-0.48 0.4,-0.9 0.27,-0.42 0.67,-0.73 0.39,-0.31 0.86,-0.48 0.47,-0.16 0.97,-0.17 0.51,-0.01 0.98,0.14 0.48,0.15 0.89,0.44 0.4,0.29 0.69,0.7 0.29,0.41 0.43,0.89 0.15,0.48 0.13,0.98 -0.02,0.5 -0.19,0.97 -0.18,0.47 -0.5,0.85 Q 53.12,4.72 52.69,4.99 52.27,5.26 51.78,5.37 51.29,5.49 50.79,5.45 50.29,5.4 49.84,5.2 49.38,5 49.01,4.66 48.64,4.32 48.39,3.89 48.15,3.45 48.06,2.95 47.97,2.46 47.97,2.46 q 0,0 -0.04,-1.9 -0.05,-1.89 -0.13,-3.17 -0.07,-1.27 -0.29,-2.97 -0.21,-1.71 -0.35,-3.7 -0.15,-1.99 -0.36,-3.77 -0.21,-1.78 -0.36,-3.01 -0.15,-1.23 -0.45,-3 -0.3,-1.78 -0.57,-4.02 -0.26,-2.24 -0.31,-3.65 -0.05,-1.4 -0.17,-2.89 -0.12,-1.5 -0.39,-3.12 -0.26,-1.62 -0.53,-2.93 -0.27,-1.32 -0.71,-2.69 -0.44,-1.38 -0.81,-2.64 -0.38,-1.26 -0.96,-3.12 -0.59,-1.86 0.76,-1.39 1.34,0.47 0.57,1.2 -0.77,0.74 -2.1,1.69 -1.32,0.95 -2.12,1.78 -0.8,0.83 -1.4,1.74 -0.59,0.91 -1.46,2.81 -0.86,1.9 -1.41,2.86 -0.56,0.95 -1.63,2.33 -1.08,1.38 -1.63,2.61 -0.55,1.24 -0.9,2.73 -0.36,1.49 -0.76,2.76 -0.41,1.26 -1.24,2.95 -0.83,1.69 -1.82,2.62 -0.99,0.94 -3.16,1.01 -2.17,0.07 -3.06,-0.83 -0.9,-0.89 -1.64,-2.38 -0.73,-1.49 -1.3,-2.41 -0.56,-0.92 -1.18,-2.09 -0.61,-1.16 -1.27,-2.38 -0.67,-1.22 -1.46,-2.57 -0.79,-1.36 -1.59,-2.63 -0.8,-1.27 -1.48,-2.85 -0.69,-1.59 -1.33,-3.08 -0.63,-1.49 -0.65,-2.71 -0.01,-1.22 -0.73,-2.54 -0.72,-1.32 -0.65,-1.74 0.07,-0.41 0.24,-0.8 0.17,-0.39 0.42,-0.73 0.26,-0.34 0.59,-0.6 0.33,-0.27 0.71,-0.45 0.38,-0.18 0.8,-0.26 0.41,-0.09 0.84,-0.07 0.42,0.02 0.83,0.14 0.41,0.12 0.77,0.33 0.37,0.22 0.67,0.51 0.31,0.3 0.53,0.66 0.23,0.35 0.36,0.76 0.13,0.4 0.16,0.82 0.04,0.43 -0.28,1.66 -0.32,1.24 -0.78,2.77 -0.45,1.54 -0.98,3.45 -0.54,1.92 -1.13,3.47 -0.59,1.55 -0.76,2.74 -0.18,1.19 -0.41,2.33 -0.24,1.14 -0.51,2.33 -0.27,1.19 -0.53,2.35 -0.25,1.16 -0.69,2.49 -0.43,1.33 -0.74,2.53 -0.32,1.19 -0.89,2.62 -0.58,1.42 -0.91,2.55 -0.34,1.13 -0.87,2.62 -0.52,1.5 -0.69,2.59 -0.16,1.09 -0.41,2.68 -0.25,1.58 -0.5,3.6 Q 2.48,0.47 2.39,0.76 2.29,1.05 2.13,1.31 1.97,1.57 1.76,1.79 1.54,2 1.28,2.16 1.01,2.31 0.72,2.4 0.43,2.49 0.12,2.5 -0.17,2.52 -0.47,2.46 -0.77,2.4 -1.05,2.28 -1.32,2.15 -1.56,1.96 -1.8,1.77 -1.99,1.53 -2.17,1.28 -2.29,1.01 -2.42,0.73 -2.47,0.43 -2.52,0.13 -2.5,-0.17 Z"
         id="path3" />
    </g>
    <g
       transform="translate(97.311484,73.138114)"
       stroke="none"
       id="g4">
      <path
         fill="#e64980"
         d="m -2.38,-0.65 q 0,0 0.84,-2.49 0.83,-2.5 1.28,-4 0.43,-1.5 1.02,-2.99 0.6,-1.5 1.04,-2.6 0.44,-1.11 0.9,-2.58 0.46,-1.48 0.98,-3.18 0.52,-1.7 0.77,-2.75 0.24,-1.05 0.65,-2.58 0.41,-1.53 0.79,-2.69 0.38,-1.16 0.62,-2.51 0.24,-1.35 0.51,-3.33 0.27,-1.99 0.87,-3.78 0.6,-1.78 0.94,-2.96 0.34,-1.17 1.26,-2.44 0.92,-1.28 2.48,-1.53 1.57,-0.25 2.86,0.52 1.29,0.78 2.4,2.9 1.11,2.13 1.69,3.44 0.57,1.32 1.07,2.4 0.5,1.09 0.92,2.11 0.41,1.01 1.12,2.11 0.7,1.09 1.35,2.27 0.65,1.17 1.19,2.1 0.53,0.92 1.04,1.9 0.5,0.99 1.04,2.12 0.54,1.13 -0.77,1.02 -1.31,-0.11 -0.41,-1.41 0.9,-1.3 1.78,-2.5 0.87,-1.19 1.44,-2.21 0.58,-1.01 1.27,-2.14 0.68,-1.13 1.29,-2.09 0.6,-0.97 1.24,-2.13 0.63,-1.16 1.37,-2.07 0.73,-0.91 2.03,-2.31 1.29,-1.4 2.37,-2.53 1.07,-1.14 2.43,-2.18 1.36,-1.05 2.83,-1.19 1.47,-0.14 2.66,0.28 1.19,0.43 2.01,1.27 0.82,0.83 1.69,2.15 0.86,1.32 1.51,3 0.65,1.68 1.48,3.79 0.82,2.11 1.17,3.41 0.34,1.31 0.62,2.65 0.27,1.35 0.76,3.11 0.49,1.76 0.85,2.97 0.35,1.2 0.9,2.85 0.54,1.66 0.99,3.16 0.44,1.5 0.57,2.73 0.13,1.24 0.53,2.39 0.4,1.15 0.82,2.69 0.43,1.54 0.81,2.7 0.37,1.17 0.67,2.66 0.29,1.49 0.8,2.94 0.51,1.45 0.62,3.27 0.12,1.82 0.23,3.67 0.12,1.85 0.13,2.43 0,0.58 -0.18,1.12 -0.17,0.55 -0.52,1.01 -0.34,0.47 -0.82,0.79 -0.47,0.33 -1.02,0.49 -0.56,0.16 -1.13,0.14 -0.58,-0.03 -1.11,-0.24 -0.54,-0.21 -0.98,-0.57 -0.45,-0.37 -0.75,-0.86 -0.3,-0.49 -0.43,-1.06 -0.13,-0.56 -0.07,-1.13 0.05,-0.57 0.29,-1.1 0.24,-0.52 0.63,-0.95 0.39,-0.42 0.9,-0.69 0.5,-0.28 1.07,-0.38 0.57,-0.1 1.14,-0.01 0.57,0.09 1.08,0.35 0.51,0.27 0.91,0.68 0.4,0.42 0.65,0.94 0.24,0.52 0.31,1.09 0.07,0.57 -0.05,1.14 -0.12,0.56 -0.41,1.06 -0.29,0.49 -0.73,0.87 -0.43,0.38 -0.96,0.6 -0.54,0.21 -1.11,0.25 -0.58,0.04 -1.13,-0.11 -0.56,-0.15 -1.04,-0.47 -0.48,-0.32 -0.83,-0.77 -0.36,-0.46 -0.55,-1 -0.18,-0.54 -0.18,-0.54 0,0 -0.06,-3.19 Q 56.81,5.47 56.43,4.43 56.05,3.38 55.83,2.26 55.6,1.13 55.29,-0.31 54.99,-1.77 54.5,-3.57 54.01,-5.37 53.48,-6.92 52.96,-8.47 52.84,-10 q -0.12,-1.54 -0.5,-2.86 -0.38,-1.32 -0.76,-2.72 -0.38,-1.41 -0.79,-3 -0.41,-1.59 -0.87,-3.31 -0.45,-1.72 -0.77,-2.9 -0.31,-1.17 -1.04,-3.17 -0.73,-2 -1.23,-3.03 -0.51,-1.04 -0.98,-2.31 -0.47,-1.28 -0.45,-2.57 0.03,-1.29 -0.82,-0.47 -0.85,0.82 -2.08,2.14 -1.23,1.32 -2.78,3.02 -1.56,1.71 -2.48,3.17 -0.92,1.45 -1.51,2.51 -0.6,1.05 -1.23,2.29 -0.64,1.24 -1.51,2.8 -0.88,1.56 -1.8,2.92 -0.91,1.35 -2.04,2.43 -1.13,1.08 -2.33,1.15 -1.2,0.06 -2.73,-0.56 -1.52,-0.62 -2.08,-1.69 -0.55,-1.08 -0.98,-2.12 -0.43,-1.04 -1.06,-2.4 -0.62,-1.37 -1.13,-2.41 -0.5,-1.03 -1.09,-2.09 -0.59,-1.05 -1.56,-2.84 -0.96,-1.79 -1.95,-3.72 -0.99,-1.93 -1.27,-3.78 -0.28,-1.85 0.99,-2.21 1.28,-0.36 0.85,0.88 -0.42,1.23 -0.95,2.84 -0.53,1.61 -0.75,2.72 -0.21,1.11 -0.46,2.2 -0.24,1.08 -0.51,2.18 -0.28,1.09 -0.72,2.07 -0.45,0.98 -0.97,2.44 -0.53,1.45 -0.84,2.62 -0.32,1.17 -1.09,3.16 -0.78,1.99 -1.42,3.35 -0.65,1.35 -1.15,2.35 -0.51,1 -1.07,2.29 -0.55,1.28 -1,2.71 -0.46,1.42 -1,4 Q 2.38,0.65 2.27,0.92 2.15,1.2 1.98,1.44 1.8,1.68 1.58,1.87 1.35,2.06 1.08,2.2 0.81,2.33 0.52,2.39 0.23,2.46 -0.06,2.45 -0.35,2.44 -0.64,2.36 -0.93,2.28 -1.19,2.14 -1.45,1.99 -1.67,1.79 -1.89,1.59 -2.05,1.34 -2.21,1.09 -2.31,0.81 -2.41,0.53 -2.44,0.23 q -0.03,-0.29 0.02,-0.58 0.04,-0.3 0.04,-0.3 z"
         id="path4" />
    </g>
    <g
       transform="translate(29.396774,146.66782)"
       stroke="none"
       id="g5">
      <path
         fill="#e64980"
         d="m -2.14,0 q 0,0 -0.05,-1.22 -0.06,-1.23 -0.15,-3.44 -0.1,-2.2 -0.11,-3.94 -0.02,-1.75 -0.19,-3.56 -0.18,-1.82 -0.26,-4.16 -0.08,-2.35 -0.12,-4.35 -0.04,-2.01 -0.12,-3.56 -0.09,-1.54 -0.18,-2.66 -0.09,-1.12 -0.24,-2.84 -0.14,-1.72 -0.25,-3.39 -0.1,-1.68 -0.18,-3.14 -0.09,-1.46 0.05,-3.05 0.14,-1.59 0.46,-3.42 0.32,-1.82 0.61,-2.86 0.29,-1.04 0.5,-2.27 0.22,-1.22 0.44,-2.27 0.23,-1.04 0.45,-2.23 0.22,-1.19 0.3,-1.73 0.07,-0.55 0.14,-0.95 0.07,-0.41 0.24,-0.78 0.16,-0.38 0.41,-0.7 0.25,-0.33 0.56,-0.59 0.32,-0.25 0.7,-0.42 0.37,-0.18 0.77,-0.25 0.4,-0.08 0.81,-0.06 0.41,0.02 0.81,0.14 0.39,0.12 0.74,0.33 0.36,0.2 0.65,0.49 0.29,0.29 0.51,0.64 0.21,0.35 0.34,0.74 0.12,0.39 0.15,0.8 0.03,0.41 0.84,1.29 0.8,0.87 1.48,2.12 0.68,1.24 1.26,2.3 0.57,1.05 1.75,2.38 1.19,1.34 1.81,2.24 0.62,0.9 1.4,2.02 0.79,1.13 1.4,2.04 0.62,0.92 1.5,2.07 0.89,1.16 1.59,2.12 0.7,0.96 1.81,1.78 1.12,0.81 2.15,1.42 1.04,0.6 1.76,-0.7 0.72,-1.31 1.77,-2.75 1.05,-1.44 1.76,-2.58 0.72,-1.15 1.32,-2.03 0.6,-0.88 1.7,-2.44 1.11,-1.55 1.95,-2.76 0.85,-1.21 1.64,-2.48 0.78,-1.28 1.37,-2.43 0.58,-1.14 0.94,-2.17 0.36,-1.03 0.96,-2.39 0.6,-1.37 1.03,-2.27 0.43,-0.9 0.7,-1.22 0.26,-0.33 0.6,-0.58 0.34,-0.25 0.73,-0.41 0.39,-0.17 0.81,-0.23 0.42,-0.07 0.84,-0.03 0.42,0.03 0.82,0.17 0.4,0.13 0.75,0.36 0.36,0.23 0.65,0.54 0.29,0.3 0.5,0.67 0.21,0.36 0.32,0.77 0.12,0.41 0.13,0.83 0.02,0.42 -0.07,0.83 -0.09,0.42 -0.27,0.8 -0.18,0.38 -0.3,-1.69 -0.11,-2.07 0.55,-1.11 0.66,0.95 1.1,2.02 0.45,1.08 0.98,2.49 0.54,1.41 0.99,3 0.45,1.59 0.55,2.66 0.09,1.08 0.33,3.43 0.24,2.34 0.41,3.88 0.17,1.53 0.26,3.27 0.09,1.75 0.11,3.29 0.02,1.55 0.04,2.71 0.03,1.15 0.06,2.53 0.03,1.38 0.04,2.65 0.01,1.27 0,2.82 0,1.54 0,2.84 0.01,1.29 0.37,3.13 0.36,1.83 0.61,3.54 0.26,1.72 0.44,2.76 0.19,1.05 0.25,2.48 0.06,1.43 0.08,2.57 0.02,1.13 0.02,2.62 0.01,1.49 0.01,2.56 0,1.06 0,2.25 -0.01,1.19 -0.01,2.76 0.01,1.57 -0.09,2.14 -0.09,0.58 -0.36,1.09 -0.28,0.51 -0.7,0.91 -0.42,0.4 -0.95,0.64 -0.52,0.25 -1.1,0.31 Q 48.46,9.19 47.9,9.07 47.33,8.94 46.83,8.64 46.34,8.34 45.96,7.9 45.58,7.46 45.37,6.92 45.15,6.38 45.12,5.8 45.09,5.22 45.25,4.66 45.4,4.1 45.73,3.62 q 0.32,-0.48 0.79,-0.83 0.46,-0.35 1.01,-0.53 0.55,-0.19 1.13,-0.19 0.58,0 1.13,0.19 0.55,0.18 1.01,0.53 0.46,0.35 0.79,0.83 0.32,0.48 0.48,1.04 0.15,0.56 0.12,1.14 Q 52.16,6.38 51.95,6.92 51.73,7.46 51.36,7.9 50.98,8.34 50.48,8.64 49.99,8.94 49.42,9.07 48.85,9.19 48.27,9.13 47.7,9.07 47.17,8.82 46.64,8.58 46.22,8.18 45.8,7.78 45.53,7.27 45.26,6.75 45.16,6.18 45.07,5.61 45.07,5.61 q 0,0 0,-1.57 0,-1.57 0,-2.76 0,-1.19 0,-2.25 0,-1.07 0,-2.19 0,-1.12 0.01,-2.2 0.02,-1.09 0.02,-2.17 0.01,-1.08 -0.15,-2.45 -0.17,-1.37 -0.4,-3.04 -0.24,-1.67 -0.48,-2.76 -0.23,-1.09 -0.34,-2.32 -0.1,-1.23 -0.1,-2.53 0.01,-1.3 0.01,-2.84 -0.01,-1.55 0,-2.82 0.01,-1.27 0.04,-2.64 0.03,-1.38 0.05,-2.52 0.02,-1.15 0.01,-2.63 0,-1.48 -0.03,-2.82 -0.04,-1.33 -0.21,-3 -0.17,-1.67 -0.38,-2.94 -0.21,-1.28 -0.44,-2.43 -0.22,-1.14 -0.38,-2.28 -0.15,-1.15 -0.6,-2.34 -0.46,-1.19 -1.01,-2.69 -0.55,-1.51 -0.99,-3.87 -0.43,-2.37 -0.16,-2.69 0.26,-0.33 0.6,-0.58 0.34,-0.25 0.73,-0.41 0.39,-0.17 0.81,-0.23 0.41,-0.07 0.84,-0.03 0.42,0.03 0.82,0.17 0.4,0.13 0.75,0.36 0.36,0.23 0.65,0.54 0.29,0.3 0.5,0.67 0.21,0.36 0.32,0.77 0.12,0.41 0.13,0.83 0.02,0.42 -0.07,0.83 -0.09,0.42 -0.27,0.8 -0.18,0.38 -0.48,0.89 -0.31,0.52 -0.94,1.98 -0.63,1.46 -1.12,2.55 -0.49,1.08 -1.15,2.3 -0.66,1.22 -1.51,2.6 -0.86,1.38 -1.83,2.75 -0.97,1.37 -1.94,2.79 -0.97,1.43 -1.85,2.83 -0.87,1.4 -1.88,2.86 -1.02,1.47 -1.71,2.51 -0.7,1.04 -1.67,2.16 -0.97,1.11 -2.15,2.05 -1.18,0.93 -3.31,1.31 -2.13,0.38 -3.2,-0.06 -1.06,-0.44 -2.13,-1.1 -1.06,-0.65 -2.33,-1.58 -1.26,-0.93 -2.15,-1.92 -0.9,-1 -1.77,-2.29 -0.87,-1.29 -1.71,-2.54 -0.83,-1.25 -1.38,-2.19 -0.55,-0.94 -1.3,-1.95 -0.75,-1 -1.52,-2.14 -0.77,-1.14 -1.55,-1.94 -0.77,-0.8 -1.39,-1.95 -0.62,-1.15 -1.2,-2.25 -0.57,-1.1 -1.51,-2.62 -0.92,-1.53 -1.35,-2.9 -0.43,-1.37 -0.36,-1.77 0.07,-0.41 0.24,-0.78 0.16,-0.38 0.41,-0.7 0.25,-0.33 0.56,-0.59 0.32,-0.25 0.7,-0.42 0.37,-0.18 0.77,-0.25 0.4,-0.08 0.81,-0.06 0.41,0.02 0.81,0.14 0.39,0.12 0.74,0.33 0.36,0.2 0.65,0.49 0.29,0.29 0.51,0.64 0.21,0.35 0.34,0.74 0.12,0.39 0.15,0.8 0.03,0.41 -0.12,1.2 -0.15,0.79 -0.48,2.18 -0.34,1.4 -0.61,2.44 -0.27,1.05 -0.68,2.38 -0.41,1.34 -0.81,2.42 -0.39,1.07 -0.73,2.59 -0.35,1.51 -0.58,2.64 -0.24,1.13 -0.32,2.59 -0.08,1.46 -0.18,3.13 -0.11,1.66 -0.23,3.37 -0.13,1.7 -0.19,2.8 -0.07,1.1 -0.08,2.62 -0.02,1.51 0.11,3.43 0.12,1.92 0.41,4.13 0.29,2.21 0.65,4.22 0.35,2.01 0.49,3.86 0.14,1.84 0.04,4.04 Q 2.25,-2.45 2.19,-1.22 2.14,0 2.11,0.25 2.08,0.51 1.99,0.75 1.89,0.99 1.75,1.2 1.6,1.42 1.41,1.59 1.21,1.76 0.98,1.88 0.76,2 0.5,2.06 0.25,2.12 0,2.12 -0.25,2.12 -0.5,2.06 -0.76,2 -0.98,1.88 -1.21,1.76 -1.41,1.59 -1.6,1.42 -1.75,1.2 -1.89,0.99 -1.99,0.75 -2.08,0.51 -2.11,0.25 Z"
         id="path5" />
    </g>
    <g
       transform="translate(95.7072,145.06354)"
       stroke="none"
       id="g6">
      <path
         fill="#e64980"
         d="m -2.49,0.09 q 0,0 0.04,-1.99 0.04,-2.01 0.19,-3.82 0.14,-1.82 0.32,-3.19 0.17,-1.36 0.47,-3.31 0.3,-1.96 0.35,-3.92 0.04,-1.96 0,-3.66 -0.05,-1.7 -0.11,-3.24 -0.06,-1.55 -0.08,-3.51 -0.03,-1.97 -0.04,-3.96 -0.02,-2 0.12,-3.94 0.15,-1.94 0.27,-3.74 0.11,-1.8 0.34,-3.22 0.22,-1.43 0.37,-2.85 0.15,-1.42 0.39,-2.95 0.25,-1.53 0.53,-3.4 0.28,-1.86 0.77,-3.38 0.49,-1.52 0.67,-1.74 0.18,-0.22 0.43,-0.56 0.26,-0.34 0.58,-0.61 0.33,-0.26 0.71,-0.44 0.38,-0.19 0.79,-0.27 0.42,-0.09 0.84,-0.07 0.42,0.02 0.82,0.13 0.41,0.12 0.77,0.33 0.37,0.21 0.67,0.5 0.31,0.29 0.53,0.65 0.23,0.36 0.36,0.75 0.14,0.4 0.17,0.82 0.04,0.42 -0.03,0.84 -0.07,0.42 -0.23,0.81 -0.17,0.38 -0.25,-1.54 -0.09,-1.93 0.67,-0.68 0.75,1.25 1.39,2.23 0.65,0.98 1.64,2.55 1,1.57 1.54,2.57 0.54,1.01 1.23,2.25 0.7,1.25 1.18,2.23 0.49,0.97 1.41,2.21 0.92,1.24 1.81,2.47 0.89,1.23 1.76,2.4 0.87,1.16 1.61,2.24 0.75,1.07 1.58,1.88 0.84,0.8 1.76,1.53 0.92,0.74 1.89,1.4 0.97,0.67 1.71,-0.37 0.74,-1.04 1.58,-2.53 0.83,-1.49 1.69,-2.73 0.86,-1.25 1.49,-2.21 0.63,-0.96 1.15,-2 0.52,-1.04 1.09,-2.28 0.57,-1.24 1.08,-2.61 0.52,-1.37 1.07,-2.66 0.55,-1.29 1.18,-2.37 0.63,-1.09 1.08,-2.33 0.45,-1.25 2.38,-2.75 1.93,-1.51 3.19,-1.29 1.27,0.23 2.07,0.96 0.8,0.73 1.38,1.65 0.59,0.91 1.04,2.38 0.46,1.46 0.88,2.81 0.42,1.36 0.64,2.56 0.22,1.2 0.45,2.28 0.23,1.08 0.51,2.59 0.29,1.5 0.43,2.89 0.15,1.38 0.46,2.94 0.31,1.55 0.8,3.46 0.49,1.92 1.12,3.79 0.62,1.87 1.03,2.88 0.42,1.01 1.14,1.92 0.72,0.9 1.28,2.04 0.56,1.13 0.92,2.43 0.37,1.29 0.81,2.82 0.44,1.54 0.55,2.63 0.11,1.09 0.28,2.34 0.16,1.26 0.18,2.48 0.03,1.22 0.25,2.37 0.21,1.16 0.4,2.47 0.19,1.32 0.49,3.67 0.29,2.36 0.23,2.95 -0.05,0.6 -0.29,1.14 -0.24,0.55 -0.65,0.98 -0.4,0.44 -0.92,0.73 Q 61.39,7.21 60.8,7.31 60.22,7.42 59.63,7.33 59.04,7.25 58.51,6.98 57.97,6.71 57.56,6.28 57.14,5.85 56.88,5.32 56.62,4.78 56.55,4.19 56.48,3.6 56.59,3.01 q 0.12,-0.58 0.42,-1.09 0.3,-0.52 0.75,-0.91 0.45,-0.4 1,-0.63 0.55,-0.23 1.14,-0.27 0.59,-0.04 1.17,0.11 0.58,0.15 1.08,0.48 0.49,0.32 0.86,0.79 0.37,0.47 0.57,1.03 0.2,0.56 0.21,1.16 0.01,0.6 -0.17,1.16 Q 63.44,5.41 63.08,5.89 62.73,6.37 62.24,6.71 61.76,7.06 61.18,7.22 60.61,7.39 60.02,7.37 59.42,7.35 58.86,7.14 58.31,6.92 57.85,6.55 57.39,6.17 57.07,5.66 56.76,5.16 56.62,4.58 56.48,4 56.48,4 q 0,0 -0.26,-2.21 -0.27,-2.2 -0.36,-3.46 -0.1,-1.25 -0.38,-2.63 -0.28,-1.38 -0.27,-2.66 0.01,-1.27 -0.11,-2.48 -0.11,-1.2 -0.23,-2.49 -0.11,-1.28 -0.52,-2.54 -0.42,-1.26 -0.93,-2.39 -0.51,-1.13 -1.25,-2.36 -0.73,-1.24 -1.14,-2.34 -0.41,-1.11 -1.17,-3.11 -0.76,-2 -1.25,-3.32 -0.5,-1.32 -0.92,-3.03 -0.42,-1.7 -0.78,-3.46 -0.36,-1.76 -0.55,-3.16 -0.19,-1.4 -0.55,-2.89 -0.36,-1.49 -0.57,-2.9 -0.21,-1.4 -0.63,-2.5 -0.42,-1.1 0.33,-1.89 0.76,-0.79 1.91,-1 1.15,-0.21 0.56,1.05 -0.59,1.25 -1.28,2.43 -0.69,1.17 -1.2,2.36 -0.52,1.19 -0.96,2.39 -0.44,1.19 -1.11,2.6 -0.66,1.41 -1.3,2.6 -0.64,1.2 -1.27,2.15 -0.62,0.95 -1.46,2.25 -0.85,1.3 -1.51,2.48 -0.67,1.19 -1.42,2.27 -0.75,1.09 -2.25,2.23 -1.5,1.14 -3.08,1.67 -1.57,0.53 -3.01,0.45 -1.44,-0.08 -2.41,-0.69 -0.98,-0.62 -1.99,-1.22 -1.02,-0.59 -1.84,-1.29 -0.82,-0.7 -1.7,-1.53 -0.88,-0.84 -1.86,-2.03 -0.97,-1.19 -1.83,-2.39 -0.85,-1.21 -1.6,-2.29 -0.75,-1.08 -1.51,-2 -0.75,-0.93 -1.43,-1.9 -0.68,-0.98 -1.39,-2.33 -0.7,-1.34 -1.38,-2.53 -0.68,-1.19 -1.24,-2.44 -0.56,-1.25 -1.3,-2.28 -0.74,-1.03 -1.71,-2.73 -0.96,-1.71 -1.52,-4.06 -0.56,-2.35 -0.31,-2.69 0.26,-0.34 0.58,-0.61 0.33,-0.26 0.71,-0.44 0.38,-0.19 0.79,-0.27 0.42,-0.09 0.84,-0.07 0.42,0.02 0.82,0.13 0.41,0.12 0.77,0.33 0.37,0.21 0.67,0.5 0.31,0.29 0.53,0.65 0.23,0.36 0.36,0.75 0.14,0.4 0.17,0.82 0.04,0.42 -0.03,0.84 -0.07,0.42 -0.23,0.8 -0.17,0.39 -0.6,1.16 -0.43,0.77 -0.71,2.02 -0.27,1.25 -0.58,2.85 -0.3,1.6 -0.38,2.67 -0.09,1.07 -0.4,2.33 -0.32,1.26 -0.48,2.44 -0.15,1.17 -0.31,2.61 -0.15,1.44 -0.32,2.85 -0.16,1.42 -0.18,3.42 -0.01,1.99 -0.04,3.96 -0.03,1.97 -0.09,3.53 -0.07,1.56 -0.17,3.33 -0.09,1.77 -0.16,3.04 -0.06,1.28 -0.22,2.46 -0.17,1.18 -0.64,2.92 Q 2.77,-9.53 2.53,-8.38 2.29,-7.22 2.2,-5.65 2.1,-4.08 2.3,-2.08 2.49,-0.09 2.47,0.2 2.44,0.5 2.35,0.79 2.25,1.07 2.09,1.33 1.93,1.58 1.71,1.79 1.49,2 1.23,2.15 0.97,2.3 0.68,2.38 0.39,2.46 0.09,2.47 -0.2,2.49 -0.5,2.43 -0.79,2.36 -1.06,2.24 -1.34,2.11 -1.57,1.91 -1.8,1.72 -1.98,1.48 -2.16,1.24 -2.28,0.96 -2.4,0.69 -2.45,0.39 Z"
         id="path6" />
    </g>
  </g>
</svg>
