<svg width="390" height="177" viewBox="0 0 390 177" fill="none" xmlns="http://www.w3.org/2000/svg">
<rect width="390" height="177" fill="white"/>
<rect x="132" y="98" width="126" height="72" fill="#D9D9D9" stroke="#767676" stroke-width="4"/>
<mask id="path-2-inside-1_7_3" fill="white">
<path d="M0 134C0 113.013 17.0132 96 38 96H130V172H38C17.0132 172 0 154.987 0 134Z"/>
</mask>
<path d="M0 134C0 113.013 17.0132 96 38 96H130V172H38C17.0132 172 0 154.987 0 134Z" fill="#FEE9E7"/>
<path d="M-2 134C-2 111.909 15.9086 94 38 94H130V98H38C18.1177 98 2 114.118 2 134H-2ZM130 174H38C15.9086 174 -2 156.091 -2 134H2C2 153.882 18.1177 170 38 170H130V174ZM38 174C15.9086 174 -2 156.091 -2 134C-2 111.909 15.9086 94 38 94V98C18.1177 98 2 114.118 2 134C2 153.882 18.1177 170 38 170V174ZM130 96V172V96Z" fill="#303030" mask="url(#path-2-inside-1_7_3)"/>
<mask id="path-4-inside-2_7_3" fill="white">
<path d="M260 96H352C372.987 96 390 113.013 390 134C390 154.987 372.987 172 352 172H260V96Z"/>
</mask>
<path d="M260 96H352C372.987 96 390 113.013 390 134C390 154.987 372.987 172 352 172H260V96Z" fill="#EBFFEE"/>
<path d="M260 94H352C374.091 94 392 111.909 392 134H388C388 114.118 371.882 98 352 98H260V94ZM392 134C392 156.091 374.091 174 352 174H260V170H352C371.882 170 388 153.882 388 134H392ZM260 172V96V172ZM352 94C374.091 94 392 111.909 392 134C392 156.091 374.091 174 352 174V170C371.882 170 388 153.882 388 134C388 114.118 371.882 98 352 98V94Z" fill="#303030" mask="url(#path-4-inside-2_7_3)"/>
<path d="M284.642 146V124.182H292.014C293.726 124.182 295.125 124.491 296.212 125.109C297.305 125.719 298.115 126.547 298.641 127.591C299.166 128.635 299.429 129.8 299.429 131.085C299.429 132.371 299.166 133.539 298.641 134.59C298.122 135.641 297.32 136.479 296.233 137.104C295.146 137.722 293.754 138.031 292.057 138.031H286.773V135.688H291.972C293.143 135.688 294.085 135.485 294.795 135.08C295.505 134.675 296.02 134.129 296.339 133.44C296.666 132.744 296.83 131.959 296.83 131.085C296.83 130.212 296.666 129.43 296.339 128.741C296.02 128.053 295.501 127.513 294.784 127.122C294.067 126.724 293.115 126.526 291.929 126.526H287.284V146H284.642ZM303.344 146V129.636H305.773V132.108H305.944C306.242 131.298 306.782 130.641 307.563 130.137C308.344 129.633 309.225 129.381 310.205 129.381C310.39 129.381 310.62 129.384 310.897 129.391C311.174 129.398 311.384 129.409 311.526 129.423V131.98C311.441 131.959 311.245 131.927 310.94 131.884C310.642 131.835 310.326 131.81 309.992 131.81C309.196 131.81 308.486 131.977 307.861 132.31C307.243 132.637 306.753 133.092 306.391 133.674C306.036 134.249 305.858 134.906 305.858 135.645V146H303.344ZM320.869 146.341C319.292 146.341 317.932 145.993 316.789 145.297C315.652 144.594 314.775 143.614 314.157 142.357C313.547 141.092 313.241 139.622 313.241 137.946C313.241 136.27 313.547 134.793 314.157 133.514C314.775 132.229 315.635 131.227 316.735 130.51C317.843 129.786 319.136 129.423 320.613 129.423C321.466 129.423 322.307 129.565 323.138 129.849C323.969 130.134 324.725 130.595 325.407 131.234C326.089 131.866 326.632 132.705 327.037 133.749C327.442 134.793 327.645 136.078 327.645 137.605V138.67H315.031V136.497H325.088C325.088 135.574 324.903 134.75 324.534 134.026C324.172 133.301 323.653 132.729 322.978 132.31C322.311 131.891 321.522 131.682 320.613 131.682C319.612 131.682 318.745 131.93 318.014 132.428C317.289 132.918 316.732 133.557 316.341 134.345C315.951 135.134 315.755 135.979 315.755 136.881V138.33C315.755 139.565 315.968 140.613 316.395 141.472C316.828 142.325 317.428 142.974 318.195 143.422C318.962 143.862 319.853 144.082 320.869 144.082C321.529 144.082 322.126 143.99 322.659 143.805C323.199 143.614 323.664 143.33 324.054 142.953C324.445 142.57 324.747 142.094 324.96 141.526L327.389 142.207C327.133 143.031 326.703 143.756 326.1 144.381C325.496 144.999 324.75 145.482 323.863 145.83C322.975 146.17 321.977 146.341 320.869 146.341ZM338.756 129.636V131.767H329.935V129.636H338.756ZM332.577 146V127.378C332.577 126.44 332.797 125.659 333.238 125.034C333.678 124.409 334.25 123.94 334.953 123.628C335.656 123.315 336.398 123.159 337.179 123.159C337.797 123.159 338.301 123.209 338.692 123.308C339.083 123.408 339.374 123.5 339.566 123.585L338.841 125.759C338.713 125.716 338.536 125.663 338.309 125.599C338.088 125.535 337.797 125.503 337.435 125.503C336.604 125.503 336.004 125.712 335.635 126.131C335.272 126.55 335.091 127.165 335.091 127.974V146H332.577ZM348.467 146.341C346.89 146.341 345.53 145.993 344.386 145.297C343.25 144.594 342.373 143.614 341.755 142.357C341.144 141.092 340.839 139.622 340.839 137.946C340.839 136.27 341.144 134.793 341.755 133.514C342.373 132.229 343.232 131.227 344.333 130.51C345.441 129.786 346.734 129.423 348.211 129.423C349.063 129.423 349.905 129.565 350.736 129.849C351.567 130.134 352.323 130.595 353.005 131.234C353.687 131.866 354.23 132.705 354.635 133.749C355.04 134.793 355.242 136.078 355.242 137.605V138.67H342.629V136.497H352.685C352.685 135.574 352.501 134.75 352.131 134.026C351.769 133.301 351.251 132.729 350.576 132.31C349.908 131.891 349.12 131.682 348.211 131.682C347.21 131.682 346.343 131.93 345.612 132.428C344.887 132.918 344.33 133.557 343.939 134.345C343.548 135.134 343.353 135.979 343.353 136.881V138.33C343.353 139.565 343.566 140.613 343.992 141.472C344.425 142.325 345.026 142.974 345.793 143.422C346.56 143.862 347.451 144.082 348.467 144.082C349.127 144.082 349.724 143.99 350.256 143.805C350.796 143.614 351.261 143.33 351.652 142.953C352.043 142.57 352.344 142.094 352.558 141.526L354.987 142.207C354.731 143.031 354.301 143.756 353.697 144.381C353.094 144.999 352.348 145.482 351.46 145.83C350.572 146.17 349.575 146.341 348.467 146.341ZM359.067 146V129.636H361.496V132.108H361.666C361.964 131.298 362.504 130.641 363.286 130.137C364.067 129.633 364.947 129.381 365.928 129.381C366.112 129.381 366.343 129.384 366.62 129.391C366.897 129.398 367.107 129.409 367.249 129.423V131.98C367.163 131.959 366.968 131.927 366.663 131.884C366.364 131.835 366.048 131.81 365.714 131.81C364.919 131.81 364.209 131.977 363.584 132.31C362.966 132.637 362.476 133.092 362.114 133.674C361.759 134.249 361.581 134.906 361.581 135.645V146H359.067Z" fill="black"/>
<path d="M33.5369 146H30.767L38.7784 124.182H41.5057L49.517 146H46.7472L40.2273 127.634H40.0568L33.5369 146ZM34.5597 137.477H45.7244V139.821H34.5597V137.477ZM63.9045 129.636L57.8533 146H55.2965L49.2454 129.636H51.9727L56.4897 142.676H56.6602L61.1772 129.636H63.9045ZM73.2848 146.341C71.8075 146.341 70.5114 145.989 69.3963 145.286C68.2884 144.583 67.4219 143.599 66.7969 142.335C66.179 141.071 65.87 139.594 65.87 137.903C65.87 136.199 66.179 134.711 66.7969 133.44C67.4219 132.168 68.2884 131.181 69.3963 130.478C70.5114 129.775 71.8075 129.423 73.2848 129.423C74.7621 129.423 76.0547 129.775 77.1626 130.478C78.2777 131.181 79.1442 132.168 79.7621 133.44C80.3871 134.711 80.6996 136.199 80.6996 137.903C80.6996 139.594 80.3871 141.071 79.7621 142.335C79.1442 143.599 78.2777 144.583 77.1626 145.286C76.0547 145.989 74.7621 146.341 73.2848 146.341ZM73.2848 144.082C74.407 144.082 75.3303 143.795 76.0547 143.219C76.7791 142.644 77.3153 141.888 77.6634 140.95C78.0114 140.013 78.1854 138.997 78.1854 137.903C78.1854 136.81 78.0114 135.79 77.6634 134.846C77.3153 133.901 76.7791 133.138 76.0547 132.555C75.3303 131.973 74.407 131.682 73.2848 131.682C72.1626 131.682 71.2393 131.973 70.5149 132.555C69.7905 133.138 69.2543 133.901 68.9062 134.846C68.5582 135.79 68.3842 136.81 68.3842 137.903C68.3842 138.997 68.5582 140.013 68.9062 140.95C69.2543 141.888 69.7905 142.644 70.5149 143.219C71.2393 143.795 72.1626 144.082 73.2848 144.082ZM84.5375 146V129.636H87.0517V146H84.5375ZM85.8159 126.909C85.3258 126.909 84.9032 126.742 84.5481 126.408C84.2001 126.075 84.0261 125.673 84.0261 125.205C84.0261 124.736 84.2001 124.335 84.5481 124.001C84.9032 123.667 85.3258 123.5 85.8159 123.5C86.3059 123.5 86.725 123.667 87.073 124.001C87.4281 124.335 87.6056 124.736 87.6056 125.205C87.6056 125.673 87.4281 126.075 87.073 126.408C86.725 126.742 86.3059 126.909 85.8159 126.909ZM97.8356 146.341C96.4719 146.341 95.2681 145.996 94.2241 145.308C93.18 144.612 92.3633 143.631 91.7738 142.367C91.1843 141.096 90.8896 139.594 90.8896 137.861C90.8896 136.142 91.1843 134.651 91.7738 133.386C92.3633 132.122 93.1836 131.146 94.2347 130.457C95.2859 129.768 96.5004 129.423 97.8782 129.423C98.9435 129.423 99.7852 129.601 100.403 129.956C101.028 130.304 101.504 130.702 101.831 131.149C102.164 131.589 102.424 131.952 102.608 132.236H102.821V124.182H105.336V146H102.907V143.486H102.608C102.424 143.784 102.161 144.161 101.82 144.615C101.479 145.062 100.993 145.464 100.36 145.819C99.7283 146.167 98.8867 146.341 97.8356 146.341ZM98.1765 144.082C99.185 144.082 100.037 143.82 100.733 143.294C101.429 142.761 101.958 142.026 102.321 141.089C102.683 140.144 102.864 139.054 102.864 137.818C102.864 136.597 102.686 135.528 102.331 134.612C101.976 133.688 101.451 132.971 100.755 132.46C100.059 131.941 99.1992 131.682 98.1765 131.682C97.1112 131.682 96.2234 131.955 95.5131 132.502C94.81 133.042 94.2809 133.777 93.9258 134.707C93.5778 135.631 93.4038 136.668 93.4038 137.818C93.4038 138.983 93.5813 140.041 93.9364 140.993C94.2987 141.937 94.8313 142.69 95.5344 143.251C96.2447 143.805 97.1254 144.082 98.1765 144.082Z" fill="black"/>
<path d="M162.943 124.182V146H160.386L148.497 128.869H148.284V146H145.642V124.182H148.199L160.131 141.355H160.344V124.182H162.943ZM174.75 146.341C173.173 146.341 171.813 145.993 170.67 145.297C169.533 144.594 168.656 143.614 168.038 142.357C167.427 141.092 167.122 139.622 167.122 137.946C167.122 136.27 167.427 134.793 168.038 133.514C168.656 132.229 169.515 131.227 170.616 130.51C171.724 129.786 173.017 129.423 174.494 129.423C175.346 129.423 176.188 129.565 177.019 129.849C177.85 130.134 178.606 130.595 179.288 131.234C179.97 131.866 180.513 132.705 180.918 133.749C181.323 134.793 181.525 136.078 181.525 137.605V138.67H168.912V136.497H178.969C178.969 135.574 178.784 134.75 178.415 134.026C178.052 133.301 177.534 132.729 176.859 132.31C176.192 131.891 175.403 131.682 174.494 131.682C173.493 131.682 172.626 131.93 171.895 132.428C171.17 132.918 170.613 133.557 170.222 134.345C169.831 135.134 169.636 135.979 169.636 136.881V138.33C169.636 139.565 169.849 140.613 170.275 141.472C170.709 142.325 171.309 142.974 172.076 143.422C172.843 143.862 173.734 144.082 174.75 144.082C175.41 144.082 176.007 143.99 176.54 143.805C177.079 143.614 177.545 143.33 177.935 142.953C178.326 142.57 178.628 142.094 178.841 141.526L181.27 142.207C181.014 143.031 180.584 143.756 179.981 144.381C179.377 144.999 178.631 145.482 177.743 145.83C176.856 146.17 175.858 146.341 174.75 146.341ZM195.662 139.31V129.636H198.177V146H195.662V143.23H195.492C195.108 144.061 194.512 144.768 193.702 145.35C192.893 145.925 191.87 146.213 190.634 146.213C189.611 146.213 188.702 145.989 187.907 145.542C187.111 145.087 186.486 144.406 186.032 143.496C185.577 142.58 185.35 141.426 185.35 140.034V129.636H187.864V139.864C187.864 141.057 188.198 142.009 188.866 142.719C189.54 143.429 190.4 143.784 191.444 143.784C192.069 143.784 192.704 143.624 193.351 143.305C194.004 142.985 194.551 142.495 194.991 141.835C195.439 141.174 195.662 140.332 195.662 139.31ZM209.898 129.636V131.767H201.418V129.636H209.898ZM203.89 125.716H206.404V141.312C206.404 142.023 206.507 142.555 206.713 142.911C206.926 143.259 207.196 143.493 207.522 143.614C207.856 143.727 208.208 143.784 208.577 143.784C208.854 143.784 209.081 143.77 209.259 143.741C209.436 143.706 209.578 143.678 209.685 143.656L210.196 145.915C210.026 145.979 209.788 146.043 209.483 146.107C209.177 146.178 208.79 146.213 208.321 146.213C207.611 146.213 206.915 146.06 206.233 145.755C205.559 145.45 204.998 144.984 204.55 144.359C204.11 143.734 203.89 142.946 203.89 141.994V125.716ZM213.68 146V129.636H216.109V132.108H216.279C216.578 131.298 217.118 130.641 217.899 130.137C218.68 129.633 219.561 129.381 220.541 129.381C220.725 129.381 220.956 129.384 221.233 129.391C221.51 129.398 221.72 129.409 221.862 129.423V131.98C221.777 131.959 221.581 131.927 221.276 131.884C220.978 131.835 220.662 131.81 220.328 131.81C219.532 131.81 218.822 131.977 218.197 132.31C217.579 132.637 217.089 133.092 216.727 133.674C216.372 134.249 216.194 134.906 216.194 135.645V146H213.68ZM229.657 146.384C228.621 146.384 227.68 146.188 226.834 145.798C225.989 145.4 225.318 144.828 224.821 144.082C224.324 143.33 224.075 142.42 224.075 141.355C224.075 140.418 224.26 139.658 224.629 139.075C224.998 138.486 225.492 138.024 226.11 137.69C226.728 137.357 227.41 137.108 228.155 136.945C228.908 136.774 229.665 136.639 230.425 136.54C231.419 136.412 232.225 136.316 232.843 136.252C233.468 136.181 233.922 136.064 234.206 135.901C234.498 135.737 234.643 135.453 234.643 135.048V134.963C234.643 133.912 234.356 133.095 233.78 132.513C233.212 131.93 232.349 131.639 231.192 131.639C229.991 131.639 229.05 131.902 228.368 132.428C227.687 132.953 227.207 133.514 226.93 134.111L224.544 133.259C224.97 132.264 225.538 131.49 226.248 130.936C226.966 130.375 227.747 129.984 228.592 129.764C229.444 129.537 230.282 129.423 231.106 129.423C231.632 129.423 232.236 129.487 232.917 129.615C233.606 129.736 234.27 129.988 234.91 130.371C235.556 130.755 236.092 131.334 236.518 132.108C236.944 132.882 237.157 133.919 237.157 135.219V146H234.643V143.784H234.515C234.345 144.139 234.061 144.519 233.663 144.924C233.265 145.329 232.736 145.673 232.076 145.957C231.415 146.241 230.609 146.384 229.657 146.384ZM230.041 144.125C231.035 144.125 231.873 143.93 232.555 143.539C233.244 143.148 233.763 142.644 234.111 142.026C234.466 141.408 234.643 140.759 234.643 140.077V137.776C234.537 137.903 234.302 138.021 233.94 138.127C233.585 138.227 233.173 138.315 232.704 138.393C232.243 138.464 231.792 138.528 231.351 138.585C230.918 138.635 230.567 138.678 230.297 138.713C229.643 138.798 229.032 138.937 228.464 139.129C227.903 139.313 227.449 139.594 227.101 139.97C226.76 140.339 226.589 140.844 226.589 141.483C226.589 142.357 226.912 143.017 227.559 143.464C228.212 143.905 229.04 144.125 230.041 144.125ZM244.261 124.182V146H241.746V124.182H244.261Z" fill="black"/>
<mask id="path-9-inside-3_7_3" fill="white">
<path d="M130 5H260V81H130V5Z"/>
</mask>
<g filter="url(#filter0_i_7_3)">
<path d="M130 5H260V81H130V5Z" fill="#D9D9D9"/>
</g>
<path d="M130 7H260V3H130V7ZM260 79H130V83H260V79Z" fill="#303030" mask="url(#path-9-inside-3_7_3)"/>
<mask id="path-11-inside-4_7_3" fill="white">
<path d="M0 43C0 22.0132 17.0132 5 38 5H130V81H38C17.0132 81 0 63.9868 0 43Z"/>
</mask>
<path d="M0 43C0 22.0132 17.0132 5 38 5H130V81H38C17.0132 81 0 63.9868 0 43Z" fill="#FEE9E7"/>
<path d="M-2 43C-2 20.9086 15.9086 3 38 3H130V7H38C18.1177 7 2 23.1177 2 43H-2ZM130 83H38C15.9086 83 -2 65.0914 -2 43H2C2 62.8823 18.1177 79 38 79H130V83ZM38 83C15.9086 83 -2 65.0914 -2 43C-2 20.9086 15.9086 3 38 3V7C18.1177 7 2 23.1177 2 43C2 62.8823 18.1177 79 38 79V83ZM130 5V81V5Z" fill="#303030" mask="url(#path-11-inside-4_7_3)"/>
<mask id="path-13-inside-5_7_3" fill="white">
<path d="M260 5H352C372.987 5 390 22.0132 390 43C390 63.9868 372.987 81 352 81H260V5Z"/>
</mask>
<path d="M260 5H352C372.987 5 390 22.0132 390 43C390 63.9868 372.987 81 352 81H260V5Z" fill="#EBFFEE"/>
<path d="M260 3H352C374.091 3 392 20.9086 392 43H388C388 23.1177 371.882 7 352 7H260V3ZM392 43C392 65.0914 374.091 83 352 83H260V79H352C371.882 79 388 62.8823 388 43H392ZM260 81V5V81ZM352 3C374.091 3 392 20.9086 392 43C392 65.0914 374.091 83 352 83V79C371.882 79 388 62.8823 388 43C388 23.1177 371.882 7 352 7V3Z" fill="#303030" mask="url(#path-13-inside-5_7_3)"/>
<path d="M284.642 55V33.1818H292.014C293.726 33.1818 295.125 33.4908 296.212 34.1087C297.305 34.7195 298.115 35.5469 298.641 36.5909C299.166 37.6349 299.429 38.7997 299.429 40.0852C299.429 41.3707 299.166 42.5391 298.641 43.5902C298.122 44.6413 297.32 45.4794 296.233 46.1044C295.146 46.7223 293.754 47.0312 292.057 47.0312H286.773V44.6875H291.972C293.143 44.6875 294.085 44.4851 294.795 44.0803C295.505 43.6754 296.02 43.1286 296.339 42.4396C296.666 41.7436 296.83 40.9588 296.83 40.0852C296.83 39.2116 296.666 38.4304 296.339 37.7415C296.02 37.0526 295.501 36.5128 294.784 36.1222C294.067 35.7244 293.115 35.5256 291.929 35.5256H287.284V55H284.642ZM303.344 55V38.6364H305.773V41.108H305.944C306.242 40.2983 306.782 39.6413 307.563 39.1371C308.344 38.6328 309.225 38.3807 310.205 38.3807C310.39 38.3807 310.62 38.3842 310.897 38.3913C311.174 38.3984 311.384 38.4091 311.526 38.4233V40.9801C311.441 40.9588 311.245 40.9268 310.94 40.8842C310.642 40.8345 310.326 40.8097 309.992 40.8097C309.196 40.8097 308.486 40.9766 307.861 41.3104C307.243 41.6371 306.753 42.0916 306.391 42.674C306.036 43.2493 305.858 43.9062 305.858 44.6449V55H303.344ZM320.869 55.3409C319.292 55.3409 317.932 54.9929 316.789 54.2969C315.652 53.5938 314.775 52.6136 314.157 51.3565C313.547 50.0923 313.241 48.6222 313.241 46.946C313.241 45.2699 313.547 43.7926 314.157 42.5142C314.775 41.2287 315.635 40.2273 316.735 39.5099C317.843 38.7855 319.136 38.4233 320.613 38.4233C321.466 38.4233 322.307 38.5653 323.138 38.8494C323.969 39.1335 324.725 39.5952 325.407 40.2344C326.089 40.8665 326.632 41.7045 327.037 42.7486C327.442 43.7926 327.645 45.0781 327.645 46.6051V47.6705H315.031V45.4972H325.088C325.088 44.5739 324.903 43.75 324.534 43.0256C324.172 42.3011 323.653 41.7294 322.978 41.3104C322.311 40.8913 321.522 40.6818 320.613 40.6818C319.612 40.6818 318.745 40.9304 318.014 41.4276C317.289 41.9176 316.732 42.5568 316.341 43.3452C315.951 44.1335 315.755 44.9787 315.755 45.8807V47.3295C315.755 48.5653 315.968 49.6129 316.395 50.4723C316.828 51.3246 317.428 51.9744 318.195 52.4219C318.962 52.8622 319.853 53.0824 320.869 53.0824C321.529 53.0824 322.126 52.9901 322.659 52.8054C323.199 52.6136 323.664 52.3295 324.054 51.9531C324.445 51.5696 324.747 51.0937 324.96 50.5256L327.389 51.2074C327.133 52.0312 326.703 52.7557 326.1 53.3807C325.496 53.9986 324.75 54.4815 323.863 54.8295C322.975 55.1705 321.977 55.3409 320.869 55.3409ZM338.756 38.6364V40.767H329.935V38.6364H338.756ZM332.577 55V36.3778C332.577 35.4403 332.797 34.6591 333.238 34.0341C333.678 33.4091 334.25 32.9403 334.953 32.6278C335.656 32.3153 336.398 32.1591 337.179 32.1591C337.797 32.1591 338.301 32.2088 338.692 32.3082C339.083 32.4077 339.374 32.5 339.566 32.5852L338.841 34.7585C338.713 34.7159 338.536 34.6626 338.309 34.5987C338.088 34.5348 337.797 34.5028 337.435 34.5028C336.604 34.5028 336.004 34.7124 335.635 35.1314C335.272 35.5504 335.091 36.1648 335.091 36.9744V55H332.577ZM348.467 55.3409C346.89 55.3409 345.53 54.9929 344.386 54.2969C343.25 53.5938 342.373 52.6136 341.755 51.3565C341.144 50.0923 340.839 48.6222 340.839 46.946C340.839 45.2699 341.144 43.7926 341.755 42.5142C342.373 41.2287 343.232 40.2273 344.333 39.5099C345.441 38.7855 346.734 38.4233 348.211 38.4233C349.063 38.4233 349.905 38.5653 350.736 38.8494C351.567 39.1335 352.323 39.5952 353.005 40.2344C353.687 40.8665 354.23 41.7045 354.635 42.7486C355.04 43.7926 355.242 45.0781 355.242 46.6051V47.6705H342.629V45.4972H352.685C352.685 44.5739 352.501 43.75 352.131 43.0256C351.769 42.3011 351.251 41.7294 350.576 41.3104C349.908 40.8913 349.12 40.6818 348.211 40.6818C347.21 40.6818 346.343 40.9304 345.612 41.4276C344.887 41.9176 344.33 42.5568 343.939 43.3452C343.548 44.1335 343.353 44.9787 343.353 45.8807V47.3295C343.353 48.5653 343.566 49.6129 343.992 50.4723C344.425 51.3246 345.026 51.9744 345.793 52.4219C346.56 52.8622 347.451 53.0824 348.467 53.0824C349.127 53.0824 349.724 52.9901 350.256 52.8054C350.796 52.6136 351.261 52.3295 351.652 51.9531C352.043 51.5696 352.344 51.0937 352.558 50.5256L354.987 51.2074C354.731 52.0312 354.301 52.7557 353.697 53.3807C353.094 53.9986 352.348 54.4815 351.46 54.8295C350.572 55.1705 349.575 55.3409 348.467 55.3409ZM359.067 55V38.6364H361.496V41.108H361.666C361.964 40.2983 362.504 39.6413 363.286 39.1371C364.067 38.6328 364.947 38.3807 365.928 38.3807C366.112 38.3807 366.343 38.3842 366.62 38.3913C366.897 38.3984 367.107 38.4091 367.249 38.4233V40.9801C367.163 40.9588 366.968 40.9268 366.663 40.8842C366.364 40.8345 366.048 40.8097 365.714 40.8097C364.919 40.8097 364.209 40.9766 363.584 41.3104C362.966 41.6371 362.476 42.0916 362.114 42.674C361.759 43.2493 361.581 43.9062 361.581 44.6449V55H359.067Z" fill="black"/>
<path d="M33.5369 55H30.767L38.7784 33.1818H41.5057L49.517 55H46.7472L40.2273 36.6335H40.0568L33.5369 55ZM34.5597 46.4773H45.7244V48.821H34.5597V46.4773ZM63.9045 38.6364L57.8533 55H55.2965L49.2454 38.6364H51.9727L56.4897 51.6761H56.6602L61.1772 38.6364H63.9045ZM73.2848 55.3409C71.8075 55.3409 70.5114 54.9893 69.3963 54.2862C68.2884 53.5831 67.4219 52.5994 66.7969 51.3352C66.179 50.071 65.87 48.5937 65.87 46.9034C65.87 45.1989 66.179 43.7109 66.7969 42.4396C67.4219 41.1683 68.2884 40.1811 69.3963 39.478C70.5114 38.7749 71.8075 38.4233 73.2848 38.4233C74.7621 38.4233 76.0547 38.7749 77.1626 39.478C78.2777 40.1811 79.1442 41.1683 79.7621 42.4396C80.3871 43.7109 80.6996 45.1989 80.6996 46.9034C80.6996 48.5937 80.3871 50.071 79.7621 51.3352C79.1442 52.5994 78.2777 53.5831 77.1626 54.2862C76.0547 54.9893 74.7621 55.3409 73.2848 55.3409ZM73.2848 53.0824C74.407 53.0824 75.3303 52.7947 76.0547 52.2195C76.7791 51.6442 77.3153 50.8878 77.6634 49.9503C78.0114 49.0128 78.1854 47.9972 78.1854 46.9034C78.1854 45.8097 78.0114 44.7905 77.6634 43.8459C77.3153 42.9013 76.7791 42.1378 76.0547 41.5554C75.3303 40.973 74.407 40.6818 73.2848 40.6818C72.1626 40.6818 71.2393 40.973 70.5149 41.5554C69.7905 42.1378 69.2543 42.9013 68.9062 43.8459C68.5582 44.7905 68.3842 45.8097 68.3842 46.9034C68.3842 47.9972 68.5582 49.0128 68.9062 49.9503C69.2543 50.8878 69.7905 51.6442 70.5149 52.2195C71.2393 52.7947 72.1626 53.0824 73.2848 53.0824ZM84.5375 55V38.6364H87.0517V55H84.5375ZM85.8159 35.9091C85.3258 35.9091 84.9032 35.7422 84.5481 35.4084C84.2001 35.0746 84.0261 34.6733 84.0261 34.2045C84.0261 33.7358 84.2001 33.3345 84.5481 33.0007C84.9032 32.6669 85.3258 32.5 85.8159 32.5C86.3059 32.5 86.725 32.6669 87.073 33.0007C87.4281 33.3345 87.6056 33.7358 87.6056 34.2045C87.6056 34.6733 87.4281 35.0746 87.073 35.4084C86.725 35.7422 86.3059 35.9091 85.8159 35.9091ZM97.8356 55.3409C96.4719 55.3409 95.2681 54.9964 94.2241 54.3075C93.18 53.6115 92.3633 52.6314 91.7738 51.3672C91.1843 50.0959 90.8896 48.5938 90.8896 46.8608C90.8896 45.142 91.1843 43.6506 91.7738 42.3864C92.3633 41.1222 93.1836 40.1456 94.2347 39.4567C95.2859 38.7678 96.5004 38.4233 97.8782 38.4233C98.9435 38.4233 99.7852 38.6009 100.403 38.956C101.028 39.304 101.504 39.7017 101.831 40.1491C102.164 40.5895 102.424 40.9517 102.608 41.2358H102.821V33.1818H105.336V55H102.907V52.4858H102.608C102.424 52.7841 102.161 53.1605 101.82 53.6151C101.479 54.0625 100.993 54.4638 100.36 54.8189C99.7283 55.1669 98.8867 55.3409 97.8356 55.3409ZM98.1765 53.0824C99.185 53.0824 100.037 52.8196 100.733 52.294C101.429 51.7614 101.958 51.0263 102.321 50.0888C102.683 49.1442 102.864 48.054 102.864 46.8182C102.864 45.5966 102.686 44.5277 102.331 43.6115C101.976 42.6882 101.451 41.9709 100.755 41.4595C100.059 40.9411 99.1992 40.6818 98.1765 40.6818C97.1112 40.6818 96.2234 40.9553 95.5131 41.5021C94.81 42.0419 94.2809 42.777 93.9258 43.7074C93.5778 44.6307 93.4038 45.6676 93.4038 46.8182C93.4038 47.983 93.5813 49.0412 93.9364 49.9929C94.2987 50.9375 94.8313 51.6903 95.5344 52.2514C96.2447 52.8054 97.1254 53.0824 98.1765 53.0824Z" fill="black"/>
<path d="M162.943 33.1818V55H160.386L148.497 37.8693H148.284V55H145.642V33.1818H148.199L160.131 50.3551H160.344V33.1818H162.943ZM174.75 55.3409C173.173 55.3409 171.813 54.9929 170.67 54.2969C169.533 53.5938 168.656 52.6136 168.038 51.3565C167.427 50.0923 167.122 48.6222 167.122 46.946C167.122 45.2699 167.427 43.7926 168.038 42.5142C168.656 41.2287 169.515 40.2273 170.616 39.5099C171.724 38.7855 173.017 38.4233 174.494 38.4233C175.346 38.4233 176.188 38.5653 177.019 38.8494C177.85 39.1335 178.606 39.5952 179.288 40.2344C179.97 40.8665 180.513 41.7045 180.918 42.7486C181.323 43.7926 181.525 45.0781 181.525 46.6051V47.6705H168.912V45.4972H178.969C178.969 44.5739 178.784 43.75 178.415 43.0256C178.052 42.3011 177.534 41.7294 176.859 41.3104C176.192 40.8913 175.403 40.6818 174.494 40.6818C173.493 40.6818 172.626 40.9304 171.895 41.4276C171.17 41.9176 170.613 42.5568 170.222 43.3452C169.831 44.1335 169.636 44.9787 169.636 45.8807V47.3295C169.636 48.5653 169.849 49.6129 170.275 50.4723C170.709 51.3246 171.309 51.9744 172.076 52.4219C172.843 52.8622 173.734 53.0824 174.75 53.0824C175.41 53.0824 176.007 52.9901 176.54 52.8054C177.079 52.6136 177.545 52.3295 177.935 51.9531C178.326 51.5696 178.628 51.0937 178.841 50.5256L181.27 51.2074C181.014 52.0312 180.584 52.7557 179.981 53.3807C179.377 53.9986 178.631 54.4815 177.743 54.8295C176.856 55.1705 175.858 55.3409 174.75 55.3409ZM195.662 48.3097V38.6364H198.177V55H195.662V52.2301H195.492C195.108 53.0611 194.512 53.7678 193.702 54.3501C192.893 54.9254 191.87 55.2131 190.634 55.2131C189.611 55.2131 188.702 54.9893 187.907 54.5419C187.111 54.0874 186.486 53.4055 186.032 52.4964C185.577 51.5803 185.35 50.4261 185.35 49.0341V38.6364H187.864V48.8636C187.864 50.0568 188.198 51.0085 188.866 51.7188C189.54 52.429 190.4 52.7841 191.444 52.7841C192.069 52.7841 192.704 52.6243 193.351 52.3047C194.004 51.9851 194.551 51.495 194.991 50.8345C195.439 50.174 195.662 49.3324 195.662 48.3097ZM209.898 38.6364V40.767H201.418V38.6364H209.898ZM203.89 34.7159H206.404V50.3125C206.404 51.0227 206.507 51.5554 206.713 51.9105C206.926 52.2585 207.196 52.4929 207.522 52.6136C207.856 52.7273 208.208 52.7841 208.577 52.7841C208.854 52.7841 209.081 52.7699 209.259 52.7415C209.436 52.706 209.578 52.6776 209.685 52.6562L210.196 54.9148C210.026 54.9787 209.788 55.0426 209.483 55.1065C209.177 55.1776 208.79 55.2131 208.321 55.2131C207.611 55.2131 206.915 55.0604 206.233 54.755C205.559 54.4496 204.998 53.9844 204.55 53.3594C204.11 52.7344 203.89 51.946 203.89 50.9943V34.7159ZM213.68 55V38.6364H216.109V41.108H216.279C216.578 40.2983 217.118 39.6413 217.899 39.1371C218.68 38.6328 219.561 38.3807 220.541 38.3807C220.725 38.3807 220.956 38.3842 221.233 38.3913C221.51 38.3984 221.72 38.4091 221.862 38.4233V40.9801C221.777 40.9588 221.581 40.9268 221.276 40.8842C220.978 40.8345 220.662 40.8097 220.328 40.8097C219.532 40.8097 218.822 40.9766 218.197 41.3104C217.579 41.6371 217.089 42.0916 216.727 42.674C216.372 43.2493 216.194 43.9062 216.194 44.6449V55H213.68ZM229.657 55.3835C228.621 55.3835 227.68 55.1882 226.834 54.7976C225.989 54.3999 225.318 53.8281 224.821 53.0824C224.324 52.3295 224.075 51.4205 224.075 50.3551C224.075 49.4176 224.26 48.6577 224.629 48.0753C224.998 47.4858 225.492 47.0241 226.11 46.6903C226.728 46.3565 227.41 46.108 228.155 45.9446C228.908 45.7741 229.665 45.6392 230.425 45.5398C231.419 45.4119 232.225 45.3161 232.843 45.2521C233.468 45.1811 233.922 45.0639 234.206 44.9006C234.498 44.7372 234.643 44.4531 234.643 44.0483V43.9631C234.643 42.9119 234.356 42.0952 233.78 41.5128C233.212 40.9304 232.349 40.6392 231.192 40.6392C229.991 40.6392 229.05 40.902 228.368 41.4276C227.687 41.9531 227.207 42.5142 226.93 43.1108L224.544 42.2585C224.97 41.2642 225.538 40.4901 226.248 39.9361C226.966 39.375 227.747 38.9844 228.592 38.7642C229.444 38.5369 230.282 38.4233 231.106 38.4233C231.632 38.4233 232.236 38.4872 232.917 38.6151C233.606 38.7358 234.27 38.9879 234.91 39.3714C235.556 39.755 236.092 40.3338 236.518 41.108C236.944 41.8821 237.157 42.919 237.157 44.2188V55H234.643V52.7841H234.515C234.345 53.1392 234.061 53.5192 233.663 53.924C233.265 54.3288 232.736 54.6733 232.076 54.9574C231.415 55.2415 230.609 55.3835 229.657 55.3835ZM230.041 53.125C231.035 53.125 231.873 52.9297 232.555 52.5391C233.244 52.1484 233.763 51.6442 234.111 51.0263C234.466 50.4084 234.643 49.7585 234.643 49.0767V46.7756C234.537 46.9034 234.302 47.0206 233.94 47.1271C233.585 47.2266 233.173 47.3153 232.704 47.3935C232.243 47.4645 231.792 47.5284 231.351 47.5852C230.918 47.6349 230.567 47.6776 230.297 47.7131C229.643 47.7983 229.032 47.9368 228.464 48.1286C227.903 48.3132 227.449 48.5937 227.101 48.9702C226.76 49.3395 226.589 49.8437 226.589 50.483C226.589 51.3565 226.912 52.017 227.559 52.4645C228.212 52.9048 229.04 53.125 230.041 53.125ZM244.261 33.1818V55H241.746V33.1818H244.261Z" fill="black"/>
<defs>
<filter id="filter0_i_7_3" x="130" y="5" width="130" height="76" filterUnits="userSpaceOnUse" color-interpolation-filters="sRGB">
<feFlood flood-opacity="0" result="BackgroundImageFix"/>
<feBlend mode="normal" in="SourceGraphic" in2="BackgroundImageFix" result="shape"/>
<feColorMatrix in="SourceAlpha" type="matrix" values="0 0 0 0 0 0 0 0 0 0 0 0 0 0 0 0 0 0 127 0" result="hardAlpha"/>
<feMorphology radius="5" operator="erode" in="SourceAlpha" result="effect1_innerShadow_7_3"/>
<feOffset/>
<feGaussianBlur stdDeviation="3"/>
<feComposite in2="hardAlpha" operator="arithmetic" k2="-1" k3="1"/>
<feColorMatrix type="matrix" values="0 0 0 0 0 0 0 0 0 0 0 0 0 0 0 0 0 0 0.5 0"/>
<feBlend mode="normal" in2="shape" result="effect1_innerShadow_7_3"/>
</filter>
</defs>
</svg>
