<svg width="398" height="84" viewBox="0 0 398 84" fill="none" xmlns="http://www.w3.org/2000/svg">
<rect width="398" height="84" fill="#F5F5F5"/>
<g filter="url(#filter0_d_0_1)">
<path d="M2 40C2 19.0132 19.0132 2 40 2H354C374.987 2 392 19.0132 392 40V40C392 60.9868 374.987 78 354 78H40C19.0132 78 2 60.9868 2 40V40Z" fill="#D9D9D9"/>
<path d="M40 3H354C374.435 3 391 19.5655 391 40C391 60.4345 374.435 77 354 77H40C19.5655 77 3 60.4345 3 40C3 19.5655 19.5655 3 40 3Z" stroke="#767676" stroke-width="2"/>
</g>
<mask id="path-3-inside-1_0_1" fill="white">
<path d="M2 40C2 19.0132 19.0132 2 40 2H132V78H40C19.0132 78 2 60.9868 2 40V40Z"/>
</mask>
<path d="M2 40C2 19.0132 19.0132 2 40 2H132V78H40C19.0132 78 2 60.9868 2 40V40Z" fill="#FDD3D0"/>
<path d="M0 40C0 17.9086 17.9086 0 40 0H132V4H40C20.1177 4 4 20.1177 4 40H0ZM132 80H40C17.9086 80 0 62.0914 0 40H4C4 59.8823 20.1177 76 40 76H132V80ZM40 80C17.9086 80 0 62.0914 0 40C0 17.9086 17.9086 0 40 0V4C20.1177 4 4 20.1177 4 40C4 59.8823 20.1177 76 40 76V80ZM132 2V78V2Z" fill="#C00F0C" mask="url(#path-3-inside-1_0_1)"/>
<mask id="path-5-inside-2_0_1" fill="white">
<path d="M262 2H354C374.987 2 392 19.0132 392 40V40C392 60.9868 374.987 78 354 78H262V2Z"/>
</mask>
<path d="M262 2H354C374.987 2 392 19.0132 392 40V40C392 60.9868 374.987 78 354 78H262V2Z" fill="#CFF7D3"/>
<path d="M262 0H354C376.091 0 394 17.9086 394 40H390C390 20.1177 373.882 4 354 4H262V0ZM394 40C394 62.0914 376.091 80 354 80H262V76H354C373.882 76 390 59.8823 390 40H394ZM262 78V2V78ZM354 0C376.091 0 394 17.9086 394 40C394 62.0914 376.091 80 354 80V76C373.882 76 390 59.8823 390 40C390 20.1177 373.882 4 354 4V0Z" fill="#009951" mask="url(#path-5-inside-2_0_1)"/>
<path d="M286.642 52V30.1818H294.014C295.726 30.1818 297.125 30.4908 298.212 31.1087C299.305 31.7195 300.115 32.5469 300.641 33.5909C301.166 34.6349 301.429 35.7997 301.429 37.0852C301.429 38.3707 301.166 39.5391 300.641 40.5902C300.122 41.6413 299.32 42.4794 298.233 43.1044C297.146 43.7223 295.754 44.0312 294.057 44.0312H288.773V41.6875H293.972C295.143 41.6875 296.085 41.4851 296.795 41.0803C297.505 40.6754 298.02 40.1286 298.339 39.4396C298.666 38.7436 298.83 37.9588 298.83 37.0852C298.83 36.2116 298.666 35.4304 298.339 34.7415C298.02 34.0526 297.501 33.5128 296.784 33.1222C296.067 32.7244 295.115 32.5256 293.929 32.5256H289.284V52H286.642ZM305.344 52V35.6364H307.773V38.108H307.944C308.242 37.2983 308.782 36.6413 309.563 36.1371C310.344 35.6328 311.225 35.3807 312.205 35.3807C312.39 35.3807 312.62 35.3842 312.897 35.3913C313.174 35.3984 313.384 35.4091 313.526 35.4233V37.9801C313.441 37.9588 313.245 37.9268 312.94 37.8842C312.642 37.8345 312.326 37.8097 311.992 37.8097C311.196 37.8097 310.486 37.9766 309.861 38.3104C309.243 38.6371 308.753 39.0916 308.391 39.674C308.036 40.2493 307.858 40.9062 307.858 41.6449V52H305.344ZM322.869 52.3409C321.292 52.3409 319.932 51.9929 318.789 51.2969C317.652 50.5938 316.775 49.6136 316.157 48.3565C315.547 47.0923 315.241 45.6222 315.241 43.946C315.241 42.2699 315.547 40.7926 316.157 39.5142C316.775 38.2287 317.635 37.2273 318.735 36.5099C319.843 35.7855 321.136 35.4233 322.613 35.4233C323.466 35.4233 324.307 35.5653 325.138 35.8494C325.969 36.1335 326.725 36.5952 327.407 37.2344C328.089 37.8665 328.632 38.7045 329.037 39.7486C329.442 40.7926 329.645 42.0781 329.645 43.6051V44.6705H317.031V42.4972H327.088C327.088 41.5739 326.903 40.75 326.534 40.0256C326.172 39.3011 325.653 38.7294 324.978 38.3104C324.311 37.8913 323.522 37.6818 322.613 37.6818C321.612 37.6818 320.745 37.9304 320.014 38.4276C319.289 38.9176 318.732 39.5568 318.341 40.3452C317.951 41.1335 317.755 41.9787 317.755 42.8807V44.3295C317.755 45.5653 317.968 46.6129 318.395 47.4723C318.828 48.3246 319.428 48.9744 320.195 49.4219C320.962 49.8622 321.853 50.0824 322.869 50.0824C323.529 50.0824 324.126 49.9901 324.659 49.8054C325.199 49.6136 325.664 49.3295 326.054 48.9531C326.445 48.5696 326.747 48.0937 326.96 47.5256L329.389 48.2074C329.133 49.0312 328.703 49.7557 328.1 50.3807C327.496 50.9986 326.75 51.4815 325.863 51.8295C324.975 52.1705 323.977 52.3409 322.869 52.3409ZM340.756 35.6364V37.767H331.935V35.6364H340.756ZM334.577 52V33.3778C334.577 32.4403 334.797 31.6591 335.238 31.0341C335.678 30.4091 336.25 29.9403 336.953 29.6278C337.656 29.3153 338.398 29.1591 339.179 29.1591C339.797 29.1591 340.301 29.2088 340.692 29.3082C341.083 29.4077 341.374 29.5 341.566 29.5852L340.841 31.7585C340.713 31.7159 340.536 31.6626 340.309 31.5987C340.088 31.5348 339.797 31.5028 339.435 31.5028C338.604 31.5028 338.004 31.7124 337.635 32.1314C337.272 32.5504 337.091 33.1648 337.091 33.9744V52H334.577ZM350.467 52.3409C348.89 52.3409 347.53 51.9929 346.386 51.2969C345.25 50.5938 344.373 49.6136 343.755 48.3565C343.144 47.0923 342.839 45.6222 342.839 43.946C342.839 42.2699 343.144 40.7926 343.755 39.5142C344.373 38.2287 345.232 37.2273 346.333 36.5099C347.441 35.7855 348.734 35.4233 350.211 35.4233C351.063 35.4233 351.905 35.5653 352.736 35.8494C353.567 36.1335 354.323 36.5952 355.005 37.2344C355.687 37.8665 356.23 38.7045 356.635 39.7486C357.04 40.7926 357.242 42.0781 357.242 43.6051V44.6705H344.629V42.4972H354.685C354.685 41.5739 354.501 40.75 354.131 40.0256C353.769 39.3011 353.251 38.7294 352.576 38.3104C351.908 37.8913 351.12 37.6818 350.211 37.6818C349.21 37.6818 348.343 37.9304 347.612 38.4276C346.887 38.9176 346.33 39.5568 345.939 40.3452C345.548 41.1335 345.353 41.9787 345.353 42.8807V44.3295C345.353 45.5653 345.566 46.6129 345.992 47.4723C346.425 48.3246 347.026 48.9744 347.793 49.4219C348.56 49.8622 349.451 50.0824 350.467 50.0824C351.127 50.0824 351.724 49.9901 352.256 49.8054C352.796 49.6136 353.261 49.3295 353.652 48.9531C354.043 48.5696 354.344 48.0937 354.558 47.5256L356.987 48.2074C356.731 49.0312 356.301 49.7557 355.697 50.3807C355.094 50.9986 354.348 51.4815 353.46 51.8295C352.572 52.1705 351.575 52.3409 350.467 52.3409ZM361.067 52V35.6364H363.496V38.108H363.666C363.964 37.2983 364.504 36.6413 365.286 36.1371C366.067 35.6328 366.947 35.3807 367.928 35.3807C368.112 35.3807 368.343 35.3842 368.62 35.3913C368.897 35.3984 369.107 35.4091 369.249 35.4233V37.9801C369.163 37.9588 368.968 37.9268 368.663 37.8842C368.364 37.8345 368.048 37.8097 367.714 37.8097C366.919 37.8097 366.209 37.9766 365.584 38.3104C364.966 38.6371 364.476 39.0916 364.114 39.674C363.759 40.2493 363.581 40.9062 363.581 41.6449V52H361.067Z" fill="black"/>
<path d="M35.5369 52H32.767L40.7784 30.1818H43.5057L51.517 52H48.7472L42.2273 33.6335H42.0568L35.5369 52ZM36.5597 43.4773H47.7244V45.821H36.5597V43.4773ZM65.9045 35.6364L59.8533 52H57.2965L51.2454 35.6364H53.9727L58.4897 48.6761H58.6602L63.1772 35.6364H65.9045ZM75.2848 52.3409C73.8075 52.3409 72.5114 51.9893 71.3963 51.2862C70.2884 50.5831 69.4219 49.5994 68.7969 48.3352C68.179 47.071 67.87 45.5937 67.87 43.9034C67.87 42.1989 68.179 40.7109 68.7969 39.4396C69.4219 38.1683 70.2884 37.1811 71.3963 36.478C72.5114 35.7749 73.8075 35.4233 75.2848 35.4233C76.7621 35.4233 78.0547 35.7749 79.1626 36.478C80.2777 37.1811 81.1442 38.1683 81.7621 39.4396C82.3871 40.7109 82.6996 42.1989 82.6996 43.9034C82.6996 45.5937 82.3871 47.071 81.7621 48.3352C81.1442 49.5994 80.2777 50.5831 79.1626 51.2862C78.0547 51.9893 76.7621 52.3409 75.2848 52.3409ZM75.2848 50.0824C76.407 50.0824 77.3303 49.7947 78.0547 49.2195C78.7791 48.6442 79.3153 47.8878 79.6634 46.9503C80.0114 46.0128 80.1854 44.9972 80.1854 43.9034C80.1854 42.8097 80.0114 41.7905 79.6634 40.8459C79.3153 39.9013 78.7791 39.1378 78.0547 38.5554C77.3303 37.973 76.407 37.6818 75.2848 37.6818C74.1626 37.6818 73.2393 37.973 72.5149 38.5554C71.7905 39.1378 71.2543 39.9013 70.9062 40.8459C70.5582 41.7905 70.3842 42.8097 70.3842 43.9034C70.3842 44.9972 70.5582 46.0128 70.9062 46.9503C71.2543 47.8878 71.7905 48.6442 72.5149 49.2195C73.2393 49.7947 74.1626 50.0824 75.2848 50.0824ZM86.5375 52V35.6364H89.0517V52H86.5375ZM87.8159 32.9091C87.3258 32.9091 86.9032 32.7422 86.5481 32.4084C86.2001 32.0746 86.0261 31.6733 86.0261 31.2045C86.0261 30.7358 86.2001 30.3345 86.5481 30.0007C86.9032 29.6669 87.3258 29.5 87.8159 29.5C88.3059 29.5 88.725 29.6669 89.073 30.0007C89.4281 30.3345 89.6056 30.7358 89.6056 31.2045C89.6056 31.6733 89.4281 32.0746 89.073 32.4084C88.725 32.7422 88.3059 32.9091 87.8159 32.9091ZM99.8356 52.3409C98.4719 52.3409 97.2681 51.9964 96.2241 51.3075C95.18 50.6115 94.3633 49.6314 93.7738 48.3672C93.1843 47.0959 92.8896 45.5938 92.8896 43.8608C92.8896 42.142 93.1843 40.6506 93.7738 39.3864C94.3633 38.1222 95.1836 37.1456 96.2347 36.4567C97.2859 35.7678 98.5004 35.4233 99.8782 35.4233C100.944 35.4233 101.785 35.6009 102.403 35.956C103.028 36.304 103.504 36.7017 103.831 37.1491C104.164 37.5895 104.424 37.9517 104.608 38.2358H104.821V30.1818H107.336V52H104.907V49.4858H104.608C104.424 49.7841 104.161 50.1605 103.82 50.6151C103.479 51.0625 102.993 51.4638 102.36 51.8189C101.728 52.1669 100.887 52.3409 99.8356 52.3409ZM100.176 50.0824C101.185 50.0824 102.037 49.8196 102.733 49.294C103.429 48.7614 103.958 48.0263 104.321 47.0888C104.683 46.1442 104.864 45.054 104.864 43.8182C104.864 42.5966 104.686 41.5277 104.331 40.6115C103.976 39.6882 103.451 38.9709 102.755 38.4595C102.059 37.9411 101.199 37.6818 100.176 37.6818C99.1112 37.6818 98.2234 37.9553 97.5131 38.5021C96.81 39.0419 96.2809 39.777 95.9258 40.7074C95.5778 41.6307 95.4038 42.6676 95.4038 43.8182C95.4038 44.983 95.5813 46.0412 95.9364 46.9929C96.2987 47.9375 96.8313 48.6903 97.5344 49.2514C98.2447 49.8054 99.1254 50.0824 100.176 50.0824Z" fill="black"/>
<path d="M164.943 30.1818V52H162.386L150.497 34.8693H150.284V52H147.642V30.1818H150.199L162.131 47.3551H162.344V30.1818H164.943ZM176.75 52.3409C175.173 52.3409 173.813 51.9929 172.67 51.2969C171.533 50.5938 170.656 49.6136 170.038 48.3565C169.427 47.0923 169.122 45.6222 169.122 43.946C169.122 42.2699 169.427 40.7926 170.038 39.5142C170.656 38.2287 171.515 37.2273 172.616 36.5099C173.724 35.7855 175.017 35.4233 176.494 35.4233C177.346 35.4233 178.188 35.5653 179.019 35.8494C179.85 36.1335 180.606 36.5952 181.288 37.2344C181.97 37.8665 182.513 38.7045 182.918 39.7486C183.323 40.7926 183.525 42.0781 183.525 43.6051V44.6705H170.912V42.4972H180.969C180.969 41.5739 180.784 40.75 180.415 40.0256C180.052 39.3011 179.534 38.7294 178.859 38.3104C178.192 37.8913 177.403 37.6818 176.494 37.6818C175.493 37.6818 174.626 37.9304 173.895 38.4276C173.17 38.9176 172.613 39.5568 172.222 40.3452C171.831 41.1335 171.636 41.9787 171.636 42.8807V44.3295C171.636 45.5653 171.849 46.6129 172.275 47.4723C172.709 48.3246 173.309 48.9744 174.076 49.4219C174.843 49.8622 175.734 50.0824 176.75 50.0824C177.41 50.0824 178.007 49.9901 178.54 49.8054C179.079 49.6136 179.545 49.3295 179.935 48.9531C180.326 48.5696 180.628 48.0937 180.841 47.5256L183.27 48.2074C183.014 49.0312 182.584 49.7557 181.981 50.3807C181.377 50.9986 180.631 51.4815 179.743 51.8295C178.856 52.1705 177.858 52.3409 176.75 52.3409ZM197.662 45.3097V35.6364H200.177V52H197.662V49.2301H197.492C197.108 50.0611 196.512 50.7678 195.702 51.3501C194.893 51.9254 193.87 52.2131 192.634 52.2131C191.611 52.2131 190.702 51.9893 189.907 51.5419C189.111 51.0874 188.486 50.4055 188.032 49.4964C187.577 48.5803 187.35 47.4261 187.35 46.0341V35.6364H189.864V45.8636C189.864 47.0568 190.198 48.0085 190.866 48.7188C191.54 49.429 192.4 49.7841 193.444 49.7841C194.069 49.7841 194.704 49.6243 195.351 49.3047C196.004 48.9851 196.551 48.495 196.991 47.8345C197.439 47.174 197.662 46.3324 197.662 45.3097ZM211.898 35.6364V37.767H203.418V35.6364H211.898ZM205.89 31.7159H208.404V47.3125C208.404 48.0227 208.507 48.5554 208.713 48.9105C208.926 49.2585 209.196 49.4929 209.522 49.6136C209.856 49.7273 210.208 49.7841 210.577 49.7841C210.854 49.7841 211.081 49.7699 211.259 49.7415C211.436 49.706 211.578 49.6776 211.685 49.6562L212.196 51.9148C212.026 51.9787 211.788 52.0426 211.483 52.1065C211.177 52.1776 210.79 52.2131 210.321 52.2131C209.611 52.2131 208.915 52.0604 208.233 51.755C207.559 51.4496 206.998 50.9844 206.55 50.3594C206.11 49.7344 205.89 48.946 205.89 47.9943V31.7159ZM215.68 52V35.6364H218.109V38.108H218.279C218.578 37.2983 219.118 36.6413 219.899 36.1371C220.68 35.6328 221.561 35.3807 222.541 35.3807C222.725 35.3807 222.956 35.3842 223.233 35.3913C223.51 35.3984 223.72 35.4091 223.862 35.4233V37.9801C223.777 37.9588 223.581 37.9268 223.276 37.8842C222.978 37.8345 222.662 37.8097 222.328 37.8097C221.532 37.8097 220.822 37.9766 220.197 38.3104C219.579 38.6371 219.089 39.0916 218.727 39.674C218.372 40.2493 218.194 40.9062 218.194 41.6449V52H215.68ZM231.657 52.3835C230.621 52.3835 229.68 52.1882 228.834 51.7976C227.989 51.3999 227.318 50.8281 226.821 50.0824C226.324 49.3295 226.075 48.4205 226.075 47.3551C226.075 46.4176 226.26 45.6577 226.629 45.0753C226.998 44.4858 227.492 44.0241 228.11 43.6903C228.728 43.3565 229.41 43.108 230.155 42.9446C230.908 42.7741 231.665 42.6392 232.425 42.5398C233.419 42.4119 234.225 42.3161 234.843 42.2521C235.468 42.1811 235.922 42.0639 236.206 41.9006C236.498 41.7372 236.643 41.4531 236.643 41.0483V40.9631C236.643 39.9119 236.356 39.0952 235.78 38.5128C235.212 37.9304 234.349 37.6392 233.192 37.6392C231.991 37.6392 231.05 37.902 230.368 38.4276C229.687 38.9531 229.207 39.5142 228.93 40.1108L226.544 39.2585C226.97 38.2642 227.538 37.4901 228.248 36.9361C228.966 36.375 229.747 35.9844 230.592 35.7642C231.444 35.5369 232.282 35.4233 233.106 35.4233C233.632 35.4233 234.236 35.4872 234.917 35.6151C235.606 35.7358 236.27 35.9879 236.91 36.3714C237.556 36.755 238.092 37.3338 238.518 38.108C238.944 38.8821 239.157 39.919 239.157 41.2188V52H236.643V49.7841H236.515C236.345 50.1392 236.061 50.5192 235.663 50.924C235.265 51.3288 234.736 51.6733 234.076 51.9574C233.415 52.2415 232.609 52.3835 231.657 52.3835ZM232.041 50.125C233.035 50.125 233.873 49.9297 234.555 49.5391C235.244 49.1484 235.763 48.6442 236.111 48.0263C236.466 47.4084 236.643 46.7585 236.643 46.0767V43.7756C236.537 43.9034 236.302 44.0206 235.94 44.1271C235.585 44.2266 235.173 44.3153 234.704 44.3935C234.243 44.4645 233.792 44.5284 233.351 44.5852C232.918 44.6349 232.567 44.6776 232.297 44.7131C231.643 44.7983 231.032 44.9368 230.464 45.1286C229.903 45.3132 229.449 45.5937 229.101 45.9702C228.76 46.3395 228.589 46.8437 228.589 47.483C228.589 48.3565 228.912 49.017 229.559 49.4645C230.212 49.9048 231.04 50.125 232.041 50.125ZM246.261 30.1818V52H243.746V30.1818H246.261Z" fill="black"/>
<defs>
<filter id="filter0_d_0_1" x="0" y="0" width="398" height="84" filterUnits="userSpaceOnUse" color-interpolation-filters="sRGB">
<feFlood flood-opacity="0" result="BackgroundImageFix"/>
<feColorMatrix in="SourceAlpha" type="matrix" values="0 0 0 0 0 0 0 0 0 0 0 0 0 0 0 0 0 0 127 0" result="hardAlpha"/>
<feOffset dx="2" dy="2"/>
<feGaussianBlur stdDeviation="2"/>
<feComposite in2="hardAlpha" operator="out"/>
<feColorMatrix type="matrix" values="0 0 0 0 0 0 0 0 0 0 0 0 0 0 0 0 0 0 0.25 0"/>
<feBlend mode="normal" in2="BackgroundImageFix" result="effect1_dropShadow_0_1"/>
<feBlend mode="normal" in="SourceGraphic" in2="effect1_dropShadow_0_1" result="shape"/>
</filter>
</defs>
</svg>
