<svg width="308" height="60" viewBox="0 0 308 60" fill="none" xmlns="http://www.w3.org/2000/svg">
<mask id="path-1-inside-1_10_52" fill="white">
<path d="M0 30C0 13.4315 13.4315 0 30 0H154V60H30C13.4315 60 0 46.5685 0 30V30Z"/>
</mask>
<g filter="url(#filter0_i_10_52)">
<path d="M0 30C0 13.4315 13.4315 0 30 0H154V60H30C13.4315 60 0 46.5685 0 30V30Z" fill="#FEE9E7"/>
</g>
<path d="M-2 30C-2 12.3269 12.3269 -2 30 -2H154V2H30C14.536 2 2 14.536 2 30H-2ZM154 62H30C12.3269 62 -2 47.6731 -2 30H2C2 45.464 14.536 58 30 58H154V62ZM30 62C12.3269 62 -2 47.6731 -2 30C-2 12.3269 12.3269 -2 30 -2V2C14.536 2 2 14.536 2 30C2 45.464 14.536 58 30 58V62ZM154 0V60V0Z" fill="#303030" mask="url(#path-1-inside-1_10_52)"/>
<mask id="path-3-inside-2_10_52" fill="white">
<path d="M154 0H278C294.569 0 308 13.4315 308 30V30C308 46.5685 294.569 60 278 60H154V0Z"/>
</mask>
<path d="M154 0H278C294.569 0 308 13.4315 308 30V30C308 46.5685 294.569 60 278 60H154V0Z" fill="#D9D9D9"/>
<path d="M154 -2H278C295.673 -2 310 12.3269 310 30H306C306 14.536 293.464 2 278 2H154V-2ZM310 30C310 47.6731 295.673 62 278 62H154V58H278C293.464 58 306 45.464 306 30H310ZM154 60V0V60ZM278 -2C295.673 -2 310 12.3269 310 30C310 47.6731 295.673 62 278 62V58C293.464 58 306 45.464 306 30C306 14.536 293.464 2 278 2V-2Z" fill="#303030" mask="url(#path-3-inside-2_10_52)"/>
<path d="M206.59 22.2727V39H204.63L195.515 25.8665H195.351V39H193.326V22.2727H195.286L204.434 35.4389H204.597V22.2727H206.59ZM215.642 39.2614C214.433 39.2614 213.39 38.9946 212.514 38.4609C211.642 37.9219 210.97 37.1705 210.496 36.2067C210.028 35.2375 209.794 34.1103 209.794 32.8253C209.794 31.5402 210.028 30.4077 210.496 29.4276C210.97 28.442 211.629 27.6742 212.473 27.1243C213.322 26.5689 214.313 26.2912 215.446 26.2912C216.099 26.2912 216.744 26.4001 217.382 26.6179C218.019 26.8357 218.599 27.1896 219.121 27.6797C219.644 28.1643 220.061 28.8068 220.371 29.6072C220.681 30.4077 220.836 31.3932 220.836 32.5639V33.3807H211.166V31.7145H218.876C218.876 31.0066 218.735 30.375 218.451 29.8196C218.174 29.2642 217.776 28.8259 217.259 28.5046C216.747 28.1834 216.143 28.0227 215.446 28.0227C214.678 28.0227 214.014 28.2133 213.453 28.5945C212.898 28.9702 212.47 29.4602 212.171 30.0646C211.871 30.669 211.721 31.317 211.721 32.0085V33.1193C211.721 34.0668 211.885 34.8699 212.211 35.5288C212.544 36.1822 213.004 36.6804 213.592 37.0234C214.18 37.361 214.863 37.5298 215.642 37.5298C216.148 37.5298 216.606 37.459 217.014 37.3175C217.428 37.1705 217.784 36.9527 218.084 36.6641C218.383 36.37 218.615 36.0052 218.778 35.5696L220.64 36.0923C220.444 36.724 220.115 37.2794 219.652 37.7585C219.189 38.2322 218.618 38.6025 217.937 38.8693C217.256 39.1307 216.491 39.2614 215.642 39.2614ZM231.675 33.8707V26.4545H233.602V39H231.675V36.8764H231.544C231.25 37.5135 230.793 38.0553 230.172 38.5018C229.551 38.9428 228.767 39.1634 227.82 39.1634C227.036 39.1634 226.339 38.9918 225.729 38.6488C225.119 38.3003 224.64 37.7776 224.291 37.0806C223.943 36.3782 223.769 35.4934 223.769 34.4261V26.4545H225.696V34.2955C225.696 35.2102 225.952 35.9399 226.464 36.4844C226.981 37.0289 227.64 37.3011 228.44 37.3011C228.92 37.3011 229.407 37.1786 229.902 36.9336C230.403 36.6886 230.823 36.3129 231.16 35.8065C231.503 35.3001 231.675 34.6548 231.675 33.8707ZM242.589 26.4545V28.0881H236.087V26.4545H242.589ZM237.982 23.4489H239.91V35.4062C239.91 35.9508 239.989 36.3591 240.147 36.6314C240.31 36.8982 240.517 37.0779 240.767 37.1705C241.023 37.2576 241.293 37.3011 241.576 37.3011C241.788 37.3011 241.963 37.2902 242.099 37.2685C242.235 37.2412 242.344 37.2195 242.425 37.2031L242.818 38.9347C242.687 38.9837 242.504 39.0327 242.27 39.0817C242.036 39.1361 241.739 39.1634 241.38 39.1634C240.836 39.1634 240.302 39.0463 239.779 38.8121C239.262 38.578 238.832 38.2214 238.489 37.7422C238.151 37.263 237.982 36.6586 237.982 35.929V23.4489ZM245.488 39V26.4545H247.351V28.3494H247.481C247.71 27.7287 248.124 27.225 248.723 26.8384C249.322 26.4518 249.997 26.2585 250.748 26.2585C250.89 26.2585 251.067 26.2612 251.279 26.2667C251.492 26.2721 251.652 26.2803 251.761 26.2912V28.2514C251.696 28.2351 251.546 28.2106 251.312 28.1779C251.083 28.1398 250.841 28.1207 250.585 28.1207C249.975 28.1207 249.431 28.2487 248.951 28.5046C248.478 28.7551 248.102 29.1036 247.824 29.5501C247.552 29.9911 247.416 30.4948 247.416 31.0611V39H245.488ZM257.738 39.294C256.943 39.294 256.221 39.1443 255.573 38.8448C254.925 38.5399 254.411 38.1016 254.03 37.5298C253.648 36.9527 253.458 36.2557 253.458 35.4389C253.458 34.7202 253.599 34.1375 253.883 33.6911C254.166 33.2391 254.544 32.8852 255.018 32.6293C255.492 32.3733 256.014 32.1828 256.586 32.0575C257.163 31.9268 257.743 31.8234 258.326 31.7472C259.088 31.6491 259.706 31.5756 260.18 31.5266C260.659 31.4722 261.007 31.3823 261.225 31.2571C261.449 31.1319 261.56 30.9141 261.56 30.6037V30.5384C261.56 29.7325 261.34 29.1063 260.899 28.6598C260.463 28.2133 259.801 27.9901 258.914 27.9901C257.994 27.9901 257.272 28.1915 256.749 28.5945C256.227 28.9974 255.859 29.4276 255.647 29.8849L253.817 29.2315C254.144 28.4692 254.58 27.8757 255.124 27.451C255.674 27.0208 256.273 26.7214 256.921 26.5526C257.574 26.3783 258.217 26.2912 258.848 26.2912C259.251 26.2912 259.714 26.3402 260.237 26.4382C260.765 26.5308 261.274 26.7241 261.764 27.0181C262.26 27.3121 262.671 27.7559 262.998 28.3494C263.324 28.9429 263.488 29.7379 263.488 30.7344V39H261.56V37.3011H261.462C261.331 37.5734 261.114 37.8647 260.809 38.1751C260.504 38.4854 260.098 38.7495 259.592 38.9673C259.085 39.1851 258.467 39.294 257.738 39.294ZM258.032 37.5625C258.794 37.5625 259.437 37.4128 259.959 37.1133C260.487 36.8138 260.885 36.4272 261.152 35.9535C261.424 35.4798 261.56 34.9815 261.56 34.4588V32.6946C261.478 32.7926 261.299 32.8825 261.021 32.9641C260.749 33.0404 260.433 33.1084 260.074 33.1683C259.72 33.2228 259.374 33.2718 259.036 33.3153C258.704 33.3535 258.435 33.3861 258.228 33.4134C257.727 33.4787 257.259 33.5849 256.823 33.7319C256.393 33.8735 256.044 34.0885 255.777 34.3771C255.516 34.6603 255.385 35.0469 255.385 35.5369C255.385 36.2067 255.633 36.7131 256.129 37.0561C256.63 37.3937 257.264 37.5625 258.032 37.5625ZM268.933 22.2727V39H267.006V22.2727H268.933Z" fill="black"/>
<path d="M49.8161 39H47.6926L53.8346 22.2727H55.9255L62.0676 39H59.944L54.9454 24.919H54.8147L49.8161 39ZM50.6002 32.4659H59.1599V34.2628H50.6002V32.4659ZM73.0979 26.4545L68.4587 39H66.4985L61.8593 26.4545H63.9502L67.4133 36.4517H67.5439L71.007 26.4545H73.0979ZM80.2895 39.2614C79.1569 39.2614 78.1632 38.9918 77.3083 38.4528C76.4589 37.9137 75.7946 37.1596 75.3154 36.1903C74.8417 35.2211 74.6048 34.0885 74.6048 32.7926C74.6048 31.4858 74.8417 30.3451 75.3154 29.3704C75.7946 28.3957 76.4589 27.6388 77.3083 27.0998C78.1632 26.5607 79.1569 26.2912 80.2895 26.2912C81.4221 26.2912 82.4131 26.5607 83.2625 27.0998C84.1174 27.6388 84.7817 28.3957 85.2554 29.3704C85.7346 30.3451 85.9742 31.4858 85.9742 32.7926C85.9742 34.0885 85.7346 35.2211 85.2554 36.1903C84.7817 37.1596 84.1174 37.9137 83.2625 38.4528C82.4131 38.9918 81.4221 39.2614 80.2895 39.2614ZM80.2895 37.5298C81.1498 37.5298 81.8577 37.3093 82.4131 36.8683C82.9685 36.4272 83.3796 35.8473 83.6464 35.1286C83.9132 34.4098 84.0466 33.6312 84.0466 32.7926C84.0466 31.9541 83.9132 31.1727 83.6464 30.4485C83.3796 29.7243 82.9685 29.139 82.4131 28.6925C81.8577 28.246 81.1498 28.0227 80.2895 28.0227C79.4292 28.0227 78.7213 28.246 78.1659 28.6925C77.6105 29.139 77.1994 29.7243 76.9326 30.4485C76.6658 31.1727 76.5324 31.9541 76.5324 32.7926C76.5324 33.6312 76.6658 34.4098 76.9326 35.1286C77.1994 35.8473 77.6105 36.4272 78.1659 36.8683C78.7213 37.3093 79.4292 37.5298 80.2895 37.5298ZM88.9165 39V26.4545H90.8441V39H88.9165ZM89.8967 24.3636C89.521 24.3636 89.197 24.2357 88.9247 23.9798C88.6579 23.7238 88.5245 23.4162 88.5245 23.0568C88.5245 22.6974 88.6579 22.3898 88.9247 22.1339C89.197 21.878 89.521 21.75 89.8967 21.75C90.2724 21.75 90.5936 21.878 90.8604 22.1339C91.1327 22.3898 91.2688 22.6974 91.2688 23.0568C91.2688 23.4162 91.1327 23.7238 90.8604 23.9798C90.5936 24.2357 90.2724 24.3636 89.8967 24.3636ZM99.1118 39.2614C98.0663 39.2614 97.1434 38.9973 96.343 38.4691C95.5425 37.9355 94.9163 37.1841 94.4644 36.2148C94.0125 35.2402 93.7865 34.0885 93.7865 32.7599C93.7865 31.4422 94.0125 30.2988 94.4644 29.3295C94.9163 28.3603 95.5452 27.6116 96.3511 27.0835C97.157 26.5553 98.0881 26.2912 99.1444 26.2912C99.9612 26.2912 100.606 26.4273 101.08 26.6996C101.559 26.9664 101.924 27.2713 102.175 27.6143C102.431 27.9519 102.629 28.2296 102.771 28.4474H102.934V22.2727H104.862V39H103V37.0724H102.771C102.629 37.3011 102.428 37.5897 102.166 37.9382C101.905 38.2812 101.532 38.5889 101.047 38.8612C100.563 39.128 99.9176 39.2614 99.1118 39.2614ZM99.3731 37.5298C100.146 37.5298 100.8 37.3284 101.333 36.9254C101.867 36.517 102.273 35.9535 102.55 35.2347C102.828 34.5105 102.967 33.6747 102.967 32.7273C102.967 31.7907 102.831 30.9712 102.559 30.2688C102.286 29.561 101.883 29.011 101.35 28.619C100.816 28.2215 100.157 28.0227 99.3731 28.0227C98.5564 28.0227 97.8757 28.2324 97.3312 28.6516C96.7922 29.0655 96.3865 29.629 96.1143 30.3423C95.8474 31.0502 95.714 31.8452 95.714 32.7273C95.714 33.6203 95.8502 34.4316 96.1224 35.1612C96.4001 35.8854 96.8085 36.4626 97.3476 36.8928C97.8921 37.3175 98.5673 37.5298 99.3731 37.5298Z" fill="black"/>
<defs>
<filter id="filter0_i_10_52" x="0" y="0" width="154" height="60" filterUnits="userSpaceOnUse" color-interpolation-filters="sRGB">
<feFlood flood-opacity="0" result="BackgroundImageFix"/>
<feBlend mode="normal" in="SourceGraphic" in2="BackgroundImageFix" result="shape"/>
<feColorMatrix in="SourceAlpha" type="matrix" values="0 0 0 0 0 0 0 0 0 0 0 0 0 0 0 0 0 0 127 0" result="hardAlpha"/>
<feMorphology radius="5" operator="erode" in="SourceAlpha" result="effect1_innerShadow_10_52"/>
<feOffset/>
<feGaussianBlur stdDeviation="3"/>
<feComposite in2="hardAlpha" operator="arithmetic" k2="-1" k3="1"/>
<feColorMatrix type="matrix" values="0 0 0 0 0 0 0 0 0 0 0 0 0 0 0 0 0 0 0.5 0"/>
<feBlend mode="normal" in2="shape" result="effect1_innerShadow_10_52"/>
</filter>
</defs>
</svg>
