<svg width="308" height="60" viewBox="0 0 308 60" fill="none" xmlns="http://www.w3.org/2000/svg">
<mask id="path-1-inside-1_10_64" fill="white">
<path d="M0 30C0 13.4315 13.4315 0 30 0H154V60H30C13.4315 60 0 46.5685 0 30V30Z"/>
</mask>
<g filter="url(#filter0_i_10_64)">
<path d="M0 30C0 13.4315 13.4315 0 30 0H154V60H30C13.4315 60 0 46.5685 0 30V30Z" fill="#FEE9E7"/>
</g>
<path d="M-2 30C-2 12.3269 12.3269 -2 30 -2H154V2H30C14.536 2 2 14.536 2 30H-2ZM154 62H30C12.3269 62 -2 47.6731 -2 30H2C2 45.464 14.536 58 30 58H154V62ZM30 62C12.3269 62 -2 47.6731 -2 30C-2 12.3269 12.3269 -2 30 -2V2C14.536 2 2 14.536 2 30C2 45.464 14.536 58 30 58V62ZM154 0V60V0Z" fill="#303030" mask="url(#path-1-inside-1_10_64)"/>
<mask id="path-3-inside-2_10_64" fill="white">
<path d="M154 0H278C294.569 0 308 13.4315 308 30V30C308 46.5685 294.569 60 278 60H154V0Z"/>
</mask>
<path d="M154 0H278C294.569 0 308 13.4315 308 30V30C308 46.5685 294.569 60 278 60H154V0Z" fill="#D9D9D9"/>
<path d="M154 -2H278C295.673 -2 310 12.3269 310 30H306C306 14.536 293.464 2 278 2H154V-2ZM310 30C310 47.6731 295.673 62 278 62H154V58H278C293.464 58 306 45.464 306 30H310ZM154 60V0V60ZM278 -2C295.673 -2 310 12.3269 310 30C310 47.6731 295.673 62 278 62V58C293.464 58 306 45.464 306 30C306 14.536 293.464 2 278 2V-2Z" fill="#303030" mask="url(#path-3-inside-2_10_64)"/>
<path d="M204.49 39H202.366L208.508 22.2727H210.599L216.741 39H214.618L209.619 24.919H209.489L204.49 39ZM205.274 32.4659H213.834V34.2628H205.274V32.4659ZM221.013 22.2727V39H219.085V22.2727H221.013ZM226.471 22.2727V39H224.544V22.2727H226.471ZM235.098 39.2614C233.966 39.2614 232.972 38.9918 232.117 38.4528C231.267 37.9137 230.603 37.1596 230.124 36.1903C229.65 35.2211 229.413 34.0885 229.413 32.7926C229.413 31.4858 229.65 30.3451 230.124 29.3704C230.603 28.3957 231.267 27.6388 232.117 27.0998C232.972 26.5607 233.966 26.2912 235.098 26.2912C236.231 26.2912 237.222 26.5607 238.071 27.0998C238.926 27.6388 239.59 28.3957 240.064 29.3704C240.543 30.3451 240.783 31.4858 240.783 32.7926C240.783 34.0885 240.543 35.2211 240.064 36.1903C239.59 37.1596 238.926 37.9137 238.071 38.4528C237.222 38.9918 236.231 39.2614 235.098 39.2614ZM235.098 37.5298C235.958 37.5298 236.666 37.3093 237.222 36.8683C237.777 36.4272 238.188 35.8473 238.455 35.1286C238.722 34.4098 238.855 33.6312 238.855 32.7926C238.855 31.9541 238.722 31.1727 238.455 30.4485C238.188 29.7243 237.777 29.139 237.222 28.6925C236.666 28.246 235.958 28.0227 235.098 28.0227C234.238 28.0227 233.53 28.246 232.975 28.6925C232.419 29.139 232.008 29.7243 231.741 30.4485C231.474 31.1727 231.341 31.9541 231.341 32.7926C231.341 33.6312 231.474 34.4098 231.741 35.1286C232.008 35.8473 232.419 36.4272 232.975 36.8683C233.53 37.3093 234.238 37.5298 235.098 37.5298ZM246.141 39L242.318 26.4545H244.344L247.055 36.0597H247.186L249.865 26.4545H251.923L254.57 36.027H254.7L257.412 26.4545H259.438L255.615 39H253.72L250.976 29.3622H250.78L248.036 39H246.141Z" fill="black"/>
<path d="M39.2544 39H34.0925V22.2727H39.4831C41.1057 22.2727 42.4942 22.6076 43.6486 23.2773C44.8029 23.9416 45.6878 24.8973 46.303 26.1442C46.9183 27.3857 47.226 28.8722 47.226 30.6037C47.226 32.3461 46.9156 33.8462 46.2949 35.104C45.6741 36.3564 44.7703 37.3202 43.5832 37.9954C42.3962 38.6651 40.9533 39 39.2544 39ZM36.118 37.2031H39.1237C40.5068 37.2031 41.653 36.9363 42.5623 36.4027C43.4716 35.8691 44.1495 35.1095 44.596 34.1239C45.0425 33.1384 45.2658 31.965 45.2658 30.6037C45.2658 29.2533 45.0452 28.0908 44.6042 27.1161C44.1631 26.136 43.5043 25.3846 42.6276 24.8619C41.751 24.3337 40.6592 24.0696 39.3524 24.0696H36.118V37.2031ZM50.3623 39V26.4545H52.2899V39H50.3623ZM51.3425 24.3636C50.9668 24.3636 50.6428 24.2357 50.3705 23.9798C50.1037 23.7238 49.9703 23.4162 49.9703 23.0568C49.9703 22.6974 50.1037 22.3898 50.3705 22.1339C50.6428 21.878 50.9668 21.75 51.3425 21.75C51.7182 21.75 52.0394 21.878 52.3062 22.1339C52.5785 22.3898 52.7146 22.6974 52.7146 23.0568C52.7146 23.4162 52.5785 23.7238 52.3062 23.9798C52.0394 24.2357 51.7182 24.3636 51.3425 24.3636ZM64.7067 29.2642L62.9752 29.7543C62.8663 29.4657 62.7057 29.1853 62.4933 28.913C62.2864 28.6353 62.0032 28.4066 61.6439 28.2269C61.2845 28.0472 60.8244 27.9574 60.2635 27.9574C59.4958 27.9574 58.856 28.1344 58.3441 28.4883C57.8378 28.8368 57.5846 29.2805 57.5846 29.8196C57.5846 30.2988 57.7588 30.6772 58.1073 30.9549C58.4558 31.2326 59.0003 31.464 59.7408 31.6491L61.603 32.1065C62.7247 32.3788 63.5605 32.7953 64.1105 33.3562C64.6604 33.9116 64.9354 34.6276 64.9354 35.5043C64.9354 36.223 64.7285 36.8655 64.3147 37.4318C63.9063 37.9981 63.3346 38.4446 62.5995 38.7713C61.8644 39.098 61.0095 39.2614 60.0348 39.2614C58.7553 39.2614 57.6962 38.9837 56.8576 38.4283C56.0191 37.8729 55.4882 37.0616 55.265 35.9943L57.0945 35.5369C57.2687 36.2121 57.5982 36.7185 58.0828 37.0561C58.5728 37.3937 59.2126 37.5625 60.0022 37.5625C60.9006 37.5625 61.6139 37.3719 62.1421 36.9908C62.6757 36.6042 62.9425 36.1413 62.9425 35.6023C62.9425 35.1667 62.7901 34.8018 62.4851 34.5078C62.1802 34.2083 61.7119 33.9851 61.0803 33.8381L58.9894 33.348C57.8405 33.0758 56.9965 32.6538 56.4574 32.082C55.9238 31.5049 55.657 30.7834 55.657 29.9176C55.657 29.2098 55.8557 28.5836 56.2532 28.0391C56.6562 27.4946 57.2034 27.0671 57.8949 26.7567C58.5919 26.4464 59.3814 26.2912 60.2635 26.2912C61.505 26.2912 62.4797 26.5634 63.1875 27.108C63.9008 27.6525 64.4072 28.3712 64.7067 29.2642ZM71.5287 39.294C70.7337 39.294 70.0123 39.1443 69.3643 38.8448C68.7163 38.5399 68.2018 38.1016 67.8206 37.5298C67.4395 36.9527 67.2489 36.2557 67.2489 35.4389C67.2489 34.7202 67.3905 34.1375 67.6736 33.6911C67.9568 33.2391 68.3352 32.8852 68.8089 32.6293C69.2826 32.3733 69.8054 32.1828 70.3771 32.0575C70.9543 31.9268 71.5342 31.8234 72.1168 31.7472C72.8791 31.6491 73.4971 31.5756 73.9708 31.5266C74.45 31.4722 74.7985 31.3823 75.0163 31.2571C75.2395 31.1319 75.3512 30.9141 75.3512 30.6037V30.5384C75.3512 29.7325 75.1306 29.1063 74.6896 28.6598C74.254 28.2133 73.5924 27.9901 72.7049 27.9901C71.7846 27.9901 71.0632 28.1915 70.5404 28.5945C70.0177 28.9974 69.6502 29.4276 69.4378 29.8849L67.6083 29.2315C67.935 28.4692 68.3706 27.8757 68.9151 27.451C69.465 27.0208 70.064 26.7214 70.712 26.5526C71.3654 26.3783 72.0079 26.2912 72.6395 26.2912C73.0425 26.2912 73.5053 26.3402 74.028 26.4382C74.5562 26.5308 75.0653 26.7241 75.5554 27.0181C76.0509 27.3121 76.462 27.7559 76.7887 28.3494C77.1154 28.9429 77.2787 29.7379 77.2787 30.7344V39H75.3512V37.3011H75.2532C75.1225 37.5734 74.9047 37.8647 74.5997 38.1751C74.2948 38.4854 73.8892 38.7495 73.3828 38.9673C72.8764 39.1851 72.2584 39.294 71.5287 39.294ZM71.8228 37.5625C72.5851 37.5625 73.2276 37.4128 73.7503 37.1133C74.2785 36.8138 74.676 36.4272 74.9428 35.9535C75.215 35.4798 75.3512 34.9815 75.3512 34.4588V32.6946C75.2695 32.7926 75.0898 32.8825 74.8121 32.9641C74.5398 33.0404 74.224 33.1084 73.8647 33.1683C73.5107 33.2228 73.165 33.2718 72.8274 33.3153C72.4952 33.3535 72.2257 33.3861 72.0188 33.4134C71.5178 33.4787 71.0496 33.5849 70.6139 33.7319C70.1838 33.8735 69.8353 34.0885 69.5685 34.3771C69.3071 34.6603 69.1764 35.0469 69.1764 35.5369C69.1764 36.2067 69.4242 36.7131 69.9197 37.0561C70.4206 37.3937 71.055 37.5625 71.8228 37.5625ZM82.7245 22.2727V39H80.7969V22.2727H82.7245ZM88.1825 22.2727V39H86.2549V22.2727H88.1825ZM96.8095 39.2614C95.677 39.2614 94.6832 38.9918 93.8283 38.4528C92.9789 37.9137 92.3146 37.1596 91.8354 36.1903C91.3617 35.2211 91.1249 34.0885 91.1249 32.7926C91.1249 31.4858 91.3617 30.3451 91.8354 29.3704C92.3146 28.3957 92.9789 27.6388 93.8283 27.0998C94.6832 26.5607 95.677 26.2912 96.8095 26.2912C97.9421 26.2912 98.9331 26.5607 99.7825 27.0998C100.637 27.6388 101.302 28.3957 101.775 29.3704C102.255 30.3451 102.494 31.4858 102.494 32.7926C102.494 34.0885 102.255 35.2211 101.775 36.1903C101.302 37.1596 100.637 37.9137 99.7825 38.4528C98.9331 38.9918 97.9421 39.2614 96.8095 39.2614ZM96.8095 37.5298C97.6698 37.5298 98.3777 37.3093 98.9331 36.8683C99.4885 36.4272 99.8996 35.8473 100.166 35.1286C100.433 34.4098 100.567 33.6312 100.567 32.7926C100.567 31.9541 100.433 31.1727 100.166 30.4485C99.8996 29.7243 99.4885 29.139 98.9331 28.6925C98.3777 28.246 97.6698 28.0227 96.8095 28.0227C95.9492 28.0227 95.2413 28.246 94.6859 28.6925C94.1305 29.139 93.7194 29.7243 93.4526 30.4485C93.1858 31.1727 93.0524 31.9541 93.0524 32.7926C93.0524 33.6312 93.1858 34.4098 93.4526 35.1286C93.7194 35.8473 94.1305 36.4272 94.6859 36.8683C95.2413 37.3093 95.9492 37.5298 96.8095 37.5298ZM107.852 39L104.03 26.4545H106.055L108.767 36.0597H108.898L111.577 26.4545H113.635L116.281 36.027H116.412L119.123 26.4545H121.149L117.327 39H115.432L112.687 29.3622H112.491L109.747 39H107.852Z" fill="black"/>
<defs>
<filter id="filter0_i_10_64" x="0" y="0" width="154" height="60" filterUnits="userSpaceOnUse" color-interpolation-filters="sRGB">
<feFlood flood-opacity="0" result="BackgroundImageFix"/>
<feBlend mode="normal" in="SourceGraphic" in2="BackgroundImageFix" result="shape"/>
<feColorMatrix in="SourceAlpha" type="matrix" values="0 0 0 0 0 0 0 0 0 0 0 0 0 0 0 0 0 0 127 0" result="hardAlpha"/>
<feMorphology radius="5" operator="erode" in="SourceAlpha" result="effect1_innerShadow_10_64"/>
<feOffset/>
<feGaussianBlur stdDeviation="3"/>
<feComposite in2="hardAlpha" operator="arithmetic" k2="-1" k3="1"/>
<feColorMatrix type="matrix" values="0 0 0 0 0 0 0 0 0 0 0 0 0 0 0 0 0 0 0.5 0"/>
<feBlend mode="normal" in2="shape" result="effect1_innerShadow_10_64"/>
</filter>
</defs>
</svg>
