<svg width="308" height="60" viewBox="0 0 308 60" fill="none" xmlns="http://www.w3.org/2000/svg">
<mask id="path-1-inside-1_13_125" fill="white">
<path d="M102.598 0H205.196V59.9804H102.598V0Z"/>
</mask>
<path d="M102.598 0H205.196V59.9804H102.598V0Z" fill="#D9D9D9"/>
<path d="M102.598 2H205.196V-2H102.598V2ZM205.196 57.9804H102.598V61.9804H205.196V57.9804Z" fill="#303030" mask="url(#path-1-inside-1_13_125)"/>
<mask id="path-3-inside-2_13_125" fill="white">
<path d="M0 29.9902C0 13.4271 13.4271 0 29.9902 0H102.598V59.9804H29.9902C13.427 59.9804 0 46.5533 0 29.9902V29.9902Z"/>
</mask>
<g filter="url(#filter0_i_13_125)">
<path d="M0 29.9902C0 13.4271 13.4271 0 29.9902 0H102.598V59.9804H29.9902C13.427 59.9804 0 46.5533 0 29.9902V29.9902Z" fill="#FEE9E7"/>
</g>
<path d="M-2 29.9902C-2 12.3225 12.3225 -2 29.9902 -2H102.598V2H29.9902C14.5316 2 2 14.5316 2 29.9902H-2ZM102.598 61.9804H29.9902C12.3225 61.9804 -2 47.6579 -2 29.9902H2C2 45.4488 14.5316 57.9804 29.9902 57.9804H102.598V61.9804ZM29.9902 61.9804C12.3225 61.9804 -2 47.6579 -2 29.9902C-2 12.3225 12.3225 -2 29.9902 -2V2C14.5316 2 2 14.5316 2 29.9902C2 45.4488 14.5316 57.9804 29.9902 57.9804V61.9804ZM102.598 0V59.9804V0Z" fill="#303030" mask="url(#path-3-inside-2_13_125)"/>
<mask id="path-5-inside-3_13_125" fill="white">
<path d="M205.196 0H277.804C294.367 0 307.794 13.4271 307.794 29.9902V29.9902C307.794 46.5533 294.367 59.9804 277.804 59.9804H205.196V0Z"/>
</mask>
<path d="M205.196 0H277.804C294.367 0 307.794 13.4271 307.794 29.9902V29.9902C307.794 46.5533 294.367 59.9804 277.804 59.9804H205.196V0Z" fill="#EBFFEE"/>
<path d="M205.196 -2H277.804C295.472 -2 309.794 12.3225 309.794 29.9902H305.794C305.794 14.5316 293.262 2 277.804 2H205.196V-2ZM309.794 29.9902C309.794 47.6579 295.472 61.9804 277.804 61.9804H205.196V57.9804H277.804C293.262 57.9804 305.794 45.4488 305.794 29.9902H309.794ZM205.196 59.9804V0V59.9804ZM277.804 -2C295.472 -2 309.794 12.3225 309.794 29.9902C309.794 47.6579 295.472 61.9804 277.804 61.9804V57.9804C293.262 57.9804 305.794 45.4488 305.794 29.9902C305.794 14.5316 293.262 2 277.804 2V-2Z" fill="#303030" mask="url(#path-5-inside-3_13_125)"/>
<path d="M224.584 38.5735V21.8462H230.236C231.549 21.8462 232.621 22.0831 233.454 22.5568C234.293 23.0251 234.914 23.6595 235.317 24.4599C235.72 25.2603 235.921 26.1533 235.921 27.1389C235.921 28.1244 235.72 29.0201 235.317 29.826C234.919 30.6319 234.304 31.2744 233.471 31.7536C232.638 32.2273 231.57 32.4641 230.269 32.4641H226.218V30.6673H230.204C231.102 30.6673 231.824 30.5121 232.368 30.2017C232.913 29.8913 233.307 29.4721 233.552 28.9439C233.803 28.4103 233.928 27.8086 233.928 27.1389C233.928 26.4691 233.803 25.8702 233.552 25.342C233.307 24.8138 232.91 24.4 232.36 24.1005C231.81 23.7956 231.08 23.6431 230.171 23.6431H226.61V38.5735H224.584ZM238.923 38.5735V26.0281H240.785V27.9229H240.916C241.144 27.3022 241.558 26.7985 242.157 26.4119C242.756 26.0253 243.431 25.832 244.183 25.832C244.324 25.832 244.501 25.8348 244.713 25.8402C244.926 25.8457 245.086 25.8538 245.195 25.8647V27.8249C245.13 27.8086 244.98 27.7841 244.746 27.7514C244.517 27.7133 244.275 27.6943 244.019 27.6943C243.409 27.6943 242.865 27.8222 242.386 28.0781C241.912 28.3286 241.536 28.6771 241.259 29.1236C240.986 29.5646 240.85 30.0683 240.85 30.6346V38.5735H238.923ZM252.358 38.8349C251.15 38.8349 250.107 38.5681 249.23 38.0345C248.359 37.4954 247.687 36.744 247.213 35.7802C246.745 34.811 246.51 33.6838 246.51 32.3988C246.51 31.1138 246.745 29.9812 247.213 29.0011C247.687 28.0155 248.345 27.2478 249.189 26.6978C250.039 26.1424 251.03 25.8647 252.162 25.8647C252.816 25.8647 253.461 25.9736 254.098 26.1914C254.735 26.4092 255.315 26.7631 255.838 27.2532C256.361 27.7378 256.777 28.3803 257.087 29.1808C257.398 29.9812 257.553 30.9667 257.553 32.1374V32.9542H247.883V31.288H255.593C255.593 30.5801 255.451 29.9485 255.168 29.3931C254.89 28.8377 254.493 28.3994 253.976 28.0781C253.464 27.7569 252.859 27.5962 252.162 27.5962C251.395 27.5962 250.73 27.7868 250.169 28.168C249.614 28.5437 249.187 29.0337 248.887 29.6381C248.588 30.2426 248.438 30.8905 248.438 31.582V32.6928C248.438 33.6403 248.601 34.4434 248.928 35.1023C249.26 35.7557 249.72 36.2539 250.308 36.597C250.896 36.9345 251.58 37.1033 252.358 37.1033C252.865 37.1033 253.322 37.0326 253.731 36.891C254.144 36.744 254.501 36.5262 254.8 36.2376C255.1 35.9435 255.331 35.5787 255.495 35.1431L257.357 35.6658C257.161 36.2975 256.832 36.8529 256.369 37.332C255.906 37.8058 255.334 38.176 254.653 38.4428C253.973 38.7042 253.208 38.8349 252.358 38.8349ZM266.072 26.0281V27.6616H259.309V26.0281H266.072ZM261.335 38.5735V24.2965C261.335 23.5778 261.503 22.9788 261.841 22.4997C262.179 22.0205 262.617 21.6611 263.156 21.4215C263.695 21.1819 264.264 21.0622 264.863 21.0622C265.337 21.0622 265.723 21.1003 266.023 21.1765C266.322 21.2527 266.546 21.3235 266.693 21.3889L266.137 23.0551C266.039 23.0224 265.903 22.9815 265.729 22.9325C265.56 22.8835 265.337 22.859 265.059 22.859C264.422 22.859 263.962 23.0197 263.679 23.3409C263.401 23.6622 263.262 24.1332 263.262 24.7539V38.5735H261.335ZM273.517 38.8349C272.308 38.8349 271.265 38.5681 270.388 38.0345C269.517 37.4954 268.845 36.744 268.371 35.7802C267.903 34.811 267.669 33.6838 267.669 32.3988C267.669 31.1138 267.903 29.9812 268.371 29.0011C268.845 28.0155 269.504 27.2478 270.348 26.6978C271.197 26.1424 272.188 25.8647 273.321 25.8647C273.974 25.8647 274.619 25.9736 275.256 26.1914C275.893 26.4092 276.473 26.7631 276.996 27.2532C277.519 27.7378 277.935 28.3803 278.246 29.1808C278.556 29.9812 278.711 30.9667 278.711 32.1374V32.9542H269.041V31.288H276.751C276.751 30.5801 276.609 29.9485 276.326 29.3931C276.049 28.8377 275.651 28.3994 275.134 28.0781C274.622 27.7569 274.018 27.5962 273.321 27.5962C272.553 27.5962 271.889 27.7868 271.328 28.168C270.772 28.5437 270.345 29.0337 270.045 29.6381C269.746 30.2426 269.596 30.8905 269.596 31.582V32.6928C269.596 33.6403 269.759 34.4434 270.086 35.1023C270.418 35.7557 270.878 36.2539 271.467 36.597C272.055 36.9345 272.738 37.1033 273.517 37.1033C274.023 37.1033 274.48 37.0326 274.889 36.891C275.303 36.744 275.659 36.5262 275.959 36.2376C276.258 35.9435 276.49 35.5787 276.653 35.1431L278.515 35.6658C278.319 36.2975 277.99 36.8529 277.527 37.332C277.064 37.8058 276.492 38.176 275.812 38.4428C275.131 38.7042 274.366 38.8349 273.517 38.8349ZM281.643 38.5735V26.0281H283.506V27.9229H283.636C283.865 27.3022 284.279 26.7985 284.878 26.4119C285.477 26.0253 286.152 25.832 286.903 25.832C287.045 25.832 287.222 25.8348 287.434 25.8402C287.647 25.8457 287.807 25.8538 287.916 25.8647V27.8249C287.851 27.8086 287.701 27.7841 287.467 27.7514C287.238 27.7133 286.996 27.6943 286.74 27.6943C286.13 27.6943 285.586 27.8222 285.106 28.0781C284.633 28.3286 284.257 28.6771 283.979 29.1236C283.707 29.5646 283.571 30.0683 283.571 30.6346V38.5735H281.643Z" fill="black"/>
<path d="M26.3882 38.5735H24.2646L30.4066 21.8462H32.4975L38.6396 38.5735H36.516L31.5174 24.4926H31.3867L26.3882 38.5735ZM27.1723 32.0394H35.7319V33.8363H27.1723V32.0394ZM49.6699 26.0281L45.0307 38.5735H43.0705L38.4313 26.0281H40.5222L43.9853 36.0252H44.116L47.579 26.0281H49.6699ZM56.8615 38.8349C55.729 38.8349 54.7352 38.5653 53.8803 38.0263C53.0309 37.4872 52.3666 36.7331 51.8875 35.7639C51.4137 34.7946 51.1769 33.6621 51.1769 32.3661C51.1769 31.0593 51.4137 29.9186 51.8875 28.9439C52.3666 27.9692 53.0309 27.2124 53.8803 26.6733C54.7352 26.1342 55.729 25.8647 56.8615 25.8647C57.9941 25.8647 58.9851 26.1342 59.8345 26.6733C60.6894 27.2124 61.3537 27.9692 61.8274 28.9439C62.3066 29.9186 62.5462 31.0593 62.5462 32.3661C62.5462 33.6621 62.3066 34.7946 61.8274 35.7639C61.3537 36.7331 60.6894 37.4872 59.8345 38.0263C58.9851 38.5653 57.9941 38.8349 56.8615 38.8349ZM56.8615 37.1033C57.7218 37.1033 58.4297 36.8828 58.9851 36.4418C59.5405 36.0007 59.9516 35.4208 60.2184 34.7021C60.4852 33.9833 60.6186 33.2047 60.6186 32.3661C60.6186 31.5276 60.4852 30.7462 60.2184 30.022C59.9516 29.2978 59.5405 28.7125 58.9851 28.266C58.4297 27.8195 57.7218 27.5962 56.8615 27.5962C56.0012 27.5962 55.2933 27.8195 54.7379 28.266C54.1826 28.7125 53.7714 29.2978 53.5046 30.022C53.2378 30.7462 53.1044 31.5276 53.1044 32.3661C53.1044 33.2047 53.2378 33.9833 53.5046 34.7021C53.7714 35.4208 54.1826 36.0007 54.7379 36.4418C55.2933 36.8828 56.0012 37.1033 56.8615 37.1033ZM65.4886 38.5735V26.0281H67.4161V38.5735H65.4886ZM66.4687 23.9372C66.093 23.9372 65.769 23.8092 65.4967 23.5533C65.2299 23.2974 65.0965 22.9897 65.0965 22.6303C65.0965 22.271 65.2299 21.9633 65.4967 21.7074C65.769 21.4515 66.093 21.3235 66.4687 21.3235C66.8444 21.3235 67.1657 21.4515 67.4325 21.7074C67.7047 21.9633 67.8408 22.271 67.8408 22.6303C67.8408 22.9897 67.7047 23.2974 67.4325 23.5533C67.1657 23.8092 66.8444 23.9372 66.4687 23.9372ZM75.6838 38.8349C74.6383 38.8349 73.7154 38.5708 72.915 38.0426C72.1145 37.509 71.4884 36.7576 71.0364 35.7884C70.5845 34.8137 70.3585 33.6621 70.3585 32.3335C70.3585 31.0158 70.5845 29.8723 71.0364 28.9031C71.4884 27.9338 72.1173 27.1851 72.9231 26.657C73.729 26.1288 74.6601 25.8647 75.7165 25.8647C76.5332 25.8647 77.1785 26.0008 77.6522 26.2731C78.1314 26.5399 78.4962 26.8448 78.7466 27.1879C79.0026 27.5255 79.2013 27.8032 79.3429 28.021H79.5062V21.8462H81.4338V38.5735H79.5716V36.646H79.3429C79.2013 36.8747 78.9998 37.1632 78.7385 37.5117C78.4771 37.8548 78.1041 38.1624 77.6195 38.4347C77.1349 38.7015 76.4897 38.8349 75.6838 38.8349ZM75.9452 37.1033C76.7184 37.1033 77.3718 36.9019 77.9054 36.4989C78.439 36.0906 78.8447 35.527 79.1224 34.8082C79.4001 34.0841 79.5389 33.2482 79.5389 32.3008C79.5389 31.3642 79.4028 30.5448 79.1305 29.8423C78.8583 29.1345 78.4553 28.5845 77.9217 28.1925C77.3881 27.795 76.7292 27.5962 75.9452 27.5962C75.1284 27.5962 74.4478 27.8059 73.9033 28.2251C73.3642 28.639 72.9585 29.2025 72.6863 29.9158C72.4195 30.6237 72.2861 31.4187 72.2861 32.3008C72.2861 33.1938 72.4222 34.0051 72.6944 34.7347C72.9721 35.4589 73.3805 36.0361 73.9196 36.4663C74.4641 36.891 75.1393 37.1033 75.9452 37.1033Z" fill="black"/>
<path d="M128.148 21.8462V38.5735H126.187L117.072 25.44H116.909V38.5735H114.883V21.8462H116.844L125.991 35.0124H126.155V21.8462H128.148ZM137.199 38.8349C135.991 38.8349 134.948 38.5681 134.071 38.0345C133.2 37.4954 132.528 36.744 132.054 35.7802C131.586 34.811 131.351 33.6838 131.351 32.3988C131.351 31.1138 131.586 29.9812 132.054 29.0011C132.528 28.0155 133.186 27.2478 134.03 26.6978C134.88 26.1424 135.871 25.8647 137.003 25.8647C137.657 25.8647 138.302 25.9736 138.939 26.1914C139.576 26.4092 140.156 26.7631 140.679 27.2532C141.202 27.7378 141.618 28.3803 141.928 29.1808C142.239 29.9812 142.394 30.9667 142.394 32.1374V32.9542H132.724V31.288H140.434C140.434 30.5801 140.292 29.9485 140.009 29.3931C139.731 28.8377 139.334 28.3994 138.817 28.0781C138.305 27.7569 137.7 27.5962 137.003 27.5962C136.236 27.5962 135.571 27.7868 135.011 28.168C134.455 28.5437 134.028 29.0337 133.728 29.6381C133.429 30.2426 133.279 30.8905 133.279 31.582V32.6928C133.279 33.6403 133.442 34.4434 133.769 35.1023C134.101 35.7557 134.561 36.2539 135.149 36.597C135.737 36.9345 136.421 37.1033 137.199 37.1033C137.706 37.1033 138.163 37.0326 138.572 36.891C138.985 36.744 139.342 36.5262 139.642 36.2376C139.941 35.9435 140.172 35.5787 140.336 35.1431L142.198 35.6658C142.002 36.2975 141.673 36.8529 141.21 37.332C140.747 37.8058 140.175 38.176 139.495 38.4428C138.814 38.7042 138.049 38.8349 137.199 38.8349ZM153.232 33.4443V26.0281H155.16V38.5735H153.232V36.4499H153.102C152.808 37.087 152.35 37.6288 151.73 38.0753C151.109 38.5163 150.325 38.7369 149.377 38.7369C148.593 38.7369 147.896 38.5653 147.286 38.2223C146.677 37.8738 146.197 37.3511 145.849 36.6541C145.5 35.9517 145.326 35.0669 145.326 33.9997V26.0281H147.254V33.869C147.254 34.7837 147.51 35.5134 148.022 36.0579C148.539 36.6024 149.198 36.8747 149.998 36.8747C150.477 36.8747 150.965 36.7521 151.46 36.5071C151.961 36.2621 152.38 35.8864 152.718 35.38C153.061 34.8736 153.232 34.2283 153.232 33.4443ZM164.146 26.0281V27.6616H157.645V26.0281H164.146ZM159.54 23.0224H161.467V34.9798C161.467 35.5243 161.546 35.9327 161.704 36.2049C161.868 36.4717 162.075 36.6514 162.325 36.744C162.581 36.8311 162.851 36.8747 163.134 36.8747C163.346 36.8747 163.52 36.8638 163.656 36.842C163.793 36.8148 163.901 36.793 163.983 36.7766L164.375 38.5082C164.244 38.5572 164.062 38.6062 163.828 38.6552C163.594 38.7096 163.297 38.7369 162.938 38.7369C162.393 38.7369 161.86 38.6198 161.337 38.3857C160.819 38.1515 160.389 37.7949 160.046 37.3157C159.709 36.8365 159.54 36.2321 159.54 35.5025V23.0224ZM167.046 38.5735V26.0281H168.908V27.9229H169.039C169.268 27.3022 169.681 26.7985 170.28 26.4119C170.879 26.0253 171.554 25.832 172.306 25.832C172.447 25.832 172.624 25.8348 172.837 25.8402C173.049 25.8457 173.21 25.8538 173.319 25.8647V27.8249C173.253 27.8086 173.104 27.7841 172.869 27.7514C172.641 27.7133 172.398 27.6943 172.143 27.6943C171.533 27.6943 170.988 27.8222 170.509 28.0781C170.035 28.3286 169.66 28.6771 169.382 29.1236C169.11 29.5646 168.973 30.0683 168.973 30.6346V38.5735H167.046ZM179.295 38.8676C178.5 38.8676 177.779 38.7178 177.131 38.4183C176.483 38.1134 175.968 37.6751 175.587 37.1033C175.206 36.5262 175.015 35.8292 175.015 35.0124C175.015 34.2937 175.157 33.7111 175.44 33.2646C175.723 32.8126 176.102 32.4587 176.576 32.2028C177.049 31.9469 177.572 31.7563 178.144 31.631C178.721 31.5004 179.301 31.3969 179.883 31.3207C180.646 31.2227 181.264 31.1492 181.737 31.1001C182.217 31.0457 182.565 30.9559 182.783 30.8306C183.006 30.7054 183.118 30.4876 183.118 30.1772V30.1119C183.118 29.306 182.897 28.6798 182.456 28.2333C182.021 27.7868 181.359 27.5636 180.471 27.5636C179.551 27.5636 178.83 27.765 178.307 28.168C177.784 28.5709 177.417 29.0011 177.204 29.4585L175.375 28.8051C175.702 28.0427 176.137 27.4492 176.682 27.0245C177.232 26.5943 177.831 26.2949 178.479 26.1261C179.132 25.9518 179.774 25.8647 180.406 25.8647C180.809 25.8647 181.272 25.9137 181.795 26.0117C182.323 26.1043 182.832 26.2976 183.322 26.5916C183.817 26.8857 184.229 27.3294 184.555 27.9229C184.882 28.5165 185.045 29.3114 185.045 30.3079V38.5735H183.118V36.8747H183.02C182.889 37.1469 182.671 37.4382 182.366 37.7486C182.061 38.059 181.656 38.323 181.149 38.5408C180.643 38.7586 180.025 38.8676 179.295 38.8676ZM179.589 37.136C180.352 37.136 180.994 36.9863 181.517 36.6868C182.045 36.3873 182.443 36.0007 182.709 35.527C182.982 35.0533 183.118 34.5551 183.118 34.0323V32.2681C183.036 32.3661 182.856 32.456 182.579 32.5376C182.306 32.6139 181.991 32.6819 181.631 32.7418C181.277 32.7963 180.932 32.8453 180.594 32.8889C180.262 32.927 179.992 32.9596 179.785 32.9869C179.284 33.0522 178.816 33.1584 178.381 33.3054C177.95 33.447 177.602 33.6621 177.335 33.9506C177.074 34.2338 176.943 34.6204 176.943 35.1104C176.943 35.7802 177.191 36.2866 177.686 36.6296C178.187 36.9672 178.822 37.136 179.589 37.136ZM190.491 21.8462V38.5735H188.564V21.8462H190.491Z" fill="black"/>
<defs>
<filter id="filter0_i_13_125" x="0" y="0" width="102.598" height="59.9804" filterUnits="userSpaceOnUse" color-interpolation-filters="sRGB">
<feFlood flood-opacity="0" result="BackgroundImageFix"/>
<feBlend mode="normal" in="SourceGraphic" in2="BackgroundImageFix" result="shape"/>
<feColorMatrix in="SourceAlpha" type="matrix" values="0 0 0 0 0 0 0 0 0 0 0 0 0 0 0 0 0 0 127 0" result="hardAlpha"/>
<feMorphology radius="5" operator="erode" in="SourceAlpha" result="effect1_innerShadow_13_125"/>
<feOffset/>
<feGaussianBlur stdDeviation="3"/>
<feComposite in2="hardAlpha" operator="arithmetic" k2="-1" k3="1"/>
<feColorMatrix type="matrix" values="0 0 0 0 0 0 0 0 0 0 0 0 0 0 0 0 0 0 0.5 0"/>
<feBlend mode="normal" in2="shape" result="effect1_innerShadow_13_125"/>
</filter>
</defs>
</svg>
