<svg width="308" height="60" viewBox="0 0 308 60" fill="none" xmlns="http://www.w3.org/2000/svg">
<mask id="path-1-inside-1_10_48" fill="white">
<path d="M0 30C0 13.4315 13.4315 0 30 0H154V60H30C13.4315 60 0 46.5685 0 30V30Z"/>
</mask>
<g filter="url(#filter0_i_10_48)">
<path d="M0 30C0 13.4315 13.4315 0 30 0H154V60H30C13.4315 60 0 46.5685 0 30V30Z" fill="#FEE9E7"/>
</g>
<path d="M-2 30C-2 12.3269 12.3269 -2 30 -2H154V2H30C14.536 2 2 14.536 2 30H-2ZM154 62H30C12.3269 62 -2 47.6731 -2 30H2C2 45.464 14.536 58 30 58H154V62ZM30 62C12.3269 62 -2 47.6731 -2 30C-2 12.3269 12.3269 -2 30 -2V2C14.536 2 2 14.536 2 30C2 45.464 14.536 58 30 58V62ZM154 0V60V0Z" fill="#303030" mask="url(#path-1-inside-1_10_48)"/>
<mask id="path-3-inside-2_10_48" fill="white">
<path d="M154 0H278C294.569 0 308 13.4315 308 30V30C308 46.5685 294.569 60 278 60H154V0Z"/>
</mask>
<path d="M154 0H278C294.569 0 308 13.4315 308 30V30C308 46.5685 294.569 60 278 60H154V0Z" fill="#D9D9D9"/>
<path d="M154 -2H278C295.673 -2 310 12.3269 310 30H306C306 14.536 293.464 2 278 2H154V-2ZM310 30C310 47.6731 295.673 62 278 62H154V58H278C293.464 58 306 45.464 306 30H310ZM154 60V0V60ZM278 -2C295.673 -2 310 12.3269 310 30C310 47.6731 295.673 62 278 62V58C293.464 58 306 45.464 306 30C306 14.536 293.464 2 278 2V-2Z" fill="#303030" mask="url(#path-3-inside-2_10_48)"/>
<path d="M192.102 39V22.2727H197.754C199.061 22.2727 200.133 22.496 200.972 22.9425C201.81 23.3835 202.431 23.9906 202.834 24.7638C203.237 25.5371 203.438 26.4164 203.438 27.402C203.438 28.3875 203.237 29.2615 202.834 30.0238C202.431 30.7861 201.813 31.3851 200.98 31.8207C200.147 32.2508 199.082 32.4659 197.786 32.4659H193.213V30.6364H197.721C198.614 30.6364 199.333 30.5057 199.877 30.2443C200.427 29.983 200.825 29.6127 201.07 29.1335C201.32 28.6489 201.445 28.0717 201.445 27.402C201.445 26.7322 201.32 26.1469 201.07 25.646C200.819 25.145 200.419 24.7584 199.869 24.4862C199.319 24.2085 198.592 24.0696 197.688 24.0696H194.127V39H192.102ZM199.975 31.4858L204.092 39H201.74L197.688 31.4858H199.975ZM211.677 39.2614C210.469 39.2614 209.426 38.9946 208.549 38.4609C207.678 37.9219 207.006 37.1705 206.532 36.2067C206.064 35.2375 205.829 34.1103 205.829 32.8253C205.829 31.5402 206.064 30.4077 206.532 29.4276C207.006 28.442 207.664 27.6742 208.508 27.1243C209.358 26.5689 210.349 26.2912 211.481 26.2912C212.135 26.2912 212.78 26.4001 213.417 26.6179C214.054 26.8357 214.634 27.1896 215.157 27.6797C215.68 28.1643 216.096 28.8068 216.407 29.6072C216.717 30.4077 216.872 31.3932 216.872 32.5639V33.3807H207.202V31.7145H214.912C214.912 31.0066 214.77 30.375 214.487 29.8196C214.209 29.2642 213.812 28.8259 213.295 28.5046C212.783 28.1834 212.178 28.0227 211.481 28.0227C210.714 28.0227 210.049 28.2133 209.489 28.5945C208.933 28.9702 208.506 29.4602 208.206 30.0646C207.907 30.669 207.757 31.317 207.757 32.0085V33.1193C207.757 34.0668 207.92 34.8699 208.247 35.5288C208.579 36.1822 209.039 36.6804 209.627 37.0234C210.215 37.361 210.899 37.5298 211.677 37.5298C212.184 37.5298 212.641 37.459 213.05 37.3175C213.463 37.1705 213.82 36.9527 214.12 36.6641C214.419 36.37 214.65 36.0052 214.814 35.5696L216.676 36.0923C216.48 36.724 216.151 37.2794 215.688 37.7585C215.225 38.2322 214.653 38.6025 213.973 38.8693C213.292 39.1307 212.527 39.2614 211.677 39.2614ZM224.541 39.2614C223.496 39.2614 222.573 38.9973 221.773 38.4691C220.972 37.9355 220.346 37.1841 219.894 36.2148C219.442 35.2402 219.216 34.0885 219.216 32.7599C219.216 31.4422 219.442 30.2988 219.894 29.3295C220.346 28.3603 220.975 27.6116 221.781 27.0835C222.587 26.5553 223.518 26.2912 224.574 26.2912C225.391 26.2912 226.036 26.4273 226.51 26.6996C226.989 26.9664 227.354 27.2713 227.604 27.6143C227.86 27.9519 228.059 28.2296 228.201 28.4474H228.364V22.2727H230.291V39H228.429V37.0724H228.201C228.059 37.3011 227.858 37.5897 227.596 37.9382C227.335 38.2812 226.962 38.5889 226.477 38.8612C225.993 39.128 225.347 39.2614 224.541 39.2614ZM224.803 37.5298C225.576 37.5298 226.229 37.3284 226.763 36.9254C227.297 36.517 227.702 35.9535 227.98 35.2347C228.258 34.5105 228.397 33.6747 228.397 32.7273C228.397 31.7907 228.26 30.9712 227.988 30.2688C227.716 29.561 227.313 29.011 226.779 28.619C226.246 28.2215 225.587 28.0227 224.803 28.0227C223.986 28.0227 223.305 28.2324 222.761 28.6516C222.222 29.0655 221.816 29.629 221.544 30.3423C221.277 31.0502 221.144 31.8452 221.144 32.7273C221.144 33.6203 221.28 34.4316 221.552 35.1612C221.83 35.8854 222.238 36.4626 222.777 36.8928C223.322 37.3175 223.997 37.5298 224.803 37.5298ZM241.996 33.8707V26.4545H243.923V39H241.996V36.8764H241.865C241.571 37.5135 241.114 38.0553 240.493 38.5018C239.872 38.9428 239.088 39.1634 238.141 39.1634C237.356 39.1634 236.659 38.9918 236.05 38.6488C235.44 38.3003 234.961 37.7776 234.612 37.0806C234.264 36.3782 234.089 35.4934 234.089 34.4261V26.4545H236.017V34.2955C236.017 35.2102 236.273 35.9399 236.785 36.4844C237.302 37.0289 237.961 37.3011 238.761 37.3011C239.24 37.3011 239.728 37.1786 240.223 36.9336C240.724 36.6886 241.143 36.3129 241.481 35.8065C241.824 35.3001 241.996 34.6548 241.996 33.8707ZM252.55 39.2614C251.374 39.2614 250.361 38.9837 249.512 38.4283C248.662 37.8729 248.009 37.1078 247.552 36.1332C247.094 35.1585 246.866 34.045 246.866 32.7926C246.866 31.5185 247.1 30.3941 247.568 29.4194C248.042 28.4393 248.701 27.6742 249.545 27.1243C250.394 26.5689 251.385 26.2912 252.518 26.2912C253.4 26.2912 254.195 26.4545 254.903 26.7812C255.61 27.108 256.19 27.5653 256.642 28.1534C257.094 28.7415 257.375 29.4276 257.483 30.2116H255.556C255.409 29.6399 255.082 29.1335 254.576 28.6925C254.075 28.246 253.4 28.0227 252.55 28.0227C251.799 28.0227 251.14 28.2187 250.574 28.6108C250.013 28.9974 249.575 29.5446 249.259 30.2525C248.948 30.9549 248.793 31.7798 248.793 32.7273C248.793 33.6965 248.946 34.5405 249.251 35.2592C249.561 35.978 249.997 36.5361 250.557 36.9336C251.124 37.3311 251.788 37.5298 252.55 37.5298C253.051 37.5298 253.506 37.4427 253.914 37.2685C254.323 37.0942 254.668 36.8438 254.952 36.517C255.235 36.1903 255.436 35.7983 255.556 35.3409H257.483C257.375 36.0814 257.105 36.7485 256.675 37.342C256.25 37.93 255.687 38.3983 254.984 38.7468C254.287 39.0898 253.476 39.2614 252.55 39.2614ZM265.561 39.2614C264.352 39.2614 263.31 38.9946 262.433 38.4609C261.562 37.9219 260.889 37.1705 260.416 36.2067C259.947 35.2375 259.713 34.1103 259.713 32.8253C259.713 31.5402 259.947 30.4077 260.416 29.4276C260.889 28.442 261.548 27.6742 262.392 27.1243C263.242 26.5689 264.233 26.2912 265.365 26.2912C266.019 26.2912 266.664 26.4001 267.301 26.6179C267.938 26.8357 268.518 27.1896 269.041 27.6797C269.563 28.1643 269.98 28.8068 270.29 29.6072C270.601 30.4077 270.756 31.3932 270.756 32.5639V33.3807H261.085V31.7145H268.796C268.796 31.0066 268.654 30.375 268.371 29.8196C268.093 29.2642 267.696 28.8259 267.178 28.5046C266.667 28.1834 266.062 28.0227 265.365 28.0227C264.597 28.0227 263.933 28.2133 263.372 28.5945C262.817 28.9702 262.39 29.4602 262.09 30.0646C261.791 30.669 261.641 31.317 261.641 32.0085V33.1193C261.641 34.0668 261.804 34.8699 262.131 35.5288C262.463 36.1822 262.923 36.6804 263.511 37.0234C264.099 37.361 264.783 37.5298 265.561 37.5298C266.068 37.5298 266.525 37.459 266.933 37.3175C267.347 37.1705 267.704 36.9527 268.003 36.6641C268.303 36.37 268.534 36.0052 268.698 35.5696L270.56 36.0923C270.364 36.724 270.034 37.2794 269.572 37.7585C269.109 38.2322 268.537 38.6025 267.856 38.8693C267.176 39.1307 266.411 39.2614 265.561 39.2614Z" fill="black"/>
<path d="M59.9797 22.2727V39H58.0195L48.9044 25.8665H48.7411V39H46.7155V22.2727H48.6757L57.8235 35.4389H57.9868V22.2727H59.9797ZM69.0315 39.2614C67.8227 39.2614 66.7799 38.9946 65.9033 38.4609C65.0321 37.9219 64.3596 37.1705 63.8859 36.2067C63.4176 35.2375 63.1835 34.1103 63.1835 32.8253C63.1835 31.5402 63.4176 30.4077 63.8859 29.4276C64.3596 28.442 65.0185 27.6742 65.8624 27.1243C66.7119 26.5689 67.7029 26.2912 68.8354 26.2912C69.4889 26.2912 70.1341 26.4001 70.7712 26.6179C71.4082 26.8357 71.9881 27.1896 72.5109 27.6797C73.0336 28.1643 73.4502 28.8068 73.7605 29.6072C74.0709 30.4077 74.2261 31.3932 74.2261 32.5639V33.3807H64.5556V31.7145H72.2658C72.2658 31.0066 72.1243 30.375 71.8411 29.8196C71.5634 29.2642 71.1659 28.8259 70.6487 28.5046C70.1368 28.1834 69.5324 28.0227 68.8354 28.0227C68.0677 28.0227 67.4034 28.2133 66.8426 28.5945C66.2872 28.9702 65.8597 29.4602 65.5602 30.0646C65.2608 30.669 65.111 31.317 65.111 32.0085V33.1193C65.111 34.0668 65.2744 34.8699 65.6011 35.5288C65.9332 36.1822 66.3933 36.6804 66.9814 37.0234C67.5695 37.361 68.2528 37.5298 69.0315 37.5298C69.5379 37.5298 69.9953 37.459 70.4036 37.3175C70.8175 37.1705 71.1741 36.9527 71.4736 36.6641C71.7731 36.37 72.0045 36.0052 72.1678 35.5696L74.0301 36.0923C73.834 36.724 73.5046 37.2794 73.0418 37.7585C72.5789 38.2322 72.0072 38.6025 71.3266 38.8693C70.6459 39.1307 69.8809 39.2614 69.0315 39.2614ZM87.0349 26.4545L82.3957 39H80.4355L75.7963 26.4545H77.8872L81.3503 36.4517H81.481L84.944 26.4545H87.0349ZM94.3899 39.2614C93.1811 39.2614 92.1383 38.9946 91.2617 38.4609C90.3905 37.9219 89.718 37.1705 89.2443 36.2067C88.776 35.2375 88.5419 34.1103 88.5419 32.8253C88.5419 31.5402 88.776 30.4077 89.2443 29.4276C89.718 28.442 90.3768 27.6742 91.2208 27.1243C92.0703 26.5689 93.0613 26.2912 94.1938 26.2912C94.8473 26.2912 95.4925 26.4001 96.1296 26.6179C96.7666 26.8357 97.3465 27.1896 97.8693 27.6797C98.392 28.1643 98.8085 28.8068 99.1189 29.6072C99.4293 30.4077 99.5845 31.3932 99.5845 32.5639V33.3807H89.914V31.7145H97.6242C97.6242 31.0066 97.4827 30.375 97.1995 29.8196C96.9218 29.2642 96.5243 28.8259 96.0071 28.5046C95.4952 28.1834 94.8908 28.0227 94.1938 28.0227C93.4261 28.0227 92.7618 28.2133 92.201 28.5945C91.6456 28.9702 91.2181 29.4602 90.9186 30.0646C90.6192 30.669 90.4694 31.317 90.4694 32.0085V33.1193C90.4694 34.0668 90.6328 34.8699 90.9595 35.5288C91.2916 36.1822 91.7517 36.6804 92.3398 37.0234C92.9279 37.361 93.6112 37.5298 94.3899 37.5298C94.8963 37.5298 95.3536 37.459 95.762 37.3175C96.1759 37.1705 96.5325 36.9527 96.832 36.6641C97.1315 36.37 97.3629 36.0052 97.5262 35.5696L99.3885 36.0923C99.1924 36.724 98.863 37.2794 98.4002 37.7585C97.9373 38.2322 97.3656 38.6025 96.685 38.8693C96.0043 39.1307 95.2393 39.2614 94.3899 39.2614ZM102.517 39V26.4545H104.379V28.3494H104.51C104.738 27.7287 105.152 27.225 105.751 26.8384C106.35 26.4518 107.025 26.2585 107.777 26.2585C107.918 26.2585 108.095 26.2612 108.307 26.2667C108.52 26.2721 108.68 26.2803 108.789 26.2912V28.2514C108.724 28.2351 108.574 28.2106 108.34 28.1779C108.111 28.1398 107.869 28.1207 107.613 28.1207C107.003 28.1207 106.459 28.2487 105.98 28.5046C105.506 28.7551 105.13 29.1036 104.853 29.5501C104.58 29.9911 104.444 30.4948 104.444 31.0611V39H102.517Z" fill="black"/>
<defs>
<filter id="filter0_i_10_48" x="0" y="0" width="154" height="60" filterUnits="userSpaceOnUse" color-interpolation-filters="sRGB">
<feFlood flood-opacity="0" result="BackgroundImageFix"/>
<feBlend mode="normal" in="SourceGraphic" in2="BackgroundImageFix" result="shape"/>
<feColorMatrix in="SourceAlpha" type="matrix" values="0 0 0 0 0 0 0 0 0 0 0 0 0 0 0 0 0 0 127 0" result="hardAlpha"/>
<feMorphology radius="5" operator="erode" in="SourceAlpha" result="effect1_innerShadow_10_48"/>
<feOffset/>
<feGaussianBlur stdDeviation="3"/>
<feComposite in2="hardAlpha" operator="arithmetic" k2="-1" k3="1"/>
<feColorMatrix type="matrix" values="0 0 0 0 0 0 0 0 0 0 0 0 0 0 0 0 0 0 0.5 0"/>
<feBlend mode="normal" in2="shape" result="effect1_innerShadow_10_48"/>
</filter>
</defs>
</svg>
